M48
; DRILL file {KiCad 8.0.8} date 2025-02-15T13:49:27+0200
; FORMAT={-:-/ absolute / inch / decimal}
; #@! TF.CreationDate,2025-02-15T13:49:27+02:00
; #@! TF.GenerationSoftware,Kicad,Pcbnew,8.0.8
; #@! TF.FileFunction,Plated,1,2,PTH
FMAT,2
INCH
; #@! TA.AperFunction,Plated,PTH,ComponentDrill
T1C0.0315
; #@! TA.AperFunction,Plated,PTH,ComponentDrill
T2C0.0591
%
G90
G05
T1
X4.8Y-3.7
X4.8261Y-3.1907
X4.9Y-3.7
X4.9261Y-3.1907
X4.9595Y-4.2
X5.0549Y-3.7184
X5.0595Y-4.2
X5.1075Y-3.327
X5.2176Y-4.0838
X5.2206Y-4.6
X5.2502Y-2.8068
X5.3206Y-4.6
X5.3502Y-2.8068
X5.3646Y-3.0206
X5.4933Y-4.4186
X5.5609Y-3.1456
X5.6325Y-4.8639
X5.6325Y-4.9639
X5.7518Y-3.0359
X5.7661Y-4.7112
X5.8285Y-3.4429
X5.8518Y-3.0359
X5.8625Y-4.8496
X5.9771Y-3.4625
X6.0272Y-5.145
X6.0272Y-5.245
X6.0771Y-3.4625
X6.2625Y-4.8496
X6.2816Y-2.9861
X6.2816Y-3.0861
X6.3003Y-4.7077
X6.4Y-4.9141
X6.4122Y-3.2366
X6.5Y-4.9141
X6.568Y-4.4105
X6.7Y-4.6
X6.7398Y-3.0072
X6.7502Y-2.7569
X6.7502Y-2.8569
X6.8Y-4.6
X6.9689Y-3.3943
X6.9689Y-3.7943
X7.0Y-4.2
X7.1Y-4.2
X7.119Y-3.1907
X7.136Y-3.7
X7.219Y-3.1907
X7.236Y-3.7
T2
X4.5906Y-5.45
X5.4094Y-5.45
X6.5406Y-5.45
X7.3594Y-5.45
M30
