%TF.GenerationSoftware,KiCad,Pcbnew,8.0.8*%
%TF.CreationDate,2025-02-16T11:43:37+02:00*%
%TF.ProjectId,Solder practice heart,536f6c64-6572-4207-9072-616374696365,rev?*%
%TF.SameCoordinates,Original*%
%TF.FileFunction,Legend,Top*%
%TF.FilePolarity,Positive*%
%FSLAX46Y46*%
G04 Gerber Fmt 4.6, Leading zero omitted, Abs format (unit mm)*
G04 Created by KiCad (PCBNEW 8.0.8) date 2025-02-16 11:43:37*
%MOMM*%
%LPD*%
G01*
G04 APERTURE LIST*
%ADD10C,0.245206*%
%ADD11C,0.150000*%
%ADD12C,0.120000*%
G04 APERTURE END LIST*
D10*
X173043584Y-74867158D02*
X174541579Y-75527430D01*
X175896908Y-76508513D01*
X177096601Y-77788023D01*
X178127688Y-79343580D01*
X178977201Y-81152800D01*
X179632168Y-83193302D01*
X180079621Y-85442704D01*
X180306590Y-87878623D01*
X180300105Y-90478678D01*
X180047197Y-93220486D01*
X179534895Y-96081665D01*
X178750231Y-99039833D01*
X177680235Y-102072609D01*
X176311936Y-105157609D01*
X174632366Y-108272452D01*
X172628555Y-111394755D01*
X170287532Y-114502137D01*
X167596329Y-117572216D01*
X164541976Y-120582609D01*
X161111503Y-123510934D01*
X157291940Y-126334809D01*
X153070318Y-129031852D01*
X148848696Y-126334809D01*
X145029133Y-123510934D01*
X141598659Y-120582609D01*
X138544306Y-117572216D01*
X135853103Y-114502137D01*
X133512080Y-111394755D01*
X131508269Y-108272452D01*
X129828699Y-105157609D01*
X128460400Y-102072609D01*
X127390404Y-99039833D01*
X126605740Y-96081665D01*
X126093438Y-93220486D01*
X125840530Y-90478678D01*
X125834045Y-87878623D01*
X126061014Y-85442704D01*
X126508467Y-83193302D01*
X127163434Y-81152800D01*
X128012947Y-79343580D01*
X129044034Y-77788023D01*
X130243727Y-76508513D01*
X131599056Y-75527430D01*
X133097051Y-74867158D01*
X134724742Y-74550078D01*
X136469161Y-74598572D01*
X138317336Y-75035023D01*
X140256300Y-75881813D01*
X142273081Y-77161324D01*
X144354710Y-78895937D01*
X146488218Y-81108035D01*
X148660635Y-83820000D01*
X150858992Y-87054215D01*
X153070318Y-90833060D01*
X155281644Y-87054215D01*
X157480000Y-83820000D01*
X159652417Y-81108035D01*
X161785925Y-78895937D01*
X163867555Y-77161324D01*
X165884336Y-75881813D01*
X167823299Y-75035023D01*
X169671475Y-74598572D01*
X171415893Y-74550078D01*
X173043584Y-74867158D01*
D11*
X131420368Y-79511125D02*
X130841323Y-79460384D01*
X131053061Y-79948865D02*
X130287016Y-79306077D01*
X130287016Y-79306077D02*
X130531888Y-79014251D01*
X130531888Y-79014251D02*
X130629584Y-78971903D01*
X130629584Y-78971903D02*
X130696671Y-78966034D01*
X130696671Y-78966034D02*
X130800237Y-78990773D01*
X130800237Y-78990773D02*
X130909672Y-79082600D01*
X130909672Y-79082600D02*
X130952020Y-79180296D01*
X130952020Y-79180296D02*
X130957889Y-79247384D01*
X130957889Y-79247384D02*
X130933149Y-79350949D01*
X130933149Y-79350949D02*
X130688278Y-79642776D01*
X131205285Y-78211728D02*
X131082849Y-78357641D01*
X131082849Y-78357641D02*
X131058109Y-78461207D01*
X131058109Y-78461207D02*
X131063979Y-78528294D01*
X131063979Y-78528294D02*
X131112196Y-78693078D01*
X131112196Y-78693078D02*
X131227500Y-78851992D01*
X131227500Y-78851992D02*
X131519326Y-79096863D01*
X131519326Y-79096863D02*
X131622892Y-79121603D01*
X131622892Y-79121603D02*
X131689979Y-79115733D01*
X131689979Y-79115733D02*
X131787675Y-79073386D01*
X131787675Y-79073386D02*
X131910111Y-78927472D01*
X131910111Y-78927472D02*
X131934851Y-78823907D01*
X131934851Y-78823907D02*
X131928981Y-78756820D01*
X131928981Y-78756820D02*
X131886634Y-78659123D01*
X131886634Y-78659123D02*
X131704242Y-78506079D01*
X131704242Y-78506079D02*
X131600677Y-78481339D01*
X131600677Y-78481339D02*
X131533589Y-78487209D01*
X131533589Y-78487209D02*
X131435893Y-78529556D01*
X131435893Y-78529556D02*
X131313457Y-78675469D01*
X131313457Y-78675469D02*
X131288718Y-78779035D01*
X131288718Y-78779035D02*
X131294587Y-78846122D01*
X131294587Y-78846122D02*
X131336935Y-78943818D01*
X147479805Y-126408582D02*
X147479805Y-126884772D01*
X147479805Y-126884772D02*
X146479805Y-126884772D01*
X146955995Y-126075248D02*
X146955995Y-125741915D01*
X147479805Y-125599058D02*
X147479805Y-126075248D01*
X147479805Y-126075248D02*
X146479805Y-126075248D01*
X146479805Y-126075248D02*
X146479805Y-125599058D01*
X147479805Y-125170486D02*
X146479805Y-125170486D01*
X146479805Y-125170486D02*
X146479805Y-124932391D01*
X146479805Y-124932391D02*
X146527424Y-124789534D01*
X146527424Y-124789534D02*
X146622662Y-124694296D01*
X146622662Y-124694296D02*
X146717900Y-124646677D01*
X146717900Y-124646677D02*
X146908376Y-124599058D01*
X146908376Y-124599058D02*
X147051233Y-124599058D01*
X147051233Y-124599058D02*
X147241709Y-124646677D01*
X147241709Y-124646677D02*
X147336947Y-124694296D01*
X147336947Y-124694296D02*
X147432186Y-124789534D01*
X147432186Y-124789534D02*
X147479805Y-124932391D01*
X147479805Y-124932391D02*
X147479805Y-125170486D01*
X147479805Y-123646677D02*
X147479805Y-124218105D01*
X147479805Y-123932391D02*
X146479805Y-123932391D01*
X146479805Y-123932391D02*
X146622662Y-124027629D01*
X146622662Y-124027629D02*
X146717900Y-124122867D01*
X146717900Y-124122867D02*
X146765519Y-124218105D01*
X146479805Y-122789534D02*
X146479805Y-122980010D01*
X146479805Y-122980010D02*
X146527424Y-123075248D01*
X146527424Y-123075248D02*
X146575043Y-123122867D01*
X146575043Y-123122867D02*
X146717900Y-123218105D01*
X146717900Y-123218105D02*
X146908376Y-123265724D01*
X146908376Y-123265724D02*
X147289328Y-123265724D01*
X147289328Y-123265724D02*
X147384566Y-123218105D01*
X147384566Y-123218105D02*
X147432186Y-123170486D01*
X147432186Y-123170486D02*
X147479805Y-123075248D01*
X147479805Y-123075248D02*
X147479805Y-122884772D01*
X147479805Y-122884772D02*
X147432186Y-122789534D01*
X147432186Y-122789534D02*
X147384566Y-122741915D01*
X147384566Y-122741915D02*
X147289328Y-122694296D01*
X147289328Y-122694296D02*
X147051233Y-122694296D01*
X147051233Y-122694296D02*
X146955995Y-122741915D01*
X146955995Y-122741915D02*
X146908376Y-122789534D01*
X146908376Y-122789534D02*
X146860757Y-122884772D01*
X146860757Y-122884772D02*
X146860757Y-123075248D01*
X146860757Y-123075248D02*
X146908376Y-123170486D01*
X146908376Y-123170486D02*
X146955995Y-123218105D01*
X146955995Y-123218105D02*
X147051233Y-123265724D01*
X133029761Y-75706332D02*
X132553571Y-75706332D01*
X132553571Y-75706332D02*
X132553571Y-74706332D01*
X133363095Y-75182522D02*
X133696428Y-75182522D01*
X133839285Y-75706332D02*
X133363095Y-75706332D01*
X133363095Y-75706332D02*
X133363095Y-74706332D01*
X133363095Y-74706332D02*
X133839285Y-74706332D01*
X134267857Y-75706332D02*
X134267857Y-74706332D01*
X134267857Y-74706332D02*
X134505952Y-74706332D01*
X134505952Y-74706332D02*
X134648809Y-74753951D01*
X134648809Y-74753951D02*
X134744047Y-74849189D01*
X134744047Y-74849189D02*
X134791666Y-74944427D01*
X134791666Y-74944427D02*
X134839285Y-75134903D01*
X134839285Y-75134903D02*
X134839285Y-75277760D01*
X134839285Y-75277760D02*
X134791666Y-75468236D01*
X134791666Y-75468236D02*
X134744047Y-75563474D01*
X134744047Y-75563474D02*
X134648809Y-75658713D01*
X134648809Y-75658713D02*
X134505952Y-75706332D01*
X134505952Y-75706332D02*
X134267857Y-75706332D01*
X135791666Y-75706332D02*
X135220238Y-75706332D01*
X135505952Y-75706332D02*
X135505952Y-74706332D01*
X135505952Y-74706332D02*
X135410714Y-74849189D01*
X135410714Y-74849189D02*
X135315476Y-74944427D01*
X135315476Y-74944427D02*
X135220238Y-74992046D01*
X136172619Y-74801570D02*
X136220238Y-74753951D01*
X136220238Y-74753951D02*
X136315476Y-74706332D01*
X136315476Y-74706332D02*
X136553571Y-74706332D01*
X136553571Y-74706332D02*
X136648809Y-74753951D01*
X136648809Y-74753951D02*
X136696428Y-74801570D01*
X136696428Y-74801570D02*
X136744047Y-74896808D01*
X136744047Y-74896808D02*
X136744047Y-74992046D01*
X136744047Y-74992046D02*
X136696428Y-75134903D01*
X136696428Y-75134903D02*
X136125000Y-75706332D01*
X136125000Y-75706332D02*
X136744047Y-75706332D01*
X161892875Y-114643646D02*
X161315953Y-114572727D01*
X161510515Y-115068300D02*
X160767370Y-114399170D01*
X160767370Y-114399170D02*
X161022277Y-114116067D01*
X161022277Y-114116067D02*
X161121392Y-114077154D01*
X161121392Y-114077154D02*
X161188643Y-114073630D01*
X161188643Y-114073630D02*
X161291282Y-114101969D01*
X161291282Y-114101969D02*
X161397446Y-114197559D01*
X161397446Y-114197559D02*
X161436358Y-114296673D01*
X161436358Y-114296673D02*
X161439882Y-114363925D01*
X161439882Y-114363925D02*
X161411544Y-114466564D01*
X161411544Y-114466564D02*
X161156637Y-114749667D01*
X161475413Y-113755139D02*
X161471889Y-113687888D01*
X161471889Y-113687888D02*
X161500228Y-113585249D01*
X161500228Y-113585249D02*
X161659544Y-113408310D01*
X161659544Y-113408310D02*
X161758659Y-113369397D01*
X161758659Y-113369397D02*
X161825910Y-113365873D01*
X161825910Y-113365873D02*
X161928549Y-113394212D01*
X161928549Y-113394212D02*
X161999325Y-113457939D01*
X161999325Y-113457939D02*
X162073625Y-113588916D01*
X162073625Y-113588916D02*
X162115919Y-114395931D01*
X162115919Y-114395931D02*
X162530143Y-113935889D01*
X127813509Y-100084707D02*
X128112952Y-99586508D01*
X127581088Y-99562681D02*
X128494634Y-99155944D01*
X128494634Y-99155944D02*
X128649581Y-99503962D01*
X128649581Y-99503962D02*
X128644816Y-99610334D01*
X128644816Y-99610334D02*
X128620682Y-99673205D01*
X128620682Y-99673205D02*
X128553046Y-99755444D01*
X128553046Y-99755444D02*
X128422540Y-99813549D01*
X128422540Y-99813549D02*
X128316167Y-99808784D01*
X128316167Y-99808784D02*
X128253296Y-99784650D01*
X128253296Y-99784650D02*
X128171057Y-99717014D01*
X128171057Y-99717014D02*
X128016110Y-99368997D01*
X128862634Y-99982485D02*
X129133791Y-100591516D01*
X129133791Y-100591516D02*
X128045930Y-100606733D01*
X132277533Y-113334819D02*
X131801343Y-113334819D01*
X131801343Y-113334819D02*
X131801343Y-112334819D01*
X132610867Y-112811009D02*
X132944200Y-112811009D01*
X133087057Y-113334819D02*
X132610867Y-113334819D01*
X132610867Y-113334819D02*
X132610867Y-112334819D01*
X132610867Y-112334819D02*
X133087057Y-112334819D01*
X133515629Y-113334819D02*
X133515629Y-112334819D01*
X133515629Y-112334819D02*
X133753724Y-112334819D01*
X133753724Y-112334819D02*
X133896581Y-112382438D01*
X133896581Y-112382438D02*
X133991819Y-112477676D01*
X133991819Y-112477676D02*
X134039438Y-112572914D01*
X134039438Y-112572914D02*
X134087057Y-112763390D01*
X134087057Y-112763390D02*
X134087057Y-112906247D01*
X134087057Y-112906247D02*
X134039438Y-113096723D01*
X134039438Y-113096723D02*
X133991819Y-113191961D01*
X133991819Y-113191961D02*
X133896581Y-113287200D01*
X133896581Y-113287200D02*
X133753724Y-113334819D01*
X133753724Y-113334819D02*
X133515629Y-113334819D01*
X135039438Y-113334819D02*
X134468010Y-113334819D01*
X134753724Y-113334819D02*
X134753724Y-112334819D01*
X134753724Y-112334819D02*
X134658486Y-112477676D01*
X134658486Y-112477676D02*
X134563248Y-112572914D01*
X134563248Y-112572914D02*
X134468010Y-112620533D01*
X135944200Y-112334819D02*
X135468010Y-112334819D01*
X135468010Y-112334819D02*
X135420391Y-112811009D01*
X135420391Y-112811009D02*
X135468010Y-112763390D01*
X135468010Y-112763390D02*
X135563248Y-112715771D01*
X135563248Y-112715771D02*
X135801343Y-112715771D01*
X135801343Y-112715771D02*
X135896581Y-112763390D01*
X135896581Y-112763390D02*
X135944200Y-112811009D01*
X135944200Y-112811009D02*
X135991819Y-112906247D01*
X135991819Y-112906247D02*
X135991819Y-113144342D01*
X135991819Y-113144342D02*
X135944200Y-113239580D01*
X135944200Y-113239580D02*
X135896581Y-113287200D01*
X135896581Y-113287200D02*
X135801343Y-113334819D01*
X135801343Y-113334819D02*
X135563248Y-113334819D01*
X135563248Y-113334819D02*
X135468010Y-113287200D01*
X135468010Y-113287200D02*
X135420391Y-113239580D01*
X170330952Y-113334819D02*
X169854762Y-113334819D01*
X169854762Y-113334819D02*
X169854762Y-112334819D01*
X170664286Y-112811009D02*
X170997619Y-112811009D01*
X171140476Y-113334819D02*
X170664286Y-113334819D01*
X170664286Y-113334819D02*
X170664286Y-112334819D01*
X170664286Y-112334819D02*
X171140476Y-112334819D01*
X171569048Y-113334819D02*
X171569048Y-112334819D01*
X171569048Y-112334819D02*
X171807143Y-112334819D01*
X171807143Y-112334819D02*
X171950000Y-112382438D01*
X171950000Y-112382438D02*
X172045238Y-112477676D01*
X172045238Y-112477676D02*
X172092857Y-112572914D01*
X172092857Y-112572914D02*
X172140476Y-112763390D01*
X172140476Y-112763390D02*
X172140476Y-112906247D01*
X172140476Y-112906247D02*
X172092857Y-113096723D01*
X172092857Y-113096723D02*
X172045238Y-113191961D01*
X172045238Y-113191961D02*
X171950000Y-113287200D01*
X171950000Y-113287200D02*
X171807143Y-113334819D01*
X171807143Y-113334819D02*
X171569048Y-113334819D01*
X172997619Y-112668152D02*
X172997619Y-113334819D01*
X172759524Y-112287200D02*
X172521429Y-113001485D01*
X172521429Y-113001485D02*
X173140476Y-113001485D01*
X151969668Y-84441515D02*
X151493478Y-84441515D01*
X151493478Y-84441515D02*
X151493478Y-83441515D01*
X152303002Y-83917705D02*
X152636335Y-83917705D01*
X152779192Y-84441515D02*
X152303002Y-84441515D01*
X152303002Y-84441515D02*
X152303002Y-83441515D01*
X152303002Y-83441515D02*
X152779192Y-83441515D01*
X153207764Y-84441515D02*
X153207764Y-83441515D01*
X153207764Y-83441515D02*
X153445859Y-83441515D01*
X153445859Y-83441515D02*
X153588716Y-83489134D01*
X153588716Y-83489134D02*
X153683954Y-83584372D01*
X153683954Y-83584372D02*
X153731573Y-83679610D01*
X153731573Y-83679610D02*
X153779192Y-83870086D01*
X153779192Y-83870086D02*
X153779192Y-84012943D01*
X153779192Y-84012943D02*
X153731573Y-84203419D01*
X153731573Y-84203419D02*
X153683954Y-84298657D01*
X153683954Y-84298657D02*
X153588716Y-84393896D01*
X153588716Y-84393896D02*
X153445859Y-84441515D01*
X153445859Y-84441515D02*
X153207764Y-84441515D01*
X154255383Y-84441515D02*
X154445859Y-84441515D01*
X154445859Y-84441515D02*
X154541097Y-84393896D01*
X154541097Y-84393896D02*
X154588716Y-84346276D01*
X154588716Y-84346276D02*
X154683954Y-84203419D01*
X154683954Y-84203419D02*
X154731573Y-84012943D01*
X154731573Y-84012943D02*
X154731573Y-83631991D01*
X154731573Y-83631991D02*
X154683954Y-83536753D01*
X154683954Y-83536753D02*
X154636335Y-83489134D01*
X154636335Y-83489134D02*
X154541097Y-83441515D01*
X154541097Y-83441515D02*
X154350621Y-83441515D01*
X154350621Y-83441515D02*
X154255383Y-83489134D01*
X154255383Y-83489134D02*
X154207764Y-83536753D01*
X154207764Y-83536753D02*
X154160145Y-83631991D01*
X154160145Y-83631991D02*
X154160145Y-83870086D01*
X154160145Y-83870086D02*
X154207764Y-83965324D01*
X154207764Y-83965324D02*
X154255383Y-84012943D01*
X154255383Y-84012943D02*
X154350621Y-84060562D01*
X154350621Y-84060562D02*
X154541097Y-84060562D01*
X154541097Y-84060562D02*
X154636335Y-84012943D01*
X154636335Y-84012943D02*
X154683954Y-83965324D01*
X154683954Y-83965324D02*
X154731573Y-83870086D01*
X177950952Y-103174819D02*
X177474762Y-103174819D01*
X177474762Y-103174819D02*
X177474762Y-102174819D01*
X178284286Y-102651009D02*
X178617619Y-102651009D01*
X178760476Y-103174819D02*
X178284286Y-103174819D01*
X178284286Y-103174819D02*
X178284286Y-102174819D01*
X178284286Y-102174819D02*
X178760476Y-102174819D01*
X179189048Y-103174819D02*
X179189048Y-102174819D01*
X179189048Y-102174819D02*
X179427143Y-102174819D01*
X179427143Y-102174819D02*
X179570000Y-102222438D01*
X179570000Y-102222438D02*
X179665238Y-102317676D01*
X179665238Y-102317676D02*
X179712857Y-102412914D01*
X179712857Y-102412914D02*
X179760476Y-102603390D01*
X179760476Y-102603390D02*
X179760476Y-102746247D01*
X179760476Y-102746247D02*
X179712857Y-102936723D01*
X179712857Y-102936723D02*
X179665238Y-103031961D01*
X179665238Y-103031961D02*
X179570000Y-103127200D01*
X179570000Y-103127200D02*
X179427143Y-103174819D01*
X179427143Y-103174819D02*
X179189048Y-103174819D01*
X180093810Y-102174819D02*
X180712857Y-102174819D01*
X180712857Y-102174819D02*
X180379524Y-102555771D01*
X180379524Y-102555771D02*
X180522381Y-102555771D01*
X180522381Y-102555771D02*
X180617619Y-102603390D01*
X180617619Y-102603390D02*
X180665238Y-102651009D01*
X180665238Y-102651009D02*
X180712857Y-102746247D01*
X180712857Y-102746247D02*
X180712857Y-102984342D01*
X180712857Y-102984342D02*
X180665238Y-103079580D01*
X180665238Y-103079580D02*
X180617619Y-103127200D01*
X180617619Y-103127200D02*
X180522381Y-103174819D01*
X180522381Y-103174819D02*
X180236667Y-103174819D01*
X180236667Y-103174819D02*
X180141429Y-103127200D01*
X180141429Y-103127200D02*
X180093810Y-103079580D01*
X181404630Y-90474819D02*
X180928440Y-90474819D01*
X180928440Y-90474819D02*
X180928440Y-89474819D01*
X181737964Y-89951009D02*
X182071297Y-89951009D01*
X182214154Y-90474819D02*
X181737964Y-90474819D01*
X181737964Y-90474819D02*
X181737964Y-89474819D01*
X181737964Y-89474819D02*
X182214154Y-89474819D01*
X182642726Y-90474819D02*
X182642726Y-89474819D01*
X182642726Y-89474819D02*
X182880821Y-89474819D01*
X182880821Y-89474819D02*
X183023678Y-89522438D01*
X183023678Y-89522438D02*
X183118916Y-89617676D01*
X183118916Y-89617676D02*
X183166535Y-89712914D01*
X183166535Y-89712914D02*
X183214154Y-89903390D01*
X183214154Y-89903390D02*
X183214154Y-90046247D01*
X183214154Y-90046247D02*
X183166535Y-90236723D01*
X183166535Y-90236723D02*
X183118916Y-90331961D01*
X183118916Y-90331961D02*
X183023678Y-90427200D01*
X183023678Y-90427200D02*
X182880821Y-90474819D01*
X182880821Y-90474819D02*
X182642726Y-90474819D01*
X184118916Y-89474819D02*
X183642726Y-89474819D01*
X183642726Y-89474819D02*
X183595107Y-89951009D01*
X183595107Y-89951009D02*
X183642726Y-89903390D01*
X183642726Y-89903390D02*
X183737964Y-89855771D01*
X183737964Y-89855771D02*
X183976059Y-89855771D01*
X183976059Y-89855771D02*
X184071297Y-89903390D01*
X184071297Y-89903390D02*
X184118916Y-89951009D01*
X184118916Y-89951009D02*
X184166535Y-90046247D01*
X184166535Y-90046247D02*
X184166535Y-90284342D01*
X184166535Y-90284342D02*
X184118916Y-90379580D01*
X184118916Y-90379580D02*
X184071297Y-90427200D01*
X184071297Y-90427200D02*
X183976059Y-90474819D01*
X183976059Y-90474819D02*
X183737964Y-90474819D01*
X183737964Y-90474819D02*
X183642726Y-90427200D01*
X183642726Y-90427200D02*
X183595107Y-90379580D01*
X167949819Y-72415560D02*
X167949819Y-72891750D01*
X167949819Y-72891750D02*
X166949819Y-72891750D01*
X167426009Y-72082226D02*
X167426009Y-71748893D01*
X167949819Y-71606036D02*
X167949819Y-72082226D01*
X167949819Y-72082226D02*
X166949819Y-72082226D01*
X166949819Y-72082226D02*
X166949819Y-71606036D01*
X167949819Y-71177464D02*
X166949819Y-71177464D01*
X166949819Y-71177464D02*
X166949819Y-70939369D01*
X166949819Y-70939369D02*
X166997438Y-70796512D01*
X166997438Y-70796512D02*
X167092676Y-70701274D01*
X167092676Y-70701274D02*
X167187914Y-70653655D01*
X167187914Y-70653655D02*
X167378390Y-70606036D01*
X167378390Y-70606036D02*
X167521247Y-70606036D01*
X167521247Y-70606036D02*
X167711723Y-70653655D01*
X167711723Y-70653655D02*
X167806961Y-70701274D01*
X167806961Y-70701274D02*
X167902200Y-70796512D01*
X167902200Y-70796512D02*
X167949819Y-70939369D01*
X167949819Y-70939369D02*
X167949819Y-71177464D01*
X167378390Y-70034607D02*
X167330771Y-70129845D01*
X167330771Y-70129845D02*
X167283152Y-70177464D01*
X167283152Y-70177464D02*
X167187914Y-70225083D01*
X167187914Y-70225083D02*
X167140295Y-70225083D01*
X167140295Y-70225083D02*
X167045057Y-70177464D01*
X167045057Y-70177464D02*
X166997438Y-70129845D01*
X166997438Y-70129845D02*
X166949819Y-70034607D01*
X166949819Y-70034607D02*
X166949819Y-69844131D01*
X166949819Y-69844131D02*
X166997438Y-69748893D01*
X166997438Y-69748893D02*
X167045057Y-69701274D01*
X167045057Y-69701274D02*
X167140295Y-69653655D01*
X167140295Y-69653655D02*
X167187914Y-69653655D01*
X167187914Y-69653655D02*
X167283152Y-69701274D01*
X167283152Y-69701274D02*
X167330771Y-69748893D01*
X167330771Y-69748893D02*
X167378390Y-69844131D01*
X167378390Y-69844131D02*
X167378390Y-70034607D01*
X167378390Y-70034607D02*
X167426009Y-70129845D01*
X167426009Y-70129845D02*
X167473628Y-70177464D01*
X167473628Y-70177464D02*
X167568866Y-70225083D01*
X167568866Y-70225083D02*
X167759342Y-70225083D01*
X167759342Y-70225083D02*
X167854580Y-70177464D01*
X167854580Y-70177464D02*
X167902200Y-70129845D01*
X167902200Y-70129845D02*
X167949819Y-70034607D01*
X167949819Y-70034607D02*
X167949819Y-69844131D01*
X167949819Y-69844131D02*
X167902200Y-69748893D01*
X167902200Y-69748893D02*
X167854580Y-69701274D01*
X167854580Y-69701274D02*
X167759342Y-69653655D01*
X167759342Y-69653655D02*
X167568866Y-69653655D01*
X167568866Y-69653655D02*
X167473628Y-69701274D01*
X167473628Y-69701274D02*
X167426009Y-69748893D01*
X167426009Y-69748893D02*
X167378390Y-69844131D01*
X144281994Y-114520536D02*
X144402925Y-113951991D01*
X143892280Y-114102620D02*
X144623634Y-113420622D01*
X144623634Y-113420622D02*
X144883443Y-113699233D01*
X144883443Y-113699233D02*
X144913569Y-113801361D01*
X144913569Y-113801361D02*
X144911219Y-113868664D01*
X144911219Y-113868664D02*
X144874042Y-113968442D01*
X144874042Y-113968442D02*
X144769563Y-114065871D01*
X144769563Y-114065871D02*
X144667434Y-114095997D01*
X144667434Y-114095997D02*
X144600132Y-114093646D01*
X144600132Y-114093646D02*
X144500353Y-114056470D01*
X144500353Y-114056470D02*
X144240544Y-113777859D01*
X145089624Y-114548739D02*
X145059498Y-114446611D01*
X145059498Y-114446611D02*
X145061848Y-114379308D01*
X145061848Y-114379308D02*
X145099025Y-114279530D01*
X145099025Y-114279530D02*
X145133851Y-114247053D01*
X145133851Y-114247053D02*
X145235980Y-114216928D01*
X145235980Y-114216928D02*
X145303282Y-114219278D01*
X145303282Y-114219278D02*
X145403061Y-114256454D01*
X145403061Y-114256454D02*
X145532965Y-114395760D01*
X145532965Y-114395760D02*
X145563091Y-114497889D01*
X145563091Y-114497889D02*
X145560741Y-114565191D01*
X145560741Y-114565191D02*
X145523564Y-114664970D01*
X145523564Y-114664970D02*
X145488738Y-114697446D01*
X145488738Y-114697446D02*
X145386609Y-114727572D01*
X145386609Y-114727572D02*
X145319307Y-114725222D01*
X145319307Y-114725222D02*
X145219528Y-114688045D01*
X145219528Y-114688045D02*
X145089624Y-114548739D01*
X145089624Y-114548739D02*
X144989845Y-114511563D01*
X144989845Y-114511563D02*
X144922543Y-114509213D01*
X144922543Y-114509213D02*
X144820414Y-114539338D01*
X144820414Y-114539338D02*
X144681108Y-114669243D01*
X144681108Y-114669243D02*
X144643932Y-114769021D01*
X144643932Y-114769021D02*
X144641581Y-114836324D01*
X144641581Y-114836324D02*
X144671707Y-114938453D01*
X144671707Y-114938453D02*
X144801612Y-115077758D01*
X144801612Y-115077758D02*
X144901390Y-115114935D01*
X144901390Y-115114935D02*
X144968693Y-115117285D01*
X144968693Y-115117285D02*
X145070822Y-115087159D01*
X145070822Y-115087159D02*
X145210127Y-114957255D01*
X145210127Y-114957255D02*
X145247304Y-114857476D01*
X145247304Y-114857476D02*
X145249654Y-114790174D01*
X145249654Y-114790174D02*
X145219528Y-114688045D01*
X122257123Y-85457708D02*
X121780933Y-85457708D01*
X121780933Y-85457708D02*
X121780933Y-84457708D01*
X122590457Y-84933898D02*
X122923790Y-84933898D01*
X123066647Y-85457708D02*
X122590457Y-85457708D01*
X122590457Y-85457708D02*
X122590457Y-84457708D01*
X122590457Y-84457708D02*
X123066647Y-84457708D01*
X123495219Y-85457708D02*
X123495219Y-84457708D01*
X123495219Y-84457708D02*
X123733314Y-84457708D01*
X123733314Y-84457708D02*
X123876171Y-84505327D01*
X123876171Y-84505327D02*
X123971409Y-84600565D01*
X123971409Y-84600565D02*
X124019028Y-84695803D01*
X124019028Y-84695803D02*
X124066647Y-84886279D01*
X124066647Y-84886279D02*
X124066647Y-85029136D01*
X124066647Y-85029136D02*
X124019028Y-85219612D01*
X124019028Y-85219612D02*
X123971409Y-85314850D01*
X123971409Y-85314850D02*
X123876171Y-85410089D01*
X123876171Y-85410089D02*
X123733314Y-85457708D01*
X123733314Y-85457708D02*
X123495219Y-85457708D01*
X125019028Y-85457708D02*
X124447600Y-85457708D01*
X124733314Y-85457708D02*
X124733314Y-84457708D01*
X124733314Y-84457708D02*
X124638076Y-84600565D01*
X124638076Y-84600565D02*
X124542838Y-84695803D01*
X124542838Y-84695803D02*
X124447600Y-84743422D01*
X125971409Y-85457708D02*
X125399981Y-85457708D01*
X125685695Y-85457708D02*
X125685695Y-84457708D01*
X125685695Y-84457708D02*
X125590457Y-84600565D01*
X125590457Y-84600565D02*
X125495219Y-84695803D01*
X125495219Y-84695803D02*
X125399981Y-84743422D01*
X156047621Y-78234790D02*
X156047621Y-78710980D01*
X156047621Y-78710980D02*
X155047621Y-78710980D01*
X155523811Y-77901456D02*
X155523811Y-77568123D01*
X156047621Y-77425266D02*
X156047621Y-77901456D01*
X156047621Y-77901456D02*
X155047621Y-77901456D01*
X155047621Y-77901456D02*
X155047621Y-77425266D01*
X156047621Y-76996694D02*
X155047621Y-76996694D01*
X155047621Y-76996694D02*
X155047621Y-76758599D01*
X155047621Y-76758599D02*
X155095240Y-76615742D01*
X155095240Y-76615742D02*
X155190478Y-76520504D01*
X155190478Y-76520504D02*
X155285716Y-76472885D01*
X155285716Y-76472885D02*
X155476192Y-76425266D01*
X155476192Y-76425266D02*
X155619049Y-76425266D01*
X155619049Y-76425266D02*
X155809525Y-76472885D01*
X155809525Y-76472885D02*
X155904763Y-76520504D01*
X155904763Y-76520504D02*
X156000002Y-76615742D01*
X156000002Y-76615742D02*
X156047621Y-76758599D01*
X156047621Y-76758599D02*
X156047621Y-76996694D01*
X155047621Y-76091932D02*
X155047621Y-75425266D01*
X155047621Y-75425266D02*
X156047621Y-75853837D01*
X142434889Y-85440616D02*
X142565724Y-84874267D01*
X142052528Y-85015962D02*
X142795673Y-84346831D01*
X142795673Y-84346831D02*
X143050580Y-84629934D01*
X143050580Y-84629934D02*
X143078919Y-84732573D01*
X143078919Y-84732573D02*
X143075394Y-84799824D01*
X143075394Y-84799824D02*
X143036482Y-84898939D01*
X143036482Y-84898939D02*
X142930319Y-84994529D01*
X142930319Y-84994529D02*
X142827679Y-85022868D01*
X142827679Y-85022868D02*
X142760428Y-85019343D01*
X142760428Y-85019343D02*
X142661314Y-84980431D01*
X142661314Y-84980431D02*
X142406407Y-84697328D01*
X143783437Y-85443854D02*
X143464804Y-85089976D01*
X143464804Y-85089976D02*
X143079062Y-85373222D01*
X143079062Y-85373222D02*
X143146313Y-85376746D01*
X143146313Y-85376746D02*
X143245428Y-85415658D01*
X143245428Y-85415658D02*
X143404744Y-85592598D01*
X143404744Y-85592598D02*
X143433083Y-85695237D01*
X143433083Y-85695237D02*
X143429559Y-85762488D01*
X143429559Y-85762488D02*
X143390647Y-85861602D01*
X143390647Y-85861602D02*
X143213707Y-86020919D01*
X143213707Y-86020919D02*
X143111068Y-86049258D01*
X143111068Y-86049258D02*
X143043817Y-86045734D01*
X143043817Y-86045734D02*
X142944702Y-86006821D01*
X142944702Y-86006821D02*
X142785386Y-85829882D01*
X142785386Y-85829882D02*
X142757047Y-85727243D01*
X142757047Y-85727243D02*
X142760571Y-85659992D01*
X121594761Y-98394819D02*
X121118571Y-98394819D01*
X121118571Y-98394819D02*
X121118571Y-97394819D01*
X121928095Y-97871009D02*
X122261428Y-97871009D01*
X122404285Y-98394819D02*
X121928095Y-98394819D01*
X121928095Y-98394819D02*
X121928095Y-97394819D01*
X121928095Y-97394819D02*
X122404285Y-97394819D01*
X122832857Y-98394819D02*
X122832857Y-97394819D01*
X122832857Y-97394819D02*
X123070952Y-97394819D01*
X123070952Y-97394819D02*
X123213809Y-97442438D01*
X123213809Y-97442438D02*
X123309047Y-97537676D01*
X123309047Y-97537676D02*
X123356666Y-97632914D01*
X123356666Y-97632914D02*
X123404285Y-97823390D01*
X123404285Y-97823390D02*
X123404285Y-97966247D01*
X123404285Y-97966247D02*
X123356666Y-98156723D01*
X123356666Y-98156723D02*
X123309047Y-98251961D01*
X123309047Y-98251961D02*
X123213809Y-98347200D01*
X123213809Y-98347200D02*
X123070952Y-98394819D01*
X123070952Y-98394819D02*
X122832857Y-98394819D01*
X124356666Y-98394819D02*
X123785238Y-98394819D01*
X124070952Y-98394819D02*
X124070952Y-97394819D01*
X124070952Y-97394819D02*
X123975714Y-97537676D01*
X123975714Y-97537676D02*
X123880476Y-97632914D01*
X123880476Y-97632914D02*
X123785238Y-97680533D01*
X125213809Y-97728152D02*
X125213809Y-98394819D01*
X124975714Y-97347200D02*
X124737619Y-98061485D01*
X124737619Y-98061485D02*
X125356666Y-98061485D01*
X165794939Y-77823877D02*
X165248757Y-77624997D01*
X165326852Y-78151635D02*
X164753276Y-77332483D01*
X164753276Y-77332483D02*
X165065334Y-77113978D01*
X165065334Y-77113978D02*
X165170661Y-77098359D01*
X165170661Y-77098359D02*
X165236982Y-77110053D01*
X165236982Y-77110053D02*
X165330615Y-77160754D01*
X165330615Y-77160754D02*
X165412555Y-77277776D01*
X165412555Y-77277776D02*
X165428174Y-77383104D01*
X165428174Y-77383104D02*
X165416480Y-77449424D01*
X165416480Y-77449424D02*
X165365778Y-77543058D01*
X165365778Y-77543058D02*
X165053721Y-77761563D01*
X166114685Y-76786139D02*
X166497069Y-77332240D01*
X165701144Y-76610647D02*
X165915805Y-77332321D01*
X165915805Y-77332321D02*
X166422899Y-76977250D01*
X145770595Y-73605562D02*
X145294405Y-73605562D01*
X145294405Y-73605562D02*
X145294405Y-72605562D01*
X146103929Y-73081752D02*
X146437262Y-73081752D01*
X146580119Y-73605562D02*
X146103929Y-73605562D01*
X146103929Y-73605562D02*
X146103929Y-72605562D01*
X146103929Y-72605562D02*
X146580119Y-72605562D01*
X147008691Y-73605562D02*
X147008691Y-72605562D01*
X147008691Y-72605562D02*
X147246786Y-72605562D01*
X147246786Y-72605562D02*
X147389643Y-72653181D01*
X147389643Y-72653181D02*
X147484881Y-72748419D01*
X147484881Y-72748419D02*
X147532500Y-72843657D01*
X147532500Y-72843657D02*
X147580119Y-73034133D01*
X147580119Y-73034133D02*
X147580119Y-73176990D01*
X147580119Y-73176990D02*
X147532500Y-73367466D01*
X147532500Y-73367466D02*
X147484881Y-73462704D01*
X147484881Y-73462704D02*
X147389643Y-73557943D01*
X147389643Y-73557943D02*
X147246786Y-73605562D01*
X147246786Y-73605562D02*
X147008691Y-73605562D01*
X148532500Y-73605562D02*
X147961072Y-73605562D01*
X148246786Y-73605562D02*
X148246786Y-72605562D01*
X148246786Y-72605562D02*
X148151548Y-72748419D01*
X148151548Y-72748419D02*
X148056310Y-72843657D01*
X148056310Y-72843657D02*
X147961072Y-72891276D01*
X149151548Y-72605562D02*
X149246786Y-72605562D01*
X149246786Y-72605562D02*
X149342024Y-72653181D01*
X149342024Y-72653181D02*
X149389643Y-72700800D01*
X149389643Y-72700800D02*
X149437262Y-72796038D01*
X149437262Y-72796038D02*
X149484881Y-72986514D01*
X149484881Y-72986514D02*
X149484881Y-73224609D01*
X149484881Y-73224609D02*
X149437262Y-73415085D01*
X149437262Y-73415085D02*
X149389643Y-73510323D01*
X149389643Y-73510323D02*
X149342024Y-73557943D01*
X149342024Y-73557943D02*
X149246786Y-73605562D01*
X149246786Y-73605562D02*
X149151548Y-73605562D01*
X149151548Y-73605562D02*
X149056310Y-73557943D01*
X149056310Y-73557943D02*
X149008691Y-73510323D01*
X149008691Y-73510323D02*
X148961072Y-73415085D01*
X148961072Y-73415085D02*
X148913453Y-73224609D01*
X148913453Y-73224609D02*
X148913453Y-72986514D01*
X148913453Y-72986514D02*
X148961072Y-72796038D01*
X148961072Y-72796038D02*
X149008691Y-72700800D01*
X149008691Y-72700800D02*
X149056310Y-72653181D01*
X149056310Y-72653181D02*
X149151548Y-72605562D01*
X162710952Y-121313163D02*
X162234762Y-121313163D01*
X162234762Y-121313163D02*
X162234762Y-120313163D01*
X163044286Y-120789353D02*
X163377619Y-120789353D01*
X163520476Y-121313163D02*
X163044286Y-121313163D01*
X163044286Y-121313163D02*
X163044286Y-120313163D01*
X163044286Y-120313163D02*
X163520476Y-120313163D01*
X163949048Y-121313163D02*
X163949048Y-120313163D01*
X163949048Y-120313163D02*
X164187143Y-120313163D01*
X164187143Y-120313163D02*
X164330000Y-120360782D01*
X164330000Y-120360782D02*
X164425238Y-120456020D01*
X164425238Y-120456020D02*
X164472857Y-120551258D01*
X164472857Y-120551258D02*
X164520476Y-120741734D01*
X164520476Y-120741734D02*
X164520476Y-120884591D01*
X164520476Y-120884591D02*
X164472857Y-121075067D01*
X164472857Y-121075067D02*
X164425238Y-121170305D01*
X164425238Y-121170305D02*
X164330000Y-121265544D01*
X164330000Y-121265544D02*
X164187143Y-121313163D01*
X164187143Y-121313163D02*
X163949048Y-121313163D01*
X164901429Y-120408401D02*
X164949048Y-120360782D01*
X164949048Y-120360782D02*
X165044286Y-120313163D01*
X165044286Y-120313163D02*
X165282381Y-120313163D01*
X165282381Y-120313163D02*
X165377619Y-120360782D01*
X165377619Y-120360782D02*
X165425238Y-120408401D01*
X165425238Y-120408401D02*
X165472857Y-120503639D01*
X165472857Y-120503639D02*
X165472857Y-120598877D01*
X165472857Y-120598877D02*
X165425238Y-120741734D01*
X165425238Y-120741734D02*
X164853810Y-121313163D01*
X164853810Y-121313163D02*
X165472857Y-121313163D01*
X175095309Y-91461780D02*
X174619118Y-91795113D01*
X175095309Y-92033208D02*
X174095309Y-92033208D01*
X174095309Y-92033208D02*
X174095309Y-91652256D01*
X174095309Y-91652256D02*
X174142928Y-91557018D01*
X174142928Y-91557018D02*
X174190547Y-91509399D01*
X174190547Y-91509399D02*
X174285785Y-91461780D01*
X174285785Y-91461780D02*
X174428642Y-91461780D01*
X174428642Y-91461780D02*
X174523880Y-91509399D01*
X174523880Y-91509399D02*
X174571499Y-91557018D01*
X174571499Y-91557018D02*
X174619118Y-91652256D01*
X174619118Y-91652256D02*
X174619118Y-92033208D01*
X174095309Y-91128446D02*
X174095309Y-90509399D01*
X174095309Y-90509399D02*
X174476261Y-90842732D01*
X174476261Y-90842732D02*
X174476261Y-90699875D01*
X174476261Y-90699875D02*
X174523880Y-90604637D01*
X174523880Y-90604637D02*
X174571499Y-90557018D01*
X174571499Y-90557018D02*
X174666737Y-90509399D01*
X174666737Y-90509399D02*
X174904832Y-90509399D01*
X174904832Y-90509399D02*
X175000070Y-90557018D01*
X175000070Y-90557018D02*
X175047690Y-90604637D01*
X175047690Y-90604637D02*
X175095309Y-90699875D01*
X175095309Y-90699875D02*
X175095309Y-90985589D01*
X175095309Y-90985589D02*
X175047690Y-91080827D01*
X175047690Y-91080827D02*
X175000070Y-91128446D01*
X153821199Y-121264461D02*
X153487866Y-120788270D01*
X153249771Y-121264461D02*
X153249771Y-120264461D01*
X153249771Y-120264461D02*
X153630723Y-120264461D01*
X153630723Y-120264461D02*
X153725961Y-120312080D01*
X153725961Y-120312080D02*
X153773580Y-120359699D01*
X153773580Y-120359699D02*
X153821199Y-120454937D01*
X153821199Y-120454937D02*
X153821199Y-120597794D01*
X153821199Y-120597794D02*
X153773580Y-120693032D01*
X153773580Y-120693032D02*
X153725961Y-120740651D01*
X153725961Y-120740651D02*
X153630723Y-120788270D01*
X153630723Y-120788270D02*
X153249771Y-120788270D01*
X154773580Y-121264461D02*
X154202152Y-121264461D01*
X154487866Y-121264461D02*
X154487866Y-120264461D01*
X154487866Y-120264461D02*
X154392628Y-120407318D01*
X154392628Y-120407318D02*
X154297390Y-120502556D01*
X154297390Y-120502556D02*
X154202152Y-120550175D01*
X125645760Y-103174819D02*
X125169570Y-103174819D01*
X125169570Y-103174819D02*
X125169570Y-102174819D01*
X125979094Y-102651009D02*
X126312427Y-102651009D01*
X126455284Y-103174819D02*
X125979094Y-103174819D01*
X125979094Y-103174819D02*
X125979094Y-102174819D01*
X125979094Y-102174819D02*
X126455284Y-102174819D01*
X126883856Y-103174819D02*
X126883856Y-102174819D01*
X126883856Y-102174819D02*
X127121951Y-102174819D01*
X127121951Y-102174819D02*
X127264808Y-102222438D01*
X127264808Y-102222438D02*
X127360046Y-102317676D01*
X127360046Y-102317676D02*
X127407665Y-102412914D01*
X127407665Y-102412914D02*
X127455284Y-102603390D01*
X127455284Y-102603390D02*
X127455284Y-102746247D01*
X127455284Y-102746247D02*
X127407665Y-102936723D01*
X127407665Y-102936723D02*
X127360046Y-103031961D01*
X127360046Y-103031961D02*
X127264808Y-103127200D01*
X127264808Y-103127200D02*
X127121951Y-103174819D01*
X127121951Y-103174819D02*
X126883856Y-103174819D01*
X128407665Y-103174819D02*
X127836237Y-103174819D01*
X128121951Y-103174819D02*
X128121951Y-102174819D01*
X128121951Y-102174819D02*
X128026713Y-102317676D01*
X128026713Y-102317676D02*
X127931475Y-102412914D01*
X127931475Y-102412914D02*
X127836237Y-102460533D01*
X128740999Y-102174819D02*
X129360046Y-102174819D01*
X129360046Y-102174819D02*
X129026713Y-102555771D01*
X129026713Y-102555771D02*
X129169570Y-102555771D01*
X129169570Y-102555771D02*
X129264808Y-102603390D01*
X129264808Y-102603390D02*
X129312427Y-102651009D01*
X129312427Y-102651009D02*
X129360046Y-102746247D01*
X129360046Y-102746247D02*
X129360046Y-102984342D01*
X129360046Y-102984342D02*
X129312427Y-103079580D01*
X129312427Y-103079580D02*
X129264808Y-103127200D01*
X129264808Y-103127200D02*
X129169570Y-103174819D01*
X129169570Y-103174819D02*
X128883856Y-103174819D01*
X128883856Y-103174819D02*
X128788618Y-103127200D01*
X128788618Y-103127200D02*
X128740999Y-103079580D01*
X180974374Y-77537708D02*
X180498184Y-77537708D01*
X180498184Y-77537708D02*
X180498184Y-76537708D01*
X181307708Y-77013898D02*
X181641041Y-77013898D01*
X181783898Y-77537708D02*
X181307708Y-77537708D01*
X181307708Y-77537708D02*
X181307708Y-76537708D01*
X181307708Y-76537708D02*
X181783898Y-76537708D01*
X182212470Y-77537708D02*
X182212470Y-76537708D01*
X182212470Y-76537708D02*
X182450565Y-76537708D01*
X182450565Y-76537708D02*
X182593422Y-76585327D01*
X182593422Y-76585327D02*
X182688660Y-76680565D01*
X182688660Y-76680565D02*
X182736279Y-76775803D01*
X182736279Y-76775803D02*
X182783898Y-76966279D01*
X182783898Y-76966279D02*
X182783898Y-77109136D01*
X182783898Y-77109136D02*
X182736279Y-77299612D01*
X182736279Y-77299612D02*
X182688660Y-77394850D01*
X182688660Y-77394850D02*
X182593422Y-77490089D01*
X182593422Y-77490089D02*
X182450565Y-77537708D01*
X182450565Y-77537708D02*
X182212470Y-77537708D01*
X183641041Y-76537708D02*
X183450565Y-76537708D01*
X183450565Y-76537708D02*
X183355327Y-76585327D01*
X183355327Y-76585327D02*
X183307708Y-76632946D01*
X183307708Y-76632946D02*
X183212470Y-76775803D01*
X183212470Y-76775803D02*
X183164851Y-76966279D01*
X183164851Y-76966279D02*
X183164851Y-77347231D01*
X183164851Y-77347231D02*
X183212470Y-77442469D01*
X183212470Y-77442469D02*
X183260089Y-77490089D01*
X183260089Y-77490089D02*
X183355327Y-77537708D01*
X183355327Y-77537708D02*
X183545803Y-77537708D01*
X183545803Y-77537708D02*
X183641041Y-77490089D01*
X183641041Y-77490089D02*
X183688660Y-77442469D01*
X183688660Y-77442469D02*
X183736279Y-77347231D01*
X183736279Y-77347231D02*
X183736279Y-77109136D01*
X183736279Y-77109136D02*
X183688660Y-77013898D01*
X183688660Y-77013898D02*
X183641041Y-76966279D01*
X183641041Y-76966279D02*
X183545803Y-76918660D01*
X183545803Y-76918660D02*
X183355327Y-76918660D01*
X183355327Y-76918660D02*
X183260089Y-76966279D01*
X183260089Y-76966279D02*
X183212470Y-77013898D01*
X183212470Y-77013898D02*
X183164851Y-77109136D01*
X149586304Y-133071887D02*
X149586304Y-133548077D01*
X149586304Y-133548077D02*
X148586304Y-133548077D01*
X149062494Y-132738553D02*
X149062494Y-132405220D01*
X149586304Y-132262363D02*
X149586304Y-132738553D01*
X149586304Y-132738553D02*
X148586304Y-132738553D01*
X148586304Y-132738553D02*
X148586304Y-132262363D01*
X149586304Y-131833791D02*
X148586304Y-131833791D01*
X148586304Y-131833791D02*
X148586304Y-131595696D01*
X148586304Y-131595696D02*
X148633923Y-131452839D01*
X148633923Y-131452839D02*
X148729161Y-131357601D01*
X148729161Y-131357601D02*
X148824399Y-131309982D01*
X148824399Y-131309982D02*
X149014875Y-131262363D01*
X149014875Y-131262363D02*
X149157732Y-131262363D01*
X149157732Y-131262363D02*
X149348208Y-131309982D01*
X149348208Y-131309982D02*
X149443446Y-131357601D01*
X149443446Y-131357601D02*
X149538685Y-131452839D01*
X149538685Y-131452839D02*
X149586304Y-131595696D01*
X149586304Y-131595696D02*
X149586304Y-131833791D01*
X149586304Y-130309982D02*
X149586304Y-130881410D01*
X149586304Y-130595696D02*
X148586304Y-130595696D01*
X148586304Y-130595696D02*
X148729161Y-130690934D01*
X148729161Y-130690934D02*
X148824399Y-130786172D01*
X148824399Y-130786172D02*
X148872018Y-130881410D01*
D12*
%TO.C,R6*%
X129843217Y-82238854D02*
X131942179Y-84000092D01*
X130397751Y-83709327D02*
X130892698Y-83119473D01*
X131942179Y-84000092D02*
X136146009Y-78990161D01*
X134047048Y-77228923D02*
X129843217Y-82238854D01*
X135591474Y-77519687D02*
X135096529Y-78109541D01*
X136146009Y-78990161D02*
X134047048Y-77228923D01*
%TO.C,LED16*%
X143636486Y-124495844D02*
X142493486Y-124495844D01*
X144271486Y-123924344D02*
X145096986Y-124749844D01*
X144271486Y-124876844D02*
X145096986Y-125702344D01*
X144609986Y-122253344D02*
X141519986Y-122253344D01*
X143065448Y-127803344D02*
G75*
G02*
X141520156Y-122253344I-462J2990000D01*
G01*
X144609816Y-122253344D02*
G75*
G02*
X143064524Y-127803344I-1544830J-2560000D01*
G01*
X145564986Y-124813344D02*
G75*
G02*
X140564986Y-124813344I-2500000J0D01*
G01*
X140564986Y-124813344D02*
G75*
G02*
X145564986Y-124813344I2500000J0D01*
G01*
X143636486Y-125130844D02*
X142493486Y-125130844D01*
X143064986Y-124495844D01*
X143636486Y-125130844D01*
G36*
X143636486Y-125130844D02*
G01*
X142493486Y-125130844D01*
X143064986Y-124495844D01*
X143636486Y-125130844D01*
G37*
X145096986Y-124749844D02*
X144715986Y-124749844D01*
X145096986Y-124368844D01*
X145096986Y-124749844D01*
G36*
X145096986Y-124749844D02*
G01*
X144715986Y-124749844D01*
X145096986Y-124368844D01*
X145096986Y-124749844D01*
G37*
X145096986Y-125702344D02*
X144715986Y-125702344D01*
X145096986Y-125321344D01*
X145096986Y-125702344D01*
G36*
X145096986Y-125702344D02*
G01*
X144715986Y-125702344D01*
X145096986Y-125321344D01*
X145096986Y-125702344D01*
G37*
%TO.C,LED12*%
X134561500Y-72498013D02*
X133736000Y-73323513D01*
X134942500Y-71863013D02*
X134942500Y-70720013D01*
X135514000Y-72498013D02*
X134688500Y-73323513D01*
X137185000Y-72836513D02*
X137185000Y-69746513D01*
X131635000Y-71291975D02*
G75*
G02*
X137185000Y-69746683I2990000J462D01*
G01*
X137185000Y-72836343D02*
G75*
G02*
X131635000Y-71291051I-2560000J1544830D01*
G01*
X137125000Y-71291513D02*
G75*
G02*
X132125000Y-71291513I-2500000J0D01*
G01*
X132125000Y-71291513D02*
G75*
G02*
X137125000Y-71291513I2500000J0D01*
G01*
X134117000Y-73323513D02*
X133736000Y-73323513D01*
X133736000Y-72942513D01*
X134117000Y-73323513D01*
G36*
X134117000Y-73323513D02*
G01*
X133736000Y-73323513D01*
X133736000Y-72942513D01*
X134117000Y-73323513D01*
G37*
X134942500Y-71291513D02*
X134307500Y-71863013D01*
X134307500Y-70720013D01*
X134942500Y-71291513D01*
G36*
X134942500Y-71291513D02*
G01*
X134307500Y-71863013D01*
X134307500Y-70720013D01*
X134942500Y-71291513D01*
G37*
X135069500Y-73323513D02*
X134688500Y-73323513D01*
X134688500Y-72942513D01*
X135069500Y-73323513D01*
G36*
X135069500Y-73323513D02*
G01*
X134688500Y-73323513D01*
X134688500Y-72942513D01*
X135069500Y-73323513D01*
G37*
%TO.C,R2*%
X160221489Y-117314670D02*
X162257706Y-119148089D01*
X160724366Y-118803601D02*
X161239597Y-118231380D01*
X162257706Y-119148089D02*
X166633821Y-114287923D01*
X164597604Y-112454504D02*
X160221489Y-117314670D01*
X166130941Y-112798991D02*
X165615711Y-113371212D01*
X166633821Y-114287923D02*
X164597604Y-112454504D01*
%TO.C,R7*%
X127880315Y-96657943D02*
X130540373Y-102632530D01*
X128818685Y-95397283D02*
X129131871Y-96100714D01*
X130383430Y-95543485D02*
X127880315Y-96657943D01*
X130540373Y-102632530D02*
X133043487Y-101518072D01*
X132105117Y-102778732D02*
X131791929Y-102075301D01*
X133043487Y-101518072D02*
X130383430Y-95543485D01*
%TO.C,LED15*%
X131312772Y-115295000D02*
X131312772Y-118385000D01*
X132983772Y-115633500D02*
X133809272Y-114808000D01*
X133555272Y-116268500D02*
X133555272Y-117411500D01*
X133936272Y-115633500D02*
X134761772Y-114808000D01*
X131312772Y-115295170D02*
G75*
G02*
X136862772Y-116840462I2560000J-1544830D01*
G01*
X136862772Y-116839538D02*
G75*
G02*
X131312772Y-118384830I-2990000J-462D01*
G01*
X136372772Y-116840000D02*
G75*
G02*
X131372772Y-116840000I-2500000J0D01*
G01*
X131372772Y-116840000D02*
G75*
G02*
X136372772Y-116840000I2500000J0D01*
G01*
X133809272Y-115189000D02*
X133428272Y-114808000D01*
X133809272Y-114808000D01*
X133809272Y-115189000D01*
G36*
X133809272Y-115189000D02*
G01*
X133428272Y-114808000D01*
X133809272Y-114808000D01*
X133809272Y-115189000D01*
G37*
X134190272Y-117411500D02*
X133555272Y-116840000D01*
X134190272Y-116268500D01*
X134190272Y-117411500D01*
G36*
X134190272Y-117411500D02*
G01*
X133555272Y-116840000D01*
X134190272Y-116268500D01*
X134190272Y-117411500D01*
G37*
X134761772Y-115189000D02*
X134380772Y-114808000D01*
X134761772Y-114808000D01*
X134761772Y-115189000D01*
G36*
X134761772Y-115189000D02*
G01*
X134380772Y-114808000D01*
X134761772Y-114808000D01*
X134761772Y-115189000D01*
G37*
%TO.C,LED4*%
X168890000Y-115295000D02*
X168890000Y-118385000D01*
X170561000Y-115633500D02*
X171386500Y-114808000D01*
X171132500Y-116268500D02*
X171132500Y-117411500D01*
X171513500Y-115633500D02*
X172339000Y-114808000D01*
X168890000Y-115295170D02*
G75*
G02*
X174440000Y-116840462I2560000J-1544830D01*
G01*
X174440000Y-116839538D02*
G75*
G02*
X168890000Y-118384830I-2990000J-462D01*
G01*
X173950000Y-116840000D02*
G75*
G02*
X168950000Y-116840000I-2500000J0D01*
G01*
X168950000Y-116840000D02*
G75*
G02*
X173950000Y-116840000I2500000J0D01*
G01*
X171386500Y-115189000D02*
X171005500Y-114808000D01*
X171386500Y-114808000D01*
X171386500Y-115189000D01*
G36*
X171386500Y-115189000D02*
G01*
X171005500Y-114808000D01*
X171386500Y-114808000D01*
X171386500Y-115189000D01*
G37*
X171767500Y-117411500D02*
X171132500Y-116840000D01*
X171767500Y-116268500D01*
X171767500Y-117411500D01*
G36*
X171767500Y-117411500D02*
G01*
X171132500Y-116840000D01*
X171767500Y-116268500D01*
X171767500Y-117411500D01*
G37*
X172339000Y-115189000D02*
X171958000Y-114808000D01*
X172339000Y-114808000D01*
X172339000Y-115189000D01*
G36*
X172339000Y-115189000D02*
G01*
X171958000Y-114808000D01*
X172339000Y-114808000D01*
X172339000Y-115189000D01*
G37*
%TO.C,LED9*%
X150528716Y-86401696D02*
X150528716Y-89491696D01*
X152199716Y-86740196D02*
X153025216Y-85914696D01*
X152771216Y-87375196D02*
X152771216Y-88518196D01*
X153152216Y-86740196D02*
X153977716Y-85914696D01*
X150528716Y-86401866D02*
G75*
G02*
X156078716Y-87947158I2560000J-1544830D01*
G01*
X156078716Y-87946234D02*
G75*
G02*
X150528716Y-89491526I-2990000J-462D01*
G01*
X155588716Y-87946696D02*
G75*
G02*
X150588716Y-87946696I-2500000J0D01*
G01*
X150588716Y-87946696D02*
G75*
G02*
X155588716Y-87946696I2500000J0D01*
G01*
X153025216Y-86295696D02*
X152644216Y-85914696D01*
X153025216Y-85914696D01*
X153025216Y-86295696D01*
G36*
X153025216Y-86295696D02*
G01*
X152644216Y-85914696D01*
X153025216Y-85914696D01*
X153025216Y-86295696D01*
G37*
X153406216Y-88518196D02*
X152771216Y-87946696D01*
X153406216Y-87375196D01*
X153406216Y-88518196D01*
G36*
X153406216Y-88518196D02*
G01*
X152771216Y-87946696D01*
X153406216Y-87375196D01*
X153406216Y-88518196D01*
G37*
X153977716Y-86295696D02*
X153596716Y-85914696D01*
X153977716Y-85914696D01*
X153977716Y-86295696D01*
G36*
X153977716Y-86295696D02*
G01*
X153596716Y-85914696D01*
X153977716Y-85914696D01*
X153977716Y-86295696D01*
G37*
%TO.C,LED3*%
X176510000Y-105135000D02*
X176510000Y-108225000D01*
X178181000Y-105473500D02*
X179006500Y-104648000D01*
X178752500Y-106108500D02*
X178752500Y-107251500D01*
X179133500Y-105473500D02*
X179959000Y-104648000D01*
X176510000Y-105135170D02*
G75*
G02*
X182060000Y-106680462I2560000J-1544830D01*
G01*
X182060000Y-106679538D02*
G75*
G02*
X176510000Y-108224830I-2990000J-462D01*
G01*
X181570000Y-106680000D02*
G75*
G02*
X176570000Y-106680000I-2500000J0D01*
G01*
X176570000Y-106680000D02*
G75*
G02*
X181570000Y-106680000I2500000J0D01*
G01*
X179006500Y-105029000D02*
X178625500Y-104648000D01*
X179006500Y-104648000D01*
X179006500Y-105029000D01*
G36*
X179006500Y-105029000D02*
G01*
X178625500Y-104648000D01*
X179006500Y-104648000D01*
X179006500Y-105029000D01*
G37*
X179387500Y-107251500D02*
X178752500Y-106680000D01*
X179387500Y-106108500D01*
X179387500Y-107251500D01*
G36*
X179387500Y-107251500D02*
G01*
X178752500Y-106680000D01*
X179387500Y-106108500D01*
X179387500Y-107251500D01*
G37*
X179959000Y-105029000D02*
X179578000Y-104648000D01*
X179959000Y-104648000D01*
X179959000Y-105029000D01*
G36*
X179959000Y-105029000D02*
G01*
X179578000Y-104648000D01*
X179959000Y-104648000D01*
X179959000Y-105029000D01*
G37*
%TO.C,LED5*%
X179963678Y-92435000D02*
X179963678Y-95525000D01*
X181634678Y-92773500D02*
X182460178Y-91948000D01*
X182206178Y-93408500D02*
X182206178Y-94551500D01*
X182587178Y-92773500D02*
X183412678Y-91948000D01*
X179963678Y-92435170D02*
G75*
G02*
X185513678Y-93980462I2560000J-1544830D01*
G01*
X185513678Y-93979538D02*
G75*
G02*
X179963678Y-95524830I-2990000J-462D01*
G01*
X185023678Y-93980000D02*
G75*
G02*
X180023678Y-93980000I-2500000J0D01*
G01*
X180023678Y-93980000D02*
G75*
G02*
X185023678Y-93980000I2500000J0D01*
G01*
X182460178Y-92329000D02*
X182079178Y-91948000D01*
X182460178Y-91948000D01*
X182460178Y-92329000D01*
G36*
X182460178Y-92329000D02*
G01*
X182079178Y-91948000D01*
X182460178Y-91948000D01*
X182460178Y-92329000D01*
G37*
X182841178Y-94551500D02*
X182206178Y-93980000D01*
X182841178Y-93408500D01*
X182841178Y-94551500D01*
G36*
X182841178Y-94551500D02*
G01*
X182206178Y-93980000D01*
X182841178Y-93408500D01*
X182841178Y-94551500D01*
G37*
X183412678Y-92329000D02*
X183031678Y-91948000D01*
X183412678Y-91948000D01*
X183412678Y-92329000D01*
G36*
X183412678Y-92329000D02*
G01*
X183031678Y-91948000D01*
X183412678Y-91948000D01*
X183412678Y-92329000D01*
G37*
%TO.C,LED8*%
X169910000Y-73856513D02*
X173000000Y-73856513D01*
X170248500Y-71233013D02*
X169423000Y-70407513D01*
X170248500Y-72185513D02*
X169423000Y-71360013D01*
X170883500Y-71614013D02*
X172026500Y-71614013D01*
X169910170Y-73856513D02*
G75*
G02*
X171455462Y-68306513I1544830J2560000D01*
G01*
X171454538Y-68306513D02*
G75*
G02*
X172999830Y-73856513I462J-2990000D01*
G01*
X173955000Y-71296513D02*
G75*
G02*
X168955000Y-71296513I-2500000J0D01*
G01*
X168955000Y-71296513D02*
G75*
G02*
X173955000Y-71296513I2500000J0D01*
G01*
X169423000Y-70788513D02*
X169423000Y-70407513D01*
X169804000Y-70407513D01*
X169423000Y-70788513D01*
G36*
X169423000Y-70788513D02*
G01*
X169423000Y-70407513D01*
X169804000Y-70407513D01*
X169423000Y-70788513D01*
G37*
X169423000Y-71741013D02*
X169423000Y-71360013D01*
X169804000Y-71360013D01*
X169423000Y-71741013D01*
G36*
X169423000Y-71741013D02*
G01*
X169423000Y-71360013D01*
X169804000Y-71360013D01*
X169423000Y-71741013D01*
G37*
X171455000Y-71614013D02*
X170883500Y-70979013D01*
X172026500Y-70979013D01*
X171455000Y-71614013D01*
G36*
X171455000Y-71614013D02*
G01*
X170883500Y-70979013D01*
X172026500Y-70979013D01*
X171455000Y-71614013D01*
G37*
%TO.C,R8*%
X139762895Y-114491391D02*
X144223165Y-119274444D01*
X140239711Y-112993911D02*
X140764850Y-113557053D01*
X141766805Y-112622715D02*
X139762895Y-114491391D01*
X144223165Y-119274444D02*
X146227073Y-117405768D01*
X145750258Y-118903250D02*
X145225119Y-118340108D01*
X146227073Y-117405768D02*
X141766805Y-112622715D01*
%TO.C,LED11*%
X123788862Y-82249389D02*
X122963362Y-83074889D01*
X124169862Y-81614389D02*
X124169862Y-80471389D01*
X124741362Y-82249389D02*
X123915862Y-83074889D01*
X126412362Y-82587889D02*
X126412362Y-79497889D01*
X120862362Y-81043351D02*
G75*
G02*
X126412362Y-79498059I2990000J462D01*
G01*
X126412362Y-82587719D02*
G75*
G02*
X120862362Y-81042427I-2560000J1544830D01*
G01*
X126352362Y-81042889D02*
G75*
G02*
X121352362Y-81042889I-2500000J0D01*
G01*
X121352362Y-81042889D02*
G75*
G02*
X126352362Y-81042889I2500000J0D01*
G01*
X123344362Y-83074889D02*
X122963362Y-83074889D01*
X122963362Y-82693889D01*
X123344362Y-83074889D01*
G36*
X123344362Y-83074889D02*
G01*
X122963362Y-83074889D01*
X122963362Y-82693889D01*
X123344362Y-83074889D01*
G37*
X124169862Y-81042889D02*
X123534862Y-81614389D01*
X123534862Y-80471389D01*
X124169862Y-81042889D01*
G36*
X124169862Y-81042889D02*
G01*
X123534862Y-81614389D01*
X123534862Y-80471389D01*
X124169862Y-81042889D01*
G37*
X124296862Y-83074889D02*
X123915862Y-83074889D01*
X123915862Y-82693889D01*
X124296862Y-83074889D01*
G36*
X124296862Y-83074889D02*
G01*
X123915862Y-83074889D01*
X123915862Y-82693889D01*
X124296862Y-83074889D01*
G37*
%TO.C,LED7*%
X158007802Y-79675743D02*
X161097802Y-79675743D01*
X158346302Y-77052243D02*
X157520802Y-76226743D01*
X158346302Y-78004743D02*
X157520802Y-77179243D01*
X158981302Y-77433243D02*
X160124302Y-77433243D01*
X158007972Y-79675743D02*
G75*
G02*
X159553264Y-74125743I1544830J2560000D01*
G01*
X159552340Y-74125743D02*
G75*
G02*
X161097632Y-79675743I462J-2990000D01*
G01*
X162052802Y-77115743D02*
G75*
G02*
X157052802Y-77115743I-2500000J0D01*
G01*
X157052802Y-77115743D02*
G75*
G02*
X162052802Y-77115743I2500000J0D01*
G01*
X157520802Y-76607743D02*
X157520802Y-76226743D01*
X157901802Y-76226743D01*
X157520802Y-76607743D01*
G36*
X157520802Y-76607743D02*
G01*
X157520802Y-76226743D01*
X157901802Y-76226743D01*
X157520802Y-76607743D01*
G37*
X157520802Y-77560243D02*
X157520802Y-77179243D01*
X157901802Y-77179243D01*
X157520802Y-77560243D01*
G36*
X157520802Y-77560243D02*
G01*
X157520802Y-77179243D01*
X157901802Y-77179243D01*
X157520802Y-77560243D01*
G37*
X159552802Y-77433243D02*
X158981302Y-76798243D01*
X160124302Y-76798243D01*
X159552802Y-77433243D01*
G36*
X159552802Y-77433243D02*
G01*
X158981302Y-76798243D01*
X160124302Y-76798243D01*
X159552802Y-77433243D01*
G37*
%TO.C,R5*%
X141439495Y-82160925D02*
X145815609Y-87021092D01*
X141942373Y-80671994D02*
X142457603Y-81244215D01*
X143475713Y-80327507D02*
X141439495Y-82160925D01*
X145815609Y-87021092D02*
X147851826Y-85187674D01*
X147348948Y-86676604D02*
X146833718Y-86104383D01*
X147851826Y-85187674D02*
X143475713Y-80327507D01*
%TO.C,LED14*%
X123126500Y-95186500D02*
X122301000Y-96012000D01*
X123507500Y-94551500D02*
X123507500Y-93408500D01*
X124079000Y-95186500D02*
X123253500Y-96012000D01*
X125750000Y-95525000D02*
X125750000Y-92435000D01*
X120200000Y-93980462D02*
G75*
G02*
X125750000Y-92435170I2990000J462D01*
G01*
X125750000Y-95524830D02*
G75*
G02*
X120200000Y-93979538I-2560000J1544830D01*
G01*
X125690000Y-93980000D02*
G75*
G02*
X120690000Y-93980000I-2500000J0D01*
G01*
X120690000Y-93980000D02*
G75*
G02*
X125690000Y-93980000I2500000J0D01*
G01*
X122682000Y-96012000D02*
X122301000Y-96012000D01*
X122301000Y-95631000D01*
X122682000Y-96012000D01*
G36*
X122682000Y-96012000D02*
G01*
X122301000Y-96012000D01*
X122301000Y-95631000D01*
X122682000Y-96012000D01*
G37*
X123507500Y-93980000D02*
X122872500Y-94551500D01*
X122872500Y-93408500D01*
X123507500Y-93980000D01*
G36*
X123507500Y-93980000D02*
G01*
X122872500Y-94551500D01*
X122872500Y-93408500D01*
X123507500Y-93980000D01*
G37*
X123634500Y-96012000D02*
X123253500Y-96012000D01*
X123253500Y-95631000D01*
X123634500Y-96012000D01*
G36*
X123634500Y-96012000D02*
G01*
X123253500Y-96012000D01*
X123253500Y-95631000D01*
X123634500Y-96012000D01*
G37*
%TO.C,R4*%
X163565542Y-80050463D02*
X165137141Y-82294942D01*
X163720593Y-81614354D02*
X164351340Y-81172703D01*
X165137141Y-82294942D02*
X170494396Y-78543751D01*
X168922797Y-76299273D02*
X163565542Y-80050463D01*
X170339343Y-76979857D02*
X169708595Y-77421512D01*
X170494396Y-78543751D02*
X168922797Y-76299273D01*
%TO.C,LED10*%
X144805834Y-75565743D02*
X144805834Y-78655743D01*
X146476834Y-75904243D02*
X147302334Y-75078743D01*
X147048334Y-76539243D02*
X147048334Y-77682243D01*
X147429334Y-75904243D02*
X148254834Y-75078743D01*
X144805834Y-75565913D02*
G75*
G02*
X150355834Y-77111205I2560000J-1544830D01*
G01*
X150355834Y-77110281D02*
G75*
G02*
X144805834Y-78655573I-2990000J-462D01*
G01*
X149865834Y-77110743D02*
G75*
G02*
X144865834Y-77110743I-2500000J0D01*
G01*
X144865834Y-77110743D02*
G75*
G02*
X149865834Y-77110743I2500000J0D01*
G01*
X147302334Y-75459743D02*
X146921334Y-75078743D01*
X147302334Y-75078743D01*
X147302334Y-75459743D01*
G36*
X147302334Y-75459743D02*
G01*
X146921334Y-75078743D01*
X147302334Y-75078743D01*
X147302334Y-75459743D01*
G37*
X147683334Y-77682243D02*
X147048334Y-77110743D01*
X147683334Y-76539243D01*
X147683334Y-77682243D01*
G36*
X147683334Y-77682243D02*
G01*
X147048334Y-77110743D01*
X147683334Y-76539243D01*
X147683334Y-77682243D01*
G37*
X148254834Y-75459743D02*
X147873834Y-75078743D01*
X148254834Y-75078743D01*
X148254834Y-75459743D01*
G36*
X148254834Y-75459743D02*
G01*
X147873834Y-75078743D01*
X148254834Y-75078743D01*
X148254834Y-75459743D01*
G37*
%TO.C,LED2*%
X161270000Y-123273344D02*
X161270000Y-126363344D01*
X162941000Y-123611844D02*
X163766500Y-122786344D01*
X163512500Y-124246844D02*
X163512500Y-125389844D01*
X163893500Y-123611844D02*
X164719000Y-122786344D01*
X161270000Y-123273514D02*
G75*
G02*
X166820000Y-124818806I2560000J-1544830D01*
G01*
X166820000Y-124817882D02*
G75*
G02*
X161270000Y-126363174I-2990000J-462D01*
G01*
X166330000Y-124818344D02*
G75*
G02*
X161330000Y-124818344I-2500000J0D01*
G01*
X161330000Y-124818344D02*
G75*
G02*
X166330000Y-124818344I2500000J0D01*
G01*
X163766500Y-123167344D02*
X163385500Y-122786344D01*
X163766500Y-122786344D01*
X163766500Y-123167344D01*
G36*
X163766500Y-123167344D02*
G01*
X163385500Y-122786344D01*
X163766500Y-122786344D01*
X163766500Y-123167344D01*
G37*
X164147500Y-125389844D02*
X163512500Y-124818344D01*
X164147500Y-124246844D01*
X164147500Y-125389844D01*
G36*
X164147500Y-125389844D02*
G01*
X163512500Y-124818344D01*
X164147500Y-124246844D01*
X164147500Y-125389844D01*
G37*
X164719000Y-123167344D02*
X164338000Y-122786344D01*
X164719000Y-122786344D01*
X164719000Y-123167344D01*
G36*
X164719000Y-123167344D02*
G01*
X164338000Y-122786344D01*
X164719000Y-122786344D01*
X164719000Y-123167344D01*
G37*
%TO.C,R3*%
X175640490Y-88025114D02*
X175640490Y-94565114D01*
X175640490Y-94565114D02*
X178380490Y-94565114D01*
X177010490Y-87255114D02*
X177010490Y-88025114D01*
X177010490Y-95335114D02*
X177010490Y-94565114D01*
X178380490Y-88025114D02*
X175640490Y-88025114D01*
X178380490Y-94565114D02*
X178380490Y-88025114D01*
%TO.C,R1*%
X149947866Y-123179642D02*
X150717866Y-123179642D01*
X150717866Y-121809642D02*
X150717866Y-124549642D01*
X150717866Y-124549642D02*
X157257866Y-124549642D01*
X157257866Y-121809642D02*
X150717866Y-121809642D01*
X157257866Y-124549642D02*
X157257866Y-121809642D01*
X158027866Y-123179642D02*
X157257866Y-123179642D01*
%TO.C,LED13*%
X124680999Y-105135000D02*
X124680999Y-108225000D01*
X126351999Y-105473500D02*
X127177499Y-104648000D01*
X126923499Y-106108500D02*
X126923499Y-107251500D01*
X127304499Y-105473500D02*
X128129999Y-104648000D01*
X124680999Y-105135170D02*
G75*
G02*
X130230999Y-106680462I2560000J-1544830D01*
G01*
X130230999Y-106679538D02*
G75*
G02*
X124680999Y-108224830I-2990000J-462D01*
G01*
X129740999Y-106680000D02*
G75*
G02*
X124740999Y-106680000I-2500000J0D01*
G01*
X124740999Y-106680000D02*
G75*
G02*
X129740999Y-106680000I2500000J0D01*
G01*
X127177499Y-105029000D02*
X126796499Y-104648000D01*
X127177499Y-104648000D01*
X127177499Y-105029000D01*
G36*
X127177499Y-105029000D02*
G01*
X126796499Y-104648000D01*
X127177499Y-104648000D01*
X127177499Y-105029000D01*
G37*
X127558499Y-107251500D02*
X126923499Y-106680000D01*
X127558499Y-106108500D01*
X127558499Y-107251500D01*
G36*
X127558499Y-107251500D02*
G01*
X126923499Y-106680000D01*
X127558499Y-106108500D01*
X127558499Y-107251500D01*
G37*
X128129999Y-105029000D02*
X127748999Y-104648000D01*
X128129999Y-104648000D01*
X128129999Y-105029000D01*
G36*
X128129999Y-105029000D02*
G01*
X127748999Y-104648000D01*
X128129999Y-104648000D01*
X128129999Y-105029000D01*
G37*
%TO.C,LED6*%
X179533422Y-79497889D02*
X179533422Y-82587889D01*
X181204422Y-79836389D02*
X182029922Y-79010889D01*
X181775922Y-80471389D02*
X181775922Y-81614389D01*
X182156922Y-79836389D02*
X182982422Y-79010889D01*
X179533422Y-79498059D02*
G75*
G02*
X185083422Y-81043351I2560000J-1544830D01*
G01*
X185083422Y-81042427D02*
G75*
G02*
X179533422Y-82587719I-2990000J-462D01*
G01*
X184593422Y-81042889D02*
G75*
G02*
X179593422Y-81042889I-2500000J0D01*
G01*
X179593422Y-81042889D02*
G75*
G02*
X184593422Y-81042889I2500000J0D01*
G01*
X182029922Y-79391889D02*
X181648922Y-79010889D01*
X182029922Y-79010889D01*
X182029922Y-79391889D01*
G36*
X182029922Y-79391889D02*
G01*
X181648922Y-79010889D01*
X182029922Y-79010889D01*
X182029922Y-79391889D01*
G37*
X182410922Y-81614389D02*
X181775922Y-81042889D01*
X182410922Y-80471389D01*
X182410922Y-81614389D01*
G36*
X182410922Y-81614389D02*
G01*
X181775922Y-81042889D01*
X182410922Y-80471389D01*
X182410922Y-81614389D01*
G37*
X182982422Y-79391889D02*
X182601422Y-79010889D01*
X182982422Y-79010889D01*
X182982422Y-79391889D01*
G36*
X182982422Y-79391889D02*
G01*
X182601422Y-79010889D01*
X182982422Y-79010889D01*
X182982422Y-79391889D01*
G37*
%TO.C,LED1*%
X151546485Y-134512840D02*
X154636485Y-134512840D01*
X151884985Y-131889340D02*
X151059485Y-131063840D01*
X151884985Y-132841840D02*
X151059485Y-132016340D01*
X152519985Y-132270340D02*
X153662985Y-132270340D01*
X151546655Y-134512840D02*
G75*
G02*
X153091947Y-128962840I1544830J2560000D01*
G01*
X153091023Y-128962840D02*
G75*
G02*
X154636315Y-134512840I462J-2990000D01*
G01*
X155591485Y-131952840D02*
G75*
G02*
X150591485Y-131952840I-2500000J0D01*
G01*
X150591485Y-131952840D02*
G75*
G02*
X155591485Y-131952840I2500000J0D01*
G01*
X151059485Y-131444840D02*
X151059485Y-131063840D01*
X151440485Y-131063840D01*
X151059485Y-131444840D01*
G36*
X151059485Y-131444840D02*
G01*
X151059485Y-131063840D01*
X151440485Y-131063840D01*
X151059485Y-131444840D01*
G37*
X151059485Y-132397340D02*
X151059485Y-132016340D01*
X151440485Y-132016340D01*
X151059485Y-132397340D01*
G36*
X151059485Y-132397340D02*
G01*
X151059485Y-132016340D01*
X151440485Y-132016340D01*
X151059485Y-132397340D01*
G37*
X153091485Y-132270340D02*
X152519985Y-131635340D01*
X153662985Y-131635340D01*
X153091485Y-132270340D01*
G36*
X153091485Y-132270340D02*
G01*
X152519985Y-131635340D01*
X153662985Y-131635340D01*
X153091485Y-132270340D01*
G37*
%TD*%
M02*
