%TF.GenerationSoftware,KiCad,Pcbnew,8.0.8*%
%TF.CreationDate,2025-02-16T11:43:37+02:00*%
%TF.ProjectId,Solder practice heart,536f6c64-6572-4207-9072-616374696365,rev?*%
%TF.SameCoordinates,Original*%
%TF.FileFunction,Copper,L2,Bot*%
%TF.FilePolarity,Positive*%
%FSLAX46Y46*%
G04 Gerber Fmt 4.6, Leading zero omitted, Abs format (unit mm)*
G04 Created by KiCad (PCBNEW 8.0.8) date 2025-02-16 11:43:37*
%MOMM*%
%LPD*%
G01*
G04 APERTURE LIST*
G04 Aperture macros list*
%AMHorizOval*
0 Thick line with rounded ends*
0 $1 width*
0 $2 $3 position (X,Y) of the first rounded end (center of the circle)*
0 $4 $5 position (X,Y) of the second rounded end (center of the circle)*
0 Add line between two ends*
20,1,$1,$2,$3,$4,$5,0*
0 Add two circle primitives to create the rounded ends*
1,1,$1,$2,$3*
1,1,$1,$4,$5*%
G04 Aperture macros list end*
%TA.AperFunction,ComponentPad*%
%ADD10C,1.600000*%
%TD*%
%TA.AperFunction,ComponentPad*%
%ADD11HorizOval,1.600000X0.000000X0.000000X0.000000X0.000000X0*%
%TD*%
%TA.AperFunction,ComponentPad*%
%ADD12R,1.800000X1.400000*%
%TD*%
%TA.AperFunction,ComponentPad*%
%ADD13O,1.800000X1.400000*%
%TD*%
%TA.AperFunction,ComponentPad*%
%ADD14R,1.400000X1.800000*%
%TD*%
%TA.AperFunction,ComponentPad*%
%ADD15O,1.400000X1.800000*%
%TD*%
%TA.AperFunction,ComponentPad*%
%ADD16HorizOval,1.600000X0.000000X0.000000X0.000000X0.000000X0*%
%TD*%
%TA.AperFunction,ComponentPad*%
%ADD17HorizOval,1.600000X0.000000X0.000000X0.000000X0.000000X0*%
%TD*%
%TA.AperFunction,ComponentPad*%
%ADD18HorizOval,1.600000X0.000000X0.000000X0.000000X0.000000X0*%
%TD*%
%TA.AperFunction,ComponentPad*%
%ADD19HorizOval,1.600000X0.000000X0.000000X0.000000X0.000000X0*%
%TD*%
%TA.AperFunction,ComponentPad*%
%ADD20HorizOval,1.600000X0.000000X0.000000X0.000000X0.000000X0*%
%TD*%
%TA.AperFunction,ComponentPad*%
%ADD21O,1.600000X1.600000*%
%TD*%
%TA.AperFunction,ComponentPad*%
%ADD22C,2.500000*%
%TD*%
%TA.AperFunction,Conductor*%
%ADD23C,0.800000*%
%TD*%
G04 APERTURE END LIST*
D10*
%TO.P,R6,1*%
%TO.N,GND*%
X129729252Y-84506013D03*
D11*
%TO.P,R6,2*%
%TO.N,Net-(LED12-K)*%
X136259973Y-76723001D03*
%TD*%
D12*
%TO.P,LED16,1,K*%
%TO.N,Net-(LED16-K)*%
X143064986Y-123543344D03*
D13*
%TO.P,LED16,2,A*%
%TO.N,Net-(LED15-K)*%
X143064986Y-126083344D03*
%TD*%
D14*
%TO.P,LED12,1,K*%
%TO.N,Net-(LED12-K)*%
X135895000Y-71291513D03*
D15*
%TO.P,LED12,2,A*%
%TO.N,Net-(LED11-K)*%
X133355000Y-71291513D03*
%TD*%
D10*
%TO.P,R2,1*%
%TO.N,GND*%
X160028471Y-119576472D03*
D16*
%TO.P,R2,2*%
%TO.N,Net-(LED4-K)*%
X166826839Y-112026119D03*
%TD*%
D10*
%TO.P,R7,1*%
%TO.N,GND*%
X132528123Y-103728818D03*
D17*
%TO.P,R7,2*%
%TO.N,Net-(LED14-K)*%
X128395678Y-94447197D03*
%TD*%
D14*
%TO.P,LED15,1,K*%
%TO.N,Net-(LED15-K)*%
X132602772Y-116840000D03*
D15*
%TO.P,LED15,2,A*%
%TO.N,VCC*%
X135142772Y-116840000D03*
%TD*%
D14*
%TO.P,LED4,1,K*%
%TO.N,Net-(LED4-K)*%
X170180000Y-116840000D03*
D15*
%TO.P,LED4,2,A*%
%TO.N,Net-(LED3-K)*%
X172720000Y-116840000D03*
%TD*%
D14*
%TO.P,LED9,1,K*%
%TO.N,Net-(LED10-A)*%
X151818716Y-87946696D03*
D15*
%TO.P,LED9,2,A*%
%TO.N,VCC*%
X154358716Y-87946696D03*
%TD*%
D14*
%TO.P,LED3,1,K*%
%TO.N,Net-(LED3-K)*%
X177800000Y-106680000D03*
D15*
%TO.P,LED3,2,A*%
%TO.N,VCC*%
X180340000Y-106680000D03*
%TD*%
D14*
%TO.P,LED5,1,K*%
%TO.N,Net-(LED5-K)*%
X181253678Y-93980000D03*
D15*
%TO.P,LED5,2,A*%
%TO.N,VCC*%
X183793678Y-93980000D03*
%TD*%
D12*
%TO.P,LED8,1,K*%
%TO.N,Net-(LED8-K)*%
X171455000Y-72566513D03*
D13*
%TO.P,LED8,2,A*%
%TO.N,Net-(LED7-K)*%
X171455000Y-70026513D03*
%TD*%
D10*
%TO.P,R8,1*%
%TO.N,GND*%
X139530433Y-112233303D03*
D18*
%TO.P,R8,2*%
%TO.N,Net-(LED16-K)*%
X146459536Y-119663857D03*
%TD*%
D14*
%TO.P,LED11,1,K*%
%TO.N,Net-(LED11-K)*%
X125122362Y-81042889D03*
D15*
%TO.P,LED11,2,A*%
%TO.N,VCC*%
X122582362Y-81042889D03*
%TD*%
D12*
%TO.P,LED7,1,K*%
%TO.N,Net-(LED7-K)*%
X159552802Y-78385743D03*
D13*
%TO.P,LED7,2,A*%
%TO.N,VCC*%
X159552802Y-75845743D03*
%TD*%
D10*
%TO.P,R5,1*%
%TO.N,GND*%
X148044844Y-87449475D03*
D19*
%TO.P,R5,2*%
%TO.N,Net-(LED10-K)*%
X141246477Y-79899124D03*
%TD*%
D14*
%TO.P,LED14,1,K*%
%TO.N,Net-(LED14-K)*%
X124460000Y-93980000D03*
D15*
%TO.P,LED14,2,A*%
%TO.N,Net-(LED13-K)*%
X121920000Y-93980000D03*
%TD*%
D10*
%TO.P,R4,1*%
%TO.N,GND*%
X162868676Y-82210875D03*
D20*
%TO.P,R4,2*%
%TO.N,Net-(LED8-K)*%
X171191261Y-76383339D03*
%TD*%
D14*
%TO.P,LED10,1,K*%
%TO.N,Net-(LED10-K)*%
X146095834Y-77110743D03*
D15*
%TO.P,LED10,2,A*%
%TO.N,Net-(LED10-A)*%
X148635834Y-77110743D03*
%TD*%
D14*
%TO.P,LED2,1,K*%
%TO.N,Net-(LED2-K)*%
X162560000Y-124818344D03*
D15*
%TO.P,LED2,2,A*%
%TO.N,Net-(LED1-K)*%
X165100000Y-124818344D03*
%TD*%
D10*
%TO.P,R3,1*%
%TO.N,GND*%
X177010490Y-96375114D03*
D21*
%TO.P,R3,2*%
%TO.N,Net-(LED6-K)*%
X177010490Y-86215114D03*
%TD*%
D10*
%TO.P,R1,1*%
%TO.N,GND*%
X148907866Y-123179642D03*
D21*
%TO.P,R1,2*%
%TO.N,Net-(LED2-K)*%
X159067866Y-123179642D03*
%TD*%
D14*
%TO.P,LED13,1,K*%
%TO.N,Net-(LED13-K)*%
X125970999Y-106680000D03*
D15*
%TO.P,LED13,2,A*%
%TO.N,VCC*%
X128510999Y-106680000D03*
%TD*%
D14*
%TO.P,LED6,1,K*%
%TO.N,Net-(LED6-K)*%
X180823422Y-81042889D03*
D15*
%TO.P,LED6,2,A*%
%TO.N,Net-(LED5-K)*%
X183363422Y-81042889D03*
%TD*%
D12*
%TO.P,LED1,1,K*%
%TO.N,Net-(LED1-K)*%
X153091485Y-133222840D03*
D13*
%TO.P,LED1,2,A*%
%TO.N,VCC*%
X153091485Y-130682840D03*
%TD*%
D22*
%TO.P,BAT1,1,1*%
%TO.N,VCC*%
X116600000Y-138430000D03*
%TO.P,BAT1,2,2*%
%TO.N,Net-(BAT1-Pad2)*%
X137400000Y-138430000D03*
%TD*%
%TO.P,BAT2,1,1*%
%TO.N,Net-(BAT1-Pad2)*%
X166130000Y-138430000D03*
%TO.P,BAT2,2,2*%
%TO.N,GND*%
X186930000Y-138430000D03*
%TD*%
D23*
%TO.N,Net-(BAT1-Pad2)*%
X137400000Y-138430000D02*
X166130000Y-138430000D01*
%TD*%
%TA.AperFunction,Conductor*%
%TO.N,GND*%
G36*
X189312702Y-51300617D02*
G01*
X189696771Y-51317386D01*
X189707506Y-51318326D01*
X190085971Y-51368152D01*
X190096597Y-51370025D01*
X190469284Y-51452648D01*
X190479710Y-51455442D01*
X190843765Y-51570227D01*
X190853911Y-51573920D01*
X191206578Y-51720000D01*
X191216369Y-51724566D01*
X191554942Y-51900816D01*
X191564310Y-51906224D01*
X191886244Y-52111318D01*
X191895105Y-52117523D01*
X192197930Y-52349889D01*
X192206217Y-52356843D01*
X192487635Y-52614715D01*
X192495284Y-52622364D01*
X192753156Y-52903782D01*
X192760110Y-52912069D01*
X192992476Y-53214894D01*
X192998681Y-53223755D01*
X193203775Y-53545689D01*
X193209183Y-53555057D01*
X193385430Y-53893623D01*
X193390002Y-53903427D01*
X193536075Y-54256078D01*
X193539775Y-54266244D01*
X193654554Y-54630278D01*
X193657354Y-54640727D01*
X193739971Y-55013389D01*
X193741849Y-55024042D01*
X193791671Y-55402473D01*
X193792614Y-55413249D01*
X193809382Y-55797297D01*
X193809500Y-55802706D01*
X193809500Y-147397293D01*
X193809382Y-147402702D01*
X193792614Y-147786750D01*
X193791671Y-147797526D01*
X193741849Y-148175957D01*
X193739971Y-148186610D01*
X193657354Y-148559272D01*
X193654554Y-148569721D01*
X193539775Y-148933755D01*
X193536075Y-148943921D01*
X193390002Y-149296572D01*
X193385430Y-149306376D01*
X193209183Y-149644942D01*
X193203775Y-149654310D01*
X192998681Y-149976244D01*
X192992476Y-149985105D01*
X192760110Y-150287930D01*
X192753156Y-150296217D01*
X192495284Y-150577635D01*
X192487635Y-150585284D01*
X192206217Y-150843156D01*
X192197930Y-150850110D01*
X191895105Y-151082476D01*
X191886244Y-151088681D01*
X191564310Y-151293775D01*
X191554942Y-151299183D01*
X191216376Y-151475430D01*
X191206572Y-151480002D01*
X190853921Y-151626075D01*
X190843755Y-151629775D01*
X190479721Y-151744554D01*
X190469272Y-151747354D01*
X190096610Y-151829971D01*
X190085957Y-151831849D01*
X189707526Y-151881671D01*
X189696750Y-151882614D01*
X189312703Y-151899382D01*
X189307294Y-151899500D01*
X115492706Y-151899500D01*
X115487297Y-151899382D01*
X115103249Y-151882614D01*
X115092473Y-151881671D01*
X114714042Y-151831849D01*
X114703389Y-151829971D01*
X114330727Y-151747354D01*
X114320278Y-151744554D01*
X113956244Y-151629775D01*
X113946078Y-151626075D01*
X113593427Y-151480002D01*
X113583623Y-151475430D01*
X113245057Y-151299183D01*
X113235689Y-151293775D01*
X112913755Y-151088681D01*
X112904894Y-151082476D01*
X112602069Y-150850110D01*
X112593782Y-150843156D01*
X112312364Y-150585284D01*
X112304715Y-150577635D01*
X112046843Y-150296217D01*
X112039889Y-150287930D01*
X111807523Y-149985105D01*
X111801318Y-149976244D01*
X111596224Y-149654310D01*
X111590816Y-149644942D01*
X111414569Y-149306376D01*
X111409997Y-149296572D01*
X111263924Y-148943921D01*
X111260224Y-148933755D01*
X111145442Y-148569710D01*
X111142648Y-148559284D01*
X111060025Y-148186597D01*
X111058152Y-148175971D01*
X111008326Y-147797506D01*
X111007386Y-147786771D01*
X110990618Y-147402702D01*
X110990500Y-147397293D01*
X110990500Y-138429995D01*
X114844592Y-138429995D01*
X114844592Y-138430004D01*
X114864196Y-138691620D01*
X114864197Y-138691625D01*
X114922576Y-138947402D01*
X114922578Y-138947411D01*
X114922580Y-138947416D01*
X115018432Y-139191643D01*
X115149614Y-139418857D01*
X115281736Y-139584533D01*
X115313198Y-139623985D01*
X115494753Y-139792441D01*
X115505521Y-139802433D01*
X115722296Y-139950228D01*
X115722301Y-139950230D01*
X115722302Y-139950231D01*
X115722303Y-139950232D01*
X115847843Y-140010688D01*
X115958673Y-140064061D01*
X115958674Y-140064061D01*
X115958677Y-140064063D01*
X116209385Y-140141396D01*
X116468818Y-140180500D01*
X116731182Y-140180500D01*
X116990615Y-140141396D01*
X117241323Y-140064063D01*
X117477704Y-139950228D01*
X117694479Y-139802433D01*
X117886805Y-139623981D01*
X118050386Y-139418857D01*
X118181568Y-139191643D01*
X118277420Y-138947416D01*
X118335802Y-138691630D01*
X118335808Y-138691550D01*
X118355408Y-138430004D01*
X118355408Y-138429995D01*
X135644592Y-138429995D01*
X135644592Y-138430004D01*
X135664196Y-138691620D01*
X135664197Y-138691625D01*
X135722576Y-138947402D01*
X135722578Y-138947411D01*
X135722580Y-138947416D01*
X135818432Y-139191643D01*
X135949614Y-139418857D01*
X136081736Y-139584533D01*
X136113198Y-139623985D01*
X136294753Y-139792441D01*
X136305521Y-139802433D01*
X136522296Y-139950228D01*
X136522301Y-139950230D01*
X136522302Y-139950231D01*
X136522303Y-139950232D01*
X136647843Y-140010688D01*
X136758673Y-140064061D01*
X136758674Y-140064061D01*
X136758677Y-140064063D01*
X137009385Y-140141396D01*
X137268818Y-140180500D01*
X137531182Y-140180500D01*
X137790615Y-140141396D01*
X138041323Y-140064063D01*
X138277704Y-139950228D01*
X138494479Y-139802433D01*
X138686805Y-139623981D01*
X138850386Y-139418857D01*
X138865603Y-139392499D01*
X138916170Y-139344284D01*
X138972990Y-139330500D01*
X164557010Y-139330500D01*
X164624049Y-139350185D01*
X164664396Y-139392499D01*
X164679614Y-139418857D01*
X164811736Y-139584533D01*
X164843198Y-139623985D01*
X165024753Y-139792441D01*
X165035521Y-139802433D01*
X165252296Y-139950228D01*
X165252301Y-139950230D01*
X165252302Y-139950231D01*
X165252303Y-139950232D01*
X165377843Y-140010688D01*
X165488673Y-140064061D01*
X165488674Y-140064061D01*
X165488677Y-140064063D01*
X165739385Y-140141396D01*
X165998818Y-140180500D01*
X166261182Y-140180500D01*
X166520615Y-140141396D01*
X166771323Y-140064063D01*
X167007704Y-139950228D01*
X167224479Y-139802433D01*
X167416805Y-139623981D01*
X167580386Y-139418857D01*
X167711568Y-139191643D01*
X167807420Y-138947416D01*
X167865802Y-138691630D01*
X167865808Y-138691550D01*
X167885408Y-138430004D01*
X167885408Y-138429995D01*
X185175093Y-138429995D01*
X185175093Y-138430004D01*
X185194692Y-138691545D01*
X185194693Y-138691550D01*
X185253058Y-138947270D01*
X185348883Y-139191426D01*
X185348882Y-139191426D01*
X185480029Y-139418576D01*
X185527873Y-139478572D01*
X186252421Y-138754024D01*
X186265359Y-138785258D01*
X186347437Y-138908097D01*
X186451903Y-139012563D01*
X186574742Y-139094641D01*
X186605974Y-139107577D01*
X185880830Y-139832720D01*
X186052546Y-139949793D01*
X186052550Y-139949795D01*
X186288854Y-140063594D01*
X186288858Y-140063595D01*
X186539494Y-140140907D01*
X186539500Y-140140909D01*
X186798848Y-140179999D01*
X186798857Y-140180000D01*
X187061143Y-140180000D01*
X187061151Y-140179999D01*
X187320499Y-140140909D01*
X187320505Y-140140907D01*
X187571143Y-140063595D01*
X187807445Y-139949798D01*
X187807447Y-139949797D01*
X187979168Y-139832720D01*
X187254025Y-139107578D01*
X187285258Y-139094641D01*
X187408097Y-139012563D01*
X187512563Y-138908097D01*
X187594641Y-138785258D01*
X187607578Y-138754025D01*
X188332125Y-139478572D01*
X188379971Y-139418573D01*
X188511116Y-139191426D01*
X188606941Y-138947270D01*
X188665306Y-138691550D01*
X188665307Y-138691545D01*
X188684907Y-138430004D01*
X188684907Y-138429995D01*
X188665307Y-138168454D01*
X188665306Y-138168449D01*
X188606941Y-137912729D01*
X188511116Y-137668573D01*
X188511117Y-137668573D01*
X188379972Y-137441426D01*
X188332124Y-137381427D01*
X187607577Y-138105973D01*
X187594641Y-138074742D01*
X187512563Y-137951903D01*
X187408097Y-137847437D01*
X187285258Y-137765359D01*
X187254024Y-137752421D01*
X187979168Y-137027278D01*
X187807454Y-136910206D01*
X187807445Y-136910201D01*
X187571142Y-136796404D01*
X187571144Y-136796404D01*
X187320505Y-136719092D01*
X187320499Y-136719090D01*
X187061151Y-136680000D01*
X186798848Y-136680000D01*
X186539500Y-136719090D01*
X186539494Y-136719092D01*
X186288858Y-136796404D01*
X186288854Y-136796405D01*
X186052547Y-136910205D01*
X186052539Y-136910210D01*
X185880830Y-137027277D01*
X186605975Y-137752421D01*
X186574742Y-137765359D01*
X186451903Y-137847437D01*
X186347437Y-137951903D01*
X186265359Y-138074742D01*
X186252421Y-138105974D01*
X185527874Y-137381427D01*
X185480028Y-137441425D01*
X185348883Y-137668573D01*
X185253058Y-137912729D01*
X185194693Y-138168449D01*
X185194692Y-138168454D01*
X185175093Y-138429995D01*
X167885408Y-138429995D01*
X167865803Y-138168379D01*
X167865802Y-138168374D01*
X167865802Y-138168370D01*
X167807420Y-137912584D01*
X167711568Y-137668357D01*
X167580386Y-137441143D01*
X167416805Y-137236019D01*
X167416804Y-137236018D01*
X167416801Y-137236014D01*
X167224479Y-137057567D01*
X167180052Y-137027277D01*
X167007704Y-136909772D01*
X167007700Y-136909770D01*
X167007697Y-136909768D01*
X167007696Y-136909767D01*
X166771325Y-136795938D01*
X166771327Y-136795938D01*
X166520623Y-136718606D01*
X166520619Y-136718605D01*
X166520615Y-136718604D01*
X166395823Y-136699794D01*
X166261187Y-136679500D01*
X166261182Y-136679500D01*
X165998818Y-136679500D01*
X165998812Y-136679500D01*
X165837247Y-136703853D01*
X165739385Y-136718604D01*
X165739382Y-136718605D01*
X165739376Y-136718606D01*
X165488673Y-136795938D01*
X165252303Y-136909767D01*
X165252302Y-136909768D01*
X165252296Y-136909771D01*
X165252296Y-136909772D01*
X165251654Y-136910210D01*
X165035520Y-137057567D01*
X164843198Y-137236014D01*
X164679614Y-137441143D01*
X164664397Y-137467500D01*
X164613830Y-137515716D01*
X164557010Y-137529500D01*
X138972990Y-137529500D01*
X138905951Y-137509815D01*
X138865603Y-137467500D01*
X138850386Y-137441143D01*
X138686805Y-137236019D01*
X138686804Y-137236018D01*
X138686801Y-137236014D01*
X138494479Y-137057567D01*
X138450052Y-137027277D01*
X138277704Y-136909772D01*
X138277700Y-136909770D01*
X138277697Y-136909768D01*
X138277696Y-136909767D01*
X138041325Y-136795938D01*
X138041327Y-136795938D01*
X137790623Y-136718606D01*
X137790619Y-136718605D01*
X137790615Y-136718604D01*
X137665823Y-136699794D01*
X137531187Y-136679500D01*
X137531182Y-136679500D01*
X137268818Y-136679500D01*
X137268812Y-136679500D01*
X137107247Y-136703853D01*
X137009385Y-136718604D01*
X137009382Y-136718605D01*
X137009376Y-136718606D01*
X136758673Y-136795938D01*
X136522303Y-136909767D01*
X136522302Y-136909768D01*
X136522296Y-136909771D01*
X136522296Y-136909772D01*
X136521654Y-136910210D01*
X136305520Y-137057567D01*
X136113198Y-137236014D01*
X135949614Y-137441143D01*
X135818432Y-137668356D01*
X135722582Y-137912578D01*
X135722576Y-137912597D01*
X135664197Y-138168374D01*
X135664196Y-138168379D01*
X135644592Y-138429995D01*
X118355408Y-138429995D01*
X118335803Y-138168379D01*
X118335802Y-138168374D01*
X118335802Y-138168370D01*
X118277420Y-137912584D01*
X118181568Y-137668357D01*
X118050386Y-137441143D01*
X117886805Y-137236019D01*
X117886804Y-137236018D01*
X117886801Y-137236014D01*
X117694479Y-137057567D01*
X117650052Y-137027277D01*
X117477704Y-136909772D01*
X117477700Y-136909770D01*
X117477697Y-136909768D01*
X117477696Y-136909767D01*
X117241325Y-136795938D01*
X117241327Y-136795938D01*
X116990623Y-136718606D01*
X116990619Y-136718605D01*
X116990615Y-136718604D01*
X116865823Y-136699794D01*
X116731187Y-136679500D01*
X116731182Y-136679500D01*
X116468818Y-136679500D01*
X116468812Y-136679500D01*
X116307247Y-136703853D01*
X116209385Y-136718604D01*
X116209382Y-136718605D01*
X116209376Y-136718606D01*
X115958673Y-136795938D01*
X115722303Y-136909767D01*
X115722302Y-136909768D01*
X115722296Y-136909771D01*
X115722296Y-136909772D01*
X115721654Y-136910210D01*
X115505520Y-137057567D01*
X115313198Y-137236014D01*
X115149614Y-137441143D01*
X115018432Y-137668356D01*
X114922582Y-137912578D01*
X114922576Y-137912597D01*
X114864197Y-138168374D01*
X114864196Y-138168379D01*
X114844592Y-138429995D01*
X110990500Y-138429995D01*
X110990500Y-130588353D01*
X151690985Y-130588353D01*
X151690985Y-130777326D01*
X151720544Y-130963958D01*
X151778939Y-131143676D01*
X151864725Y-131312039D01*
X151975795Y-131464913D01*
X152109412Y-131598530D01*
X152224067Y-131681832D01*
X152262287Y-131709601D01*
X152415871Y-131787855D01*
X152466668Y-131835829D01*
X152483463Y-131903650D01*
X152460926Y-131969785D01*
X152406211Y-132013237D01*
X152359578Y-132022340D01*
X152143614Y-132022340D01*
X152143608Y-132022341D01*
X152084001Y-132028748D01*
X151949156Y-132079042D01*
X151949149Y-132079046D01*
X151833940Y-132165292D01*
X151833937Y-132165295D01*
X151747691Y-132280504D01*
X151747687Y-132280511D01*
X151697393Y-132415357D01*
X151690986Y-132474956D01*
X151690986Y-132474963D01*
X151690985Y-132474975D01*
X151690985Y-133970710D01*
X151690986Y-133970716D01*
X151697393Y-134030323D01*
X151747687Y-134165168D01*
X151747691Y-134165175D01*
X151833937Y-134280384D01*
X151833940Y-134280387D01*
X151949149Y-134366633D01*
X151949156Y-134366637D01*
X152084002Y-134416931D01*
X152084001Y-134416931D01*
X152090929Y-134417675D01*
X152143612Y-134423340D01*
X154039357Y-134423339D01*
X154098968Y-134416931D01*
X154233816Y-134366636D01*
X154349031Y-134280386D01*
X154435281Y-134165171D01*
X154485576Y-134030323D01*
X154491985Y-133970713D01*
X154491984Y-132474968D01*
X154485576Y-132415357D01*
X154435281Y-132280509D01*
X154435280Y-132280508D01*
X154435278Y-132280504D01*
X154349032Y-132165295D01*
X154349029Y-132165292D01*
X154233820Y-132079046D01*
X154233813Y-132079042D01*
X154098967Y-132028748D01*
X154098968Y-132028748D01*
X154039368Y-132022341D01*
X154039366Y-132022340D01*
X154039358Y-132022340D01*
X154039350Y-132022340D01*
X153823394Y-132022340D01*
X153756355Y-132002655D01*
X153710600Y-131949851D01*
X153700656Y-131880693D01*
X153729681Y-131817137D01*
X153767099Y-131787855D01*
X153920684Y-131709600D01*
X154073558Y-131598530D01*
X154207175Y-131464913D01*
X154318245Y-131312039D01*
X154404032Y-131143672D01*
X154462425Y-130963958D01*
X154491985Y-130777326D01*
X154491985Y-130588353D01*
X154462425Y-130401721D01*
X154404030Y-130222003D01*
X154318244Y-130053640D01*
X154207175Y-129900767D01*
X154073558Y-129767150D01*
X153920684Y-129656080D01*
X153752321Y-129570294D01*
X153572603Y-129511899D01*
X153385971Y-129482340D01*
X153385966Y-129482340D01*
X152797004Y-129482340D01*
X152796999Y-129482340D01*
X152610366Y-129511899D01*
X152430648Y-129570294D01*
X152262285Y-129656080D01*
X152175064Y-129719450D01*
X152109412Y-129767150D01*
X152109410Y-129767152D01*
X152109409Y-129767152D01*
X151975797Y-129900764D01*
X151975797Y-129900765D01*
X151975795Y-129900767D01*
X151928095Y-129966419D01*
X151864725Y-130053640D01*
X151778939Y-130222003D01*
X151720544Y-130401721D01*
X151690985Y-130588353D01*
X110990500Y-130588353D01*
X110990500Y-122795479D01*
X141664486Y-122795479D01*
X141664486Y-124291214D01*
X141664487Y-124291220D01*
X141670894Y-124350827D01*
X141721188Y-124485672D01*
X141721192Y-124485679D01*
X141807438Y-124600888D01*
X141807441Y-124600891D01*
X141922650Y-124687137D01*
X141922657Y-124687141D01*
X142057503Y-124737435D01*
X142057502Y-124737435D01*
X142064430Y-124738179D01*
X142117113Y-124743844D01*
X142333078Y-124743843D01*
X142400115Y-124763527D01*
X142445870Y-124816331D01*
X142455814Y-124885489D01*
X142426789Y-124949045D01*
X142389371Y-124978327D01*
X142235791Y-125056580D01*
X142158378Y-125112825D01*
X142082913Y-125167654D01*
X142082911Y-125167656D01*
X142082910Y-125167656D01*
X141949298Y-125301268D01*
X141949298Y-125301269D01*
X141949296Y-125301271D01*
X141901596Y-125366923D01*
X141838226Y-125454144D01*
X141752440Y-125622507D01*
X141694045Y-125802225D01*
X141664486Y-125988857D01*
X141664486Y-126177830D01*
X141694045Y-126364462D01*
X141752440Y-126544180D01*
X141838226Y-126712543D01*
X141949296Y-126865417D01*
X142082913Y-126999034D01*
X142235787Y-127110104D01*
X142315333Y-127150634D01*
X142404149Y-127195889D01*
X142404151Y-127195889D01*
X142404154Y-127195891D01*
X142500483Y-127227190D01*
X142583867Y-127254284D01*
X142770500Y-127283844D01*
X142770505Y-127283844D01*
X143359472Y-127283844D01*
X143546104Y-127254284D01*
X143725818Y-127195891D01*
X143894185Y-127110104D01*
X144047059Y-126999034D01*
X144180676Y-126865417D01*
X144291746Y-126712543D01*
X144377533Y-126544176D01*
X144435926Y-126364462D01*
X144465486Y-126177830D01*
X144465486Y-125988857D01*
X144435926Y-125802225D01*
X144377531Y-125622507D01*
X144332276Y-125533691D01*
X144291746Y-125454145D01*
X144180676Y-125301271D01*
X144047059Y-125167654D01*
X143894185Y-125056584D01*
X143740597Y-124978327D01*
X143689802Y-124930354D01*
X143673007Y-124862533D01*
X143695544Y-124796398D01*
X143750259Y-124752946D01*
X143796892Y-124743843D01*
X144012858Y-124743843D01*
X144072469Y-124737435D01*
X144207317Y-124687140D01*
X144322532Y-124600890D01*
X144408782Y-124485675D01*
X144459077Y-124350827D01*
X144465486Y-124291217D01*
X144465485Y-123179639D01*
X147602900Y-123179639D01*
X147602900Y-123179644D01*
X147622724Y-123406241D01*
X147622726Y-123406252D01*
X147681596Y-123625959D01*
X147681601Y-123625973D01*
X147777729Y-123832120D01*
X147828840Y-123905114D01*
X148507866Y-123226088D01*
X148507866Y-123232303D01*
X148535125Y-123334036D01*
X148587786Y-123425248D01*
X148662260Y-123499722D01*
X148753472Y-123552383D01*
X148855205Y-123579642D01*
X148861419Y-123579642D01*
X148182392Y-124258667D01*
X148255379Y-124309774D01*
X148255387Y-124309778D01*
X148461534Y-124405906D01*
X148461548Y-124405911D01*
X148681255Y-124464781D01*
X148681266Y-124464783D01*
X148907864Y-124484608D01*
X148907868Y-124484608D01*
X149134465Y-124464783D01*
X149134476Y-124464781D01*
X149354183Y-124405911D01*
X149354197Y-124405906D01*
X149560344Y-124309778D01*
X149633337Y-124258666D01*
X148954313Y-123579642D01*
X148960527Y-123579642D01*
X149062260Y-123552383D01*
X149153472Y-123499722D01*
X149227946Y-123425248D01*
X149280607Y-123334036D01*
X149307866Y-123232303D01*
X149307866Y-123226089D01*
X149986890Y-123905113D01*
X150038002Y-123832120D01*
X150134130Y-123625973D01*
X150134135Y-123625959D01*
X150193005Y-123406252D01*
X150193007Y-123406241D01*
X150212832Y-123179644D01*
X150212832Y-123179640D01*
X157762398Y-123179640D01*
X157762398Y-123179643D01*
X157782230Y-123406328D01*
X157782232Y-123406339D01*
X157841124Y-123626130D01*
X157841127Y-123626139D01*
X157937297Y-123832374D01*
X157937298Y-123832376D01*
X158067820Y-124018783D01*
X158228724Y-124179687D01*
X158228727Y-124179689D01*
X158415132Y-124310210D01*
X158621370Y-124406381D01*
X158841174Y-124465277D01*
X159003096Y-124479443D01*
X159067864Y-124485110D01*
X159067866Y-124485110D01*
X159067868Y-124485110D01*
X159124539Y-124480151D01*
X159294558Y-124465277D01*
X159514362Y-124406381D01*
X159720600Y-124310210D01*
X159907005Y-124179689D01*
X160067913Y-124018781D01*
X160171754Y-123870479D01*
X161359500Y-123870479D01*
X161359500Y-125766214D01*
X161359501Y-125766220D01*
X161365908Y-125825827D01*
X161416202Y-125960672D01*
X161416206Y-125960679D01*
X161502452Y-126075888D01*
X161502455Y-126075891D01*
X161617664Y-126162137D01*
X161617671Y-126162141D01*
X161752517Y-126212435D01*
X161752516Y-126212435D01*
X161759444Y-126213179D01*
X161812127Y-126218844D01*
X163307872Y-126218843D01*
X163367483Y-126212435D01*
X163502331Y-126162140D01*
X163617546Y-126075890D01*
X163703796Y-125960675D01*
X163754091Y-125825827D01*
X163760500Y-125766217D01*
X163760499Y-125550250D01*
X163780183Y-125483214D01*
X163832987Y-125437459D01*
X163902145Y-125427515D01*
X163965701Y-125456540D01*
X163994984Y-125493958D01*
X164060486Y-125622512D01*
X164073240Y-125647543D01*
X164184310Y-125800417D01*
X164317927Y-125934034D01*
X164470801Y-126045104D01*
X164531218Y-126075888D01*
X164639163Y-126130889D01*
X164639165Y-126130889D01*
X164639168Y-126130891D01*
X164735333Y-126162137D01*
X164818881Y-126189284D01*
X165005514Y-126218844D01*
X165005519Y-126218844D01*
X165194486Y-126218844D01*
X165381118Y-126189284D01*
X165560832Y-126130891D01*
X165729199Y-126045104D01*
X165882073Y-125934034D01*
X166015690Y-125800417D01*
X166126760Y-125647543D01*
X166212547Y-125479176D01*
X166270940Y-125299462D01*
X166291816Y-125167656D01*
X166300500Y-125112830D01*
X166300500Y-124523857D01*
X166270940Y-124337225D01*
X166212545Y-124157507D01*
X166126759Y-123989144D01*
X166015690Y-123836271D01*
X165882073Y-123702654D01*
X165729199Y-123591584D01*
X165560836Y-123505798D01*
X165381118Y-123447403D01*
X165194486Y-123417844D01*
X165194481Y-123417844D01*
X165005519Y-123417844D01*
X165005514Y-123417844D01*
X164818881Y-123447403D01*
X164639163Y-123505798D01*
X164470800Y-123591584D01*
X164423240Y-123626139D01*
X164317927Y-123702654D01*
X164317925Y-123702656D01*
X164317924Y-123702656D01*
X164184312Y-123836268D01*
X164184312Y-123836269D01*
X164184310Y-123836271D01*
X164136610Y-123901923D01*
X164073240Y-123989144D01*
X163994984Y-124142731D01*
X163947009Y-124193527D01*
X163879188Y-124210322D01*
X163813053Y-124187785D01*
X163769602Y-124133069D01*
X163760499Y-124086436D01*
X163760499Y-123870473D01*
X163760498Y-123870467D01*
X163760497Y-123870460D01*
X163754091Y-123810861D01*
X163713732Y-123702654D01*
X163703797Y-123676015D01*
X163703793Y-123676008D01*
X163617547Y-123560799D01*
X163617544Y-123560796D01*
X163502335Y-123474550D01*
X163502328Y-123474546D01*
X163367482Y-123424252D01*
X163367483Y-123424252D01*
X163307883Y-123417845D01*
X163307881Y-123417844D01*
X163307873Y-123417844D01*
X163307864Y-123417844D01*
X161812129Y-123417844D01*
X161812123Y-123417845D01*
X161752516Y-123424252D01*
X161617671Y-123474546D01*
X161617664Y-123474550D01*
X161502455Y-123560796D01*
X161502452Y-123560799D01*
X161416206Y-123676008D01*
X161416202Y-123676015D01*
X161365908Y-123810861D01*
X161359501Y-123870460D01*
X161359501Y-123870467D01*
X161359500Y-123870479D01*
X160171754Y-123870479D01*
X160198434Y-123832376D01*
X160294605Y-123626138D01*
X160353501Y-123406334D01*
X160373334Y-123179642D01*
X160353501Y-122952950D01*
X160307064Y-122779642D01*
X160294607Y-122733153D01*
X160294604Y-122733144D01*
X160232990Y-122601013D01*
X160198434Y-122526908D01*
X160067913Y-122340503D01*
X160067911Y-122340500D01*
X159907007Y-122179596D01*
X159720600Y-122049074D01*
X159720598Y-122049073D01*
X159514363Y-121952903D01*
X159514354Y-121952900D01*
X159294563Y-121894008D01*
X159294559Y-121894007D01*
X159294558Y-121894007D01*
X159294557Y-121894006D01*
X159294552Y-121894006D01*
X159067868Y-121874174D01*
X159067864Y-121874174D01*
X158841179Y-121894006D01*
X158841168Y-121894008D01*
X158621377Y-121952900D01*
X158621368Y-121952903D01*
X158415133Y-122049073D01*
X158415131Y-122049074D01*
X158228724Y-122179596D01*
X158067820Y-122340500D01*
X157937298Y-122526907D01*
X157937297Y-122526909D01*
X157841127Y-122733144D01*
X157841124Y-122733153D01*
X157782232Y-122952944D01*
X157782230Y-122952955D01*
X157762398Y-123179640D01*
X150212832Y-123179640D01*
X150212832Y-123179639D01*
X150193007Y-122953042D01*
X150193005Y-122953031D01*
X150134135Y-122733324D01*
X150134130Y-122733310D01*
X150038002Y-122527163D01*
X150037998Y-122527155D01*
X149986891Y-122454168D01*
X149307866Y-123133193D01*
X149307866Y-123126981D01*
X149280607Y-123025248D01*
X149227946Y-122934036D01*
X149153472Y-122859562D01*
X149062260Y-122806901D01*
X148960527Y-122779642D01*
X148954311Y-122779642D01*
X149633338Y-122100616D01*
X149560344Y-122049505D01*
X149354197Y-121953377D01*
X149354183Y-121953372D01*
X149134476Y-121894502D01*
X149134465Y-121894500D01*
X148907868Y-121874676D01*
X148907864Y-121874676D01*
X148681266Y-121894500D01*
X148681255Y-121894502D01*
X148461548Y-121953372D01*
X148461539Y-121953376D01*
X148255382Y-122049508D01*
X148255378Y-122049510D01*
X148182392Y-122100615D01*
X148182392Y-122100616D01*
X148861419Y-122779642D01*
X148855205Y-122779642D01*
X148753472Y-122806901D01*
X148662260Y-122859562D01*
X148587786Y-122934036D01*
X148535125Y-123025248D01*
X148507866Y-123126981D01*
X148507866Y-123133194D01*
X147828840Y-122454168D01*
X147828839Y-122454168D01*
X147777734Y-122527154D01*
X147777732Y-122527158D01*
X147681600Y-122733315D01*
X147681596Y-122733324D01*
X147622726Y-122953031D01*
X147622724Y-122953042D01*
X147602900Y-123179639D01*
X144465485Y-123179639D01*
X144465485Y-122795472D01*
X144459077Y-122735861D01*
X144458127Y-122733315D01*
X144408783Y-122601015D01*
X144408779Y-122601008D01*
X144322533Y-122485799D01*
X144322530Y-122485796D01*
X144207321Y-122399550D01*
X144207314Y-122399546D01*
X144072468Y-122349252D01*
X144072469Y-122349252D01*
X144012869Y-122342845D01*
X144012867Y-122342844D01*
X144012859Y-122342844D01*
X144012850Y-122342844D01*
X142117115Y-122342844D01*
X142117109Y-122342845D01*
X142057502Y-122349252D01*
X141922657Y-122399546D01*
X141922650Y-122399550D01*
X141807441Y-122485796D01*
X141807438Y-122485799D01*
X141721192Y-122601008D01*
X141721188Y-122601015D01*
X141670894Y-122735861D01*
X141664487Y-122795460D01*
X141664487Y-122795467D01*
X141664486Y-122795479D01*
X110990500Y-122795479D01*
X110990500Y-119663855D01*
X145154068Y-119663855D01*
X145154068Y-119663858D01*
X145173900Y-119890543D01*
X145173902Y-119890554D01*
X145232794Y-120110345D01*
X145232797Y-120110354D01*
X145328967Y-120316589D01*
X145328968Y-120316591D01*
X145459490Y-120502998D01*
X145620394Y-120663902D01*
X145620397Y-120663904D01*
X145806802Y-120794425D01*
X146013040Y-120890596D01*
X146232844Y-120949492D01*
X146394766Y-120963658D01*
X146459534Y-120969325D01*
X146459536Y-120969325D01*
X146459538Y-120969325D01*
X146516209Y-120964366D01*
X146686228Y-120949492D01*
X146906032Y-120890596D01*
X147112270Y-120794425D01*
X147298675Y-120663904D01*
X147459583Y-120502996D01*
X147590104Y-120316591D01*
X147686275Y-120110353D01*
X147745171Y-119890549D01*
X147765004Y-119663857D01*
X147745171Y-119437165D01*
X147733520Y-119393681D01*
X158739496Y-119393681D01*
X159701224Y-119343278D01*
X159655730Y-119422078D01*
X159628471Y-119523811D01*
X159628471Y-119629133D01*
X159655730Y-119730866D01*
X159708391Y-119822078D01*
X159728831Y-119842518D01*
X158767399Y-119892904D01*
X158802205Y-120022800D01*
X158898336Y-120228954D01*
X159028813Y-120415292D01*
X159189650Y-120576129D01*
X159375988Y-120706606D01*
X159582144Y-120802737D01*
X159582153Y-120802741D01*
X159801865Y-120861612D01*
X159845680Y-120865445D01*
X159795277Y-119903718D01*
X159874077Y-119949213D01*
X159975810Y-119976472D01*
X160081132Y-119976472D01*
X160182865Y-119949213D01*
X160274077Y-119896552D01*
X160294517Y-119876111D01*
X160344903Y-120837542D01*
X160344904Y-120837543D01*
X160474788Y-120802741D01*
X160474797Y-120802737D01*
X160680953Y-120706606D01*
X160867291Y-120576129D01*
X161028128Y-120415292D01*
X161158605Y-120228954D01*
X161254736Y-120022798D01*
X161254740Y-120022789D01*
X161313611Y-119803079D01*
X161313611Y-119803075D01*
X161317445Y-119759261D01*
X160355718Y-119809663D01*
X160401212Y-119730866D01*
X160428471Y-119629133D01*
X160428471Y-119523811D01*
X160401212Y-119422078D01*
X160348551Y-119330866D01*
X160328108Y-119310423D01*
X161289542Y-119260038D01*
X161254740Y-119130154D01*
X161254736Y-119130145D01*
X161158605Y-118923989D01*
X161028128Y-118737651D01*
X160867291Y-118576814D01*
X160680953Y-118446337D01*
X160474797Y-118350206D01*
X160474791Y-118350203D01*
X160255079Y-118291331D01*
X160255072Y-118291330D01*
X160211261Y-118287497D01*
X160211260Y-118287497D01*
X160261662Y-119249224D01*
X160182865Y-119203731D01*
X160081132Y-119176472D01*
X159975810Y-119176472D01*
X159874077Y-119203731D01*
X159782865Y-119256392D01*
X159762422Y-119276834D01*
X159712037Y-118315400D01*
X159582143Y-118350206D01*
X159375988Y-118446337D01*
X159189650Y-118576814D01*
X159028813Y-118737651D01*
X158898336Y-118923989D01*
X158802205Y-119130145D01*
X158802202Y-119130151D01*
X158743330Y-119349863D01*
X158743329Y-119349870D01*
X158739496Y-119393681D01*
X147733520Y-119393681D01*
X147686275Y-119217361D01*
X147590104Y-119011123D01*
X147459583Y-118824718D01*
X147459581Y-118824715D01*
X147298677Y-118663811D01*
X147112270Y-118533289D01*
X147112268Y-118533288D01*
X146906033Y-118437118D01*
X146906024Y-118437115D01*
X146686233Y-118378223D01*
X146686229Y-118378222D01*
X146686228Y-118378222D01*
X146686227Y-118378221D01*
X146686222Y-118378221D01*
X146459538Y-118358389D01*
X146459534Y-118358389D01*
X146232849Y-118378221D01*
X146232838Y-118378223D01*
X146013047Y-118437115D01*
X146013038Y-118437118D01*
X145806803Y-118533288D01*
X145806801Y-118533289D01*
X145620394Y-118663811D01*
X145459490Y-118824715D01*
X145328968Y-119011122D01*
X145328967Y-119011124D01*
X145232797Y-119217359D01*
X145232794Y-119217368D01*
X145173902Y-119437159D01*
X145173900Y-119437170D01*
X145154068Y-119663855D01*
X110990500Y-119663855D01*
X110990500Y-115892135D01*
X131402272Y-115892135D01*
X131402272Y-117787870D01*
X131402273Y-117787876D01*
X131408680Y-117847483D01*
X131458974Y-117982328D01*
X131458978Y-117982335D01*
X131545224Y-118097544D01*
X131545227Y-118097547D01*
X131660436Y-118183793D01*
X131660443Y-118183797D01*
X131795289Y-118234091D01*
X131795288Y-118234091D01*
X131802216Y-118234835D01*
X131854899Y-118240500D01*
X133350644Y-118240499D01*
X133410255Y-118234091D01*
X133545103Y-118183796D01*
X133660318Y-118097546D01*
X133746568Y-117982331D01*
X133796863Y-117847483D01*
X133803272Y-117787873D01*
X133803271Y-117571906D01*
X133822955Y-117504870D01*
X133875759Y-117459115D01*
X133944917Y-117449171D01*
X134008473Y-117478196D01*
X134037756Y-117515614D01*
X134116012Y-117669199D01*
X134227082Y-117822073D01*
X134360699Y-117955690D01*
X134513573Y-118066760D01*
X134573990Y-118097544D01*
X134681935Y-118152545D01*
X134681937Y-118152545D01*
X134681940Y-118152547D01*
X134778105Y-118183793D01*
X134861653Y-118210940D01*
X135048286Y-118240500D01*
X135048291Y-118240500D01*
X135237258Y-118240500D01*
X135423890Y-118210940D01*
X135603604Y-118152547D01*
X135771971Y-118066760D01*
X135924845Y-117955690D01*
X136058462Y-117822073D01*
X136169532Y-117669199D01*
X136255319Y-117500832D01*
X136313712Y-117321118D01*
X136343272Y-117134486D01*
X136343272Y-116545513D01*
X136313712Y-116358881D01*
X136255317Y-116179163D01*
X136169531Y-116010800D01*
X136083316Y-115892135D01*
X168979500Y-115892135D01*
X168979500Y-117787870D01*
X168979501Y-117787876D01*
X168985908Y-117847483D01*
X169036202Y-117982328D01*
X169036206Y-117982335D01*
X169122452Y-118097544D01*
X169122455Y-118097547D01*
X169237664Y-118183793D01*
X169237671Y-118183797D01*
X169372517Y-118234091D01*
X169372516Y-118234091D01*
X169379444Y-118234835D01*
X169432127Y-118240500D01*
X170927872Y-118240499D01*
X170987483Y-118234091D01*
X171122331Y-118183796D01*
X171237546Y-118097546D01*
X171323796Y-117982331D01*
X171374091Y-117847483D01*
X171380500Y-117787873D01*
X171380499Y-117571906D01*
X171400183Y-117504870D01*
X171452987Y-117459115D01*
X171522145Y-117449171D01*
X171585701Y-117478196D01*
X171614984Y-117515614D01*
X171693240Y-117669199D01*
X171804310Y-117822073D01*
X171937927Y-117955690D01*
X172090801Y-118066760D01*
X172151218Y-118097544D01*
X172259163Y-118152545D01*
X172259165Y-118152545D01*
X172259168Y-118152547D01*
X172355333Y-118183793D01*
X172438881Y-118210940D01*
X172625514Y-118240500D01*
X172625519Y-118240500D01*
X172814486Y-118240500D01*
X173001118Y-118210940D01*
X173180832Y-118152547D01*
X173349199Y-118066760D01*
X173502073Y-117955690D01*
X173635690Y-117822073D01*
X173746760Y-117669199D01*
X173832547Y-117500832D01*
X173890940Y-117321118D01*
X173920500Y-117134486D01*
X173920500Y-116545513D01*
X173890940Y-116358881D01*
X173832545Y-116179163D01*
X173746759Y-116010800D01*
X173635690Y-115857927D01*
X173502073Y-115724310D01*
X173349199Y-115613240D01*
X173180836Y-115527454D01*
X173001118Y-115469059D01*
X172814486Y-115439500D01*
X172814481Y-115439500D01*
X172625519Y-115439500D01*
X172625514Y-115439500D01*
X172438881Y-115469059D01*
X172259163Y-115527454D01*
X172090800Y-115613240D01*
X172003579Y-115676610D01*
X171937927Y-115724310D01*
X171937925Y-115724312D01*
X171937924Y-115724312D01*
X171804312Y-115857924D01*
X171804312Y-115857925D01*
X171804310Y-115857927D01*
X171756610Y-115923579D01*
X171693240Y-116010800D01*
X171614984Y-116164387D01*
X171567009Y-116215183D01*
X171499188Y-116231978D01*
X171433053Y-116209441D01*
X171389602Y-116154725D01*
X171380499Y-116108092D01*
X171380499Y-115892129D01*
X171380498Y-115892123D01*
X171380497Y-115892116D01*
X171374091Y-115832517D01*
X171333732Y-115724310D01*
X171323797Y-115697671D01*
X171323793Y-115697664D01*
X171237547Y-115582455D01*
X171237544Y-115582452D01*
X171122335Y-115496206D01*
X171122328Y-115496202D01*
X170987482Y-115445908D01*
X170987483Y-115445908D01*
X170927883Y-115439501D01*
X170927881Y-115439500D01*
X170927873Y-115439500D01*
X170927864Y-115439500D01*
X169432129Y-115439500D01*
X169432123Y-115439501D01*
X169372516Y-115445908D01*
X169237671Y-115496202D01*
X169237664Y-115496206D01*
X169122455Y-115582452D01*
X169122452Y-115582455D01*
X169036206Y-115697664D01*
X169036202Y-115697671D01*
X168985908Y-115832517D01*
X168979501Y-115892116D01*
X168979501Y-115892123D01*
X168979500Y-115892135D01*
X136083316Y-115892135D01*
X136058462Y-115857927D01*
X135924845Y-115724310D01*
X135771971Y-115613240D01*
X135603608Y-115527454D01*
X135423890Y-115469059D01*
X135237258Y-115439500D01*
X135237253Y-115439500D01*
X135048291Y-115439500D01*
X135048286Y-115439500D01*
X134861653Y-115469059D01*
X134681935Y-115527454D01*
X134513572Y-115613240D01*
X134426351Y-115676610D01*
X134360699Y-115724310D01*
X134360697Y-115724312D01*
X134360696Y-115724312D01*
X134227084Y-115857924D01*
X134227084Y-115857925D01*
X134227082Y-115857927D01*
X134179382Y-115923579D01*
X134116012Y-116010800D01*
X134037756Y-116164387D01*
X133989781Y-116215183D01*
X133921960Y-116231978D01*
X133855825Y-116209441D01*
X133812374Y-116154725D01*
X133803271Y-116108092D01*
X133803271Y-115892129D01*
X133803270Y-115892123D01*
X133803269Y-115892116D01*
X133796863Y-115832517D01*
X133756504Y-115724310D01*
X133746569Y-115697671D01*
X133746565Y-115697664D01*
X133660319Y-115582455D01*
X133660316Y-115582452D01*
X133545107Y-115496206D01*
X133545100Y-115496202D01*
X133410254Y-115445908D01*
X133410255Y-115445908D01*
X133350655Y-115439501D01*
X133350653Y-115439500D01*
X133350645Y-115439500D01*
X133350636Y-115439500D01*
X131854901Y-115439500D01*
X131854895Y-115439501D01*
X131795288Y-115445908D01*
X131660443Y-115496202D01*
X131660436Y-115496206D01*
X131545227Y-115582452D01*
X131545224Y-115582455D01*
X131458978Y-115697664D01*
X131458974Y-115697671D01*
X131408680Y-115832517D01*
X131402273Y-115892116D01*
X131402273Y-115892123D01*
X131402272Y-115892135D01*
X110990500Y-115892135D01*
X110990500Y-112438511D01*
X138243420Y-112438511D01*
X138245291Y-112459902D01*
X138245293Y-112459913D01*
X138304163Y-112679620D01*
X138304167Y-112679629D01*
X138400298Y-112885785D01*
X138530775Y-113072123D01*
X138691612Y-113232960D01*
X138877950Y-113363437D01*
X139084106Y-113459568D01*
X139084115Y-113459572D01*
X139236036Y-113500279D01*
X139269633Y-112538189D01*
X139284827Y-112553383D01*
X139376039Y-112606044D01*
X139477772Y-112633303D01*
X139583094Y-112633303D01*
X139684827Y-112606044D01*
X139769269Y-112557291D01*
X139735640Y-113520314D01*
X139757037Y-113518443D01*
X139976750Y-113459572D01*
X139976759Y-113459568D01*
X140182915Y-113363437D01*
X140369253Y-113232960D01*
X140530090Y-113072123D01*
X140660567Y-112885785D01*
X140756698Y-112679629D01*
X140756702Y-112679620D01*
X140797409Y-112527698D01*
X139835321Y-112494100D01*
X139850513Y-112478909D01*
X139903174Y-112387697D01*
X139930433Y-112285964D01*
X139930433Y-112180642D01*
X139903174Y-112078909D01*
X139854420Y-111994464D01*
X140817444Y-112028094D01*
X140817271Y-112026117D01*
X165521371Y-112026117D01*
X165521371Y-112026120D01*
X165541203Y-112252805D01*
X165541205Y-112252816D01*
X165600097Y-112472607D01*
X165600100Y-112472616D01*
X165696270Y-112678851D01*
X165696271Y-112678853D01*
X165826793Y-112865260D01*
X165987697Y-113026164D01*
X165987700Y-113026166D01*
X166174105Y-113156687D01*
X166380343Y-113252858D01*
X166600147Y-113311754D01*
X166762069Y-113325920D01*
X166826837Y-113331587D01*
X166826839Y-113331587D01*
X166826841Y-113331587D01*
X166883512Y-113326628D01*
X167053531Y-113311754D01*
X167273335Y-113252858D01*
X167479573Y-113156687D01*
X167665978Y-113026166D01*
X167826886Y-112865258D01*
X167957407Y-112678853D01*
X168053578Y-112472615D01*
X168112474Y-112252811D01*
X168132307Y-112026119D01*
X168112474Y-111799427D01*
X168053578Y-111579623D01*
X167957407Y-111373385D01*
X167826886Y-111186980D01*
X167826884Y-111186977D01*
X167665980Y-111026073D01*
X167479573Y-110895551D01*
X167479571Y-110895550D01*
X167273336Y-110799380D01*
X167273327Y-110799377D01*
X167053536Y-110740485D01*
X167053532Y-110740484D01*
X167053531Y-110740484D01*
X167053530Y-110740483D01*
X167053525Y-110740483D01*
X166826841Y-110720651D01*
X166826837Y-110720651D01*
X166600152Y-110740483D01*
X166600141Y-110740485D01*
X166380350Y-110799377D01*
X166380341Y-110799380D01*
X166174106Y-110895550D01*
X166174104Y-110895551D01*
X165987697Y-111026073D01*
X165826793Y-111186977D01*
X165696271Y-111373384D01*
X165696270Y-111373386D01*
X165600100Y-111579621D01*
X165600097Y-111579630D01*
X165541205Y-111799421D01*
X165541203Y-111799432D01*
X165521371Y-112026117D01*
X140817271Y-112026117D01*
X140815574Y-112006702D01*
X140815573Y-112006695D01*
X140756702Y-111786985D01*
X140756698Y-111786976D01*
X140660567Y-111580820D01*
X140530090Y-111394482D01*
X140369253Y-111233645D01*
X140182915Y-111103168D01*
X139976761Y-111007037D01*
X139824828Y-110966326D01*
X139791230Y-111928414D01*
X139776039Y-111913223D01*
X139684827Y-111860562D01*
X139583094Y-111833303D01*
X139477772Y-111833303D01*
X139376039Y-111860562D01*
X139291594Y-111909315D01*
X139325224Y-110946290D01*
X139303831Y-110948161D01*
X139303822Y-110948163D01*
X139084115Y-111007033D01*
X139084106Y-111007037D01*
X138877950Y-111103168D01*
X138691612Y-111233645D01*
X138530775Y-111394482D01*
X138400298Y-111580820D01*
X138304167Y-111786975D01*
X138263456Y-111938906D01*
X139225546Y-111972503D01*
X139210353Y-111987697D01*
X139157692Y-112078909D01*
X139130433Y-112180642D01*
X139130433Y-112285964D01*
X139157692Y-112387697D01*
X139206444Y-112472139D01*
X138243421Y-112438510D01*
X138243420Y-112438511D01*
X110990500Y-112438511D01*
X110990500Y-105732135D01*
X124770499Y-105732135D01*
X124770499Y-107627870D01*
X124770500Y-107627876D01*
X124776907Y-107687483D01*
X124827201Y-107822328D01*
X124827205Y-107822335D01*
X124913451Y-107937544D01*
X124913454Y-107937547D01*
X125028663Y-108023793D01*
X125028670Y-108023797D01*
X125163516Y-108074091D01*
X125163515Y-108074091D01*
X125170443Y-108074835D01*
X125223126Y-108080500D01*
X126718871Y-108080499D01*
X126778482Y-108074091D01*
X126913330Y-108023796D01*
X127028545Y-107937546D01*
X127114795Y-107822331D01*
X127165090Y-107687483D01*
X127171499Y-107627873D01*
X127171498Y-107411906D01*
X127191182Y-107344870D01*
X127243986Y-107299115D01*
X127313144Y-107289171D01*
X127376700Y-107318196D01*
X127405983Y-107355614D01*
X127484239Y-107509199D01*
X127595309Y-107662073D01*
X127728926Y-107795690D01*
X127881800Y-107906760D01*
X127942217Y-107937544D01*
X128050162Y-107992545D01*
X128050164Y-107992545D01*
X128050167Y-107992547D01*
X128146332Y-108023793D01*
X128229880Y-108050940D01*
X128416513Y-108080500D01*
X128416518Y-108080500D01*
X128605485Y-108080500D01*
X128792117Y-108050940D01*
X128971831Y-107992547D01*
X129140198Y-107906760D01*
X129293072Y-107795690D01*
X129426689Y-107662073D01*
X129537759Y-107509199D01*
X129623546Y-107340832D01*
X129681939Y-107161118D01*
X129711499Y-106974486D01*
X129711499Y-106385513D01*
X129681939Y-106198881D01*
X129623544Y-106019163D01*
X129537758Y-105850800D01*
X129451543Y-105732135D01*
X176599500Y-105732135D01*
X176599500Y-107627870D01*
X176599501Y-107627876D01*
X176605908Y-107687483D01*
X176656202Y-107822328D01*
X176656206Y-107822335D01*
X176742452Y-107937544D01*
X176742455Y-107937547D01*
X176857664Y-108023793D01*
X176857671Y-108023797D01*
X176992517Y-108074091D01*
X176992516Y-108074091D01*
X176999444Y-108074835D01*
X177052127Y-108080500D01*
X178547872Y-108080499D01*
X178607483Y-108074091D01*
X178742331Y-108023796D01*
X178857546Y-107937546D01*
X178943796Y-107822331D01*
X178994091Y-107687483D01*
X179000500Y-107627873D01*
X179000499Y-107411906D01*
X179020183Y-107344870D01*
X179072987Y-107299115D01*
X179142145Y-107289171D01*
X179205701Y-107318196D01*
X179234984Y-107355614D01*
X179313240Y-107509199D01*
X179424310Y-107662073D01*
X179557927Y-107795690D01*
X179710801Y-107906760D01*
X179771218Y-107937544D01*
X179879163Y-107992545D01*
X179879165Y-107992545D01*
X179879168Y-107992547D01*
X179975333Y-108023793D01*
X180058881Y-108050940D01*
X180245514Y-108080500D01*
X180245519Y-108080500D01*
X180434486Y-108080500D01*
X180621118Y-108050940D01*
X180800832Y-107992547D01*
X180969199Y-107906760D01*
X181122073Y-107795690D01*
X181255690Y-107662073D01*
X181366760Y-107509199D01*
X181452547Y-107340832D01*
X181510940Y-107161118D01*
X181540500Y-106974486D01*
X181540500Y-106385513D01*
X181510940Y-106198881D01*
X181452545Y-106019163D01*
X181366759Y-105850800D01*
X181255690Y-105697927D01*
X181122073Y-105564310D01*
X180969199Y-105453240D01*
X180800836Y-105367454D01*
X180621118Y-105309059D01*
X180434486Y-105279500D01*
X180434481Y-105279500D01*
X180245519Y-105279500D01*
X180245514Y-105279500D01*
X180058881Y-105309059D01*
X179879163Y-105367454D01*
X179710800Y-105453240D01*
X179623579Y-105516610D01*
X179557927Y-105564310D01*
X179557925Y-105564312D01*
X179557924Y-105564312D01*
X179424312Y-105697924D01*
X179424312Y-105697925D01*
X179424310Y-105697927D01*
X179376610Y-105763579D01*
X179313240Y-105850800D01*
X179234984Y-106004387D01*
X179187009Y-106055183D01*
X179119188Y-106071978D01*
X179053053Y-106049441D01*
X179009602Y-105994725D01*
X179000499Y-105948092D01*
X179000499Y-105732129D01*
X179000498Y-105732123D01*
X179000497Y-105732116D01*
X178994091Y-105672517D01*
X178953732Y-105564310D01*
X178943797Y-105537671D01*
X178943793Y-105537664D01*
X178857547Y-105422455D01*
X178857544Y-105422452D01*
X178742335Y-105336206D01*
X178742328Y-105336202D01*
X178607482Y-105285908D01*
X178607483Y-105285908D01*
X178547883Y-105279501D01*
X178547881Y-105279500D01*
X178547873Y-105279500D01*
X178547864Y-105279500D01*
X177052129Y-105279500D01*
X177052123Y-105279501D01*
X176992516Y-105285908D01*
X176857671Y-105336202D01*
X176857664Y-105336206D01*
X176742455Y-105422452D01*
X176742452Y-105422455D01*
X176656206Y-105537664D01*
X176656202Y-105537671D01*
X176605908Y-105672517D01*
X176599501Y-105732116D01*
X176599501Y-105732123D01*
X176599500Y-105732135D01*
X129451543Y-105732135D01*
X129426689Y-105697927D01*
X129293072Y-105564310D01*
X129140198Y-105453240D01*
X128971835Y-105367454D01*
X128792117Y-105309059D01*
X128605485Y-105279500D01*
X128605480Y-105279500D01*
X128416518Y-105279500D01*
X128416513Y-105279500D01*
X128229880Y-105309059D01*
X128050162Y-105367454D01*
X127881799Y-105453240D01*
X127794578Y-105516610D01*
X127728926Y-105564310D01*
X127728924Y-105564312D01*
X127728923Y-105564312D01*
X127595311Y-105697924D01*
X127595311Y-105697925D01*
X127595309Y-105697927D01*
X127547609Y-105763579D01*
X127484239Y-105850800D01*
X127405983Y-106004387D01*
X127358008Y-106055183D01*
X127290187Y-106071978D01*
X127224052Y-106049441D01*
X127180601Y-105994725D01*
X127171498Y-105948092D01*
X127171498Y-105732129D01*
X127171497Y-105732123D01*
X127171496Y-105732116D01*
X127165090Y-105672517D01*
X127124731Y-105564310D01*
X127114796Y-105537671D01*
X127114792Y-105537664D01*
X127028546Y-105422455D01*
X127028543Y-105422452D01*
X126913334Y-105336206D01*
X126913327Y-105336202D01*
X126778481Y-105285908D01*
X126778482Y-105285908D01*
X126718882Y-105279501D01*
X126718880Y-105279500D01*
X126718872Y-105279500D01*
X126718863Y-105279500D01*
X125223128Y-105279500D01*
X125223122Y-105279501D01*
X125163515Y-105285908D01*
X125028670Y-105336202D01*
X125028663Y-105336206D01*
X124913454Y-105422452D01*
X124913451Y-105422455D01*
X124827205Y-105537664D01*
X124827201Y-105537671D01*
X124776907Y-105672517D01*
X124770500Y-105732116D01*
X124770500Y-105732123D01*
X124770499Y-105732135D01*
X110990500Y-105732135D01*
X110990500Y-103728815D01*
X131223157Y-103728815D01*
X131223157Y-103728820D01*
X131242981Y-103955417D01*
X131242983Y-103955428D01*
X131301853Y-104175135D01*
X131301857Y-104175144D01*
X131397988Y-104381300D01*
X131528462Y-104567634D01*
X131689308Y-104728481D01*
X131836924Y-104831842D01*
X132182823Y-103930743D01*
X132208043Y-103974424D01*
X132282517Y-104048898D01*
X132373729Y-104101559D01*
X132475462Y-104128818D01*
X132580784Y-104128818D01*
X132649422Y-104110426D01*
X132302554Y-105014048D01*
X132302555Y-105014049D01*
X132528121Y-105033784D01*
X132528125Y-105033784D01*
X132754722Y-105013959D01*
X132754733Y-105013957D01*
X132974440Y-104955087D01*
X132974449Y-104955083D01*
X133180605Y-104858952D01*
X133366939Y-104728478D01*
X133527786Y-104567632D01*
X133631147Y-104420016D01*
X133631147Y-104420015D01*
X132730050Y-104074115D01*
X132773729Y-104048898D01*
X132848203Y-103974424D01*
X132900864Y-103883212D01*
X132928123Y-103781479D01*
X132928123Y-103676157D01*
X132909730Y-103607515D01*
X133813353Y-103954385D01*
X133813354Y-103954384D01*
X133833089Y-103728819D01*
X133833089Y-103728815D01*
X133813264Y-103502218D01*
X133813262Y-103502207D01*
X133754392Y-103282500D01*
X133754388Y-103282491D01*
X133658257Y-103076335D01*
X133527780Y-102889997D01*
X133366940Y-102729157D01*
X133366934Y-102729152D01*
X133219320Y-102625792D01*
X132873420Y-103526889D01*
X132848203Y-103483212D01*
X132773729Y-103408738D01*
X132682517Y-103356077D01*
X132580784Y-103328818D01*
X132475462Y-103328818D01*
X132406820Y-103347210D01*
X132753690Y-102443586D01*
X132753689Y-102443585D01*
X132528125Y-102423852D01*
X132528121Y-102423852D01*
X132301523Y-102443676D01*
X132301512Y-102443678D01*
X132081805Y-102502548D01*
X132081796Y-102502552D01*
X131875640Y-102598683D01*
X131689302Y-102729160D01*
X131528461Y-102890001D01*
X131425097Y-103037620D01*
X132326197Y-103383519D01*
X132282517Y-103408738D01*
X132208043Y-103483212D01*
X132155382Y-103574424D01*
X132128123Y-103676157D01*
X132128123Y-103781479D01*
X132146514Y-103850118D01*
X131242891Y-103503249D01*
X131242890Y-103503250D01*
X131223157Y-103728815D01*
X110990500Y-103728815D01*
X110990500Y-96375111D01*
X175705524Y-96375111D01*
X175705524Y-96375116D01*
X175725348Y-96601713D01*
X175725350Y-96601724D01*
X175784220Y-96821431D01*
X175784225Y-96821445D01*
X175880353Y-97027592D01*
X175931464Y-97100586D01*
X176610490Y-96421560D01*
X176610490Y-96427775D01*
X176637749Y-96529508D01*
X176690410Y-96620720D01*
X176764884Y-96695194D01*
X176856096Y-96747855D01*
X176957829Y-96775114D01*
X176964043Y-96775114D01*
X176285016Y-97454139D01*
X176358003Y-97505246D01*
X176358011Y-97505250D01*
X176564158Y-97601378D01*
X176564172Y-97601383D01*
X176783879Y-97660253D01*
X176783890Y-97660255D01*
X177010488Y-97680080D01*
X177010492Y-97680080D01*
X177237089Y-97660255D01*
X177237100Y-97660253D01*
X177456807Y-97601383D01*
X177456821Y-97601378D01*
X177662968Y-97505250D01*
X177735961Y-97454138D01*
X177056937Y-96775114D01*
X177063151Y-96775114D01*
X177164884Y-96747855D01*
X177256096Y-96695194D01*
X177330570Y-96620720D01*
X177383231Y-96529508D01*
X177410490Y-96427775D01*
X177410490Y-96421561D01*
X178089514Y-97100585D01*
X178140626Y-97027592D01*
X178236754Y-96821445D01*
X178236759Y-96821431D01*
X178295629Y-96601724D01*
X178295631Y-96601713D01*
X178315456Y-96375116D01*
X178315456Y-96375111D01*
X178295631Y-96148514D01*
X178295629Y-96148503D01*
X178236759Y-95928796D01*
X178236754Y-95928782D01*
X178140626Y-95722635D01*
X178140622Y-95722627D01*
X178089515Y-95649640D01*
X177410490Y-96328665D01*
X177410490Y-96322453D01*
X177383231Y-96220720D01*
X177330570Y-96129508D01*
X177256096Y-96055034D01*
X177164884Y-96002373D01*
X177063151Y-95975114D01*
X177056935Y-95975114D01*
X177735962Y-95296088D01*
X177662968Y-95244977D01*
X177456821Y-95148849D01*
X177456807Y-95148844D01*
X177237100Y-95089974D01*
X177237089Y-95089972D01*
X177010492Y-95070148D01*
X177010488Y-95070148D01*
X176783890Y-95089972D01*
X176783879Y-95089974D01*
X176564172Y-95148844D01*
X176564163Y-95148848D01*
X176358006Y-95244980D01*
X176358002Y-95244982D01*
X176285016Y-95296087D01*
X176285016Y-95296088D01*
X176964043Y-95975114D01*
X176957829Y-95975114D01*
X176856096Y-96002373D01*
X176764884Y-96055034D01*
X176690410Y-96129508D01*
X176637749Y-96220720D01*
X176610490Y-96322453D01*
X176610490Y-96328666D01*
X175931464Y-95649640D01*
X175931463Y-95649640D01*
X175880358Y-95722626D01*
X175880356Y-95722630D01*
X175784224Y-95928787D01*
X175784220Y-95928796D01*
X175725350Y-96148503D01*
X175725348Y-96148514D01*
X175705524Y-96375111D01*
X110990500Y-96375111D01*
X110990500Y-93685513D01*
X120719500Y-93685513D01*
X120719500Y-94274486D01*
X120749059Y-94461118D01*
X120807454Y-94640836D01*
X120893239Y-94809197D01*
X120893240Y-94809199D01*
X121004310Y-94962073D01*
X121137927Y-95095690D01*
X121290801Y-95206760D01*
X121351218Y-95237544D01*
X121459163Y-95292545D01*
X121459165Y-95292545D01*
X121459168Y-95292547D01*
X121555333Y-95323793D01*
X121638881Y-95350940D01*
X121825514Y-95380500D01*
X121825519Y-95380500D01*
X122014486Y-95380500D01*
X122201118Y-95350940D01*
X122380832Y-95292547D01*
X122549199Y-95206760D01*
X122702073Y-95095690D01*
X122835690Y-94962073D01*
X122946760Y-94809199D01*
X123025016Y-94655611D01*
X123072989Y-94604817D01*
X123140810Y-94588021D01*
X123206945Y-94610558D01*
X123250397Y-94665273D01*
X123259500Y-94711906D01*
X123259500Y-94927870D01*
X123259501Y-94927876D01*
X123265908Y-94987483D01*
X123316202Y-95122328D01*
X123316206Y-95122335D01*
X123402452Y-95237544D01*
X123402455Y-95237547D01*
X123517664Y-95323793D01*
X123517671Y-95323797D01*
X123652517Y-95374091D01*
X123652516Y-95374091D01*
X123659444Y-95374835D01*
X123712127Y-95380500D01*
X125207872Y-95380499D01*
X125267483Y-95374091D01*
X125402331Y-95323796D01*
X125517546Y-95237546D01*
X125603796Y-95122331D01*
X125654091Y-94987483D01*
X125660500Y-94927873D01*
X125660500Y-94447195D01*
X127090210Y-94447195D01*
X127090210Y-94447198D01*
X127110042Y-94673883D01*
X127110044Y-94673894D01*
X127168936Y-94893685D01*
X127168939Y-94893694D01*
X127265109Y-95099929D01*
X127265110Y-95099931D01*
X127395632Y-95286338D01*
X127556536Y-95447242D01*
X127556539Y-95447244D01*
X127742944Y-95577765D01*
X127949182Y-95673936D01*
X128168986Y-95732832D01*
X128330908Y-95746998D01*
X128395676Y-95752665D01*
X128395678Y-95752665D01*
X128395680Y-95752665D01*
X128452351Y-95747706D01*
X128622370Y-95732832D01*
X128842174Y-95673936D01*
X129048412Y-95577765D01*
X129234817Y-95447244D01*
X129395725Y-95286336D01*
X129526246Y-95099931D01*
X129622417Y-94893693D01*
X129681313Y-94673889D01*
X129701146Y-94447197D01*
X129681313Y-94220505D01*
X129622417Y-94000701D01*
X129526246Y-93794463D01*
X129395725Y-93608058D01*
X129395723Y-93608055D01*
X129234819Y-93447151D01*
X129048412Y-93316629D01*
X129048410Y-93316628D01*
X128842175Y-93220458D01*
X128842166Y-93220455D01*
X128622375Y-93161563D01*
X128622371Y-93161562D01*
X128622370Y-93161562D01*
X128622369Y-93161561D01*
X128622364Y-93161561D01*
X128395680Y-93141729D01*
X128395676Y-93141729D01*
X128168991Y-93161561D01*
X128168980Y-93161563D01*
X127949189Y-93220455D01*
X127949180Y-93220458D01*
X127742945Y-93316628D01*
X127742943Y-93316629D01*
X127556536Y-93447151D01*
X127395632Y-93608055D01*
X127265110Y-93794462D01*
X127265109Y-93794464D01*
X127168939Y-94000699D01*
X127168936Y-94000708D01*
X127110044Y-94220499D01*
X127110042Y-94220510D01*
X127090210Y-94447195D01*
X125660500Y-94447195D01*
X125660499Y-93032135D01*
X180053178Y-93032135D01*
X180053178Y-94927870D01*
X180053179Y-94927876D01*
X180059586Y-94987483D01*
X180109880Y-95122328D01*
X180109884Y-95122335D01*
X180196130Y-95237544D01*
X180196133Y-95237547D01*
X180311342Y-95323793D01*
X180311349Y-95323797D01*
X180446195Y-95374091D01*
X180446194Y-95374091D01*
X180453122Y-95374835D01*
X180505805Y-95380500D01*
X182001550Y-95380499D01*
X182061161Y-95374091D01*
X182196009Y-95323796D01*
X182311224Y-95237546D01*
X182397474Y-95122331D01*
X182447769Y-94987483D01*
X182454178Y-94927873D01*
X182454177Y-94711906D01*
X182473861Y-94644870D01*
X182526665Y-94599115D01*
X182595823Y-94589171D01*
X182659379Y-94618196D01*
X182688662Y-94655614D01*
X182766917Y-94809197D01*
X182766918Y-94809199D01*
X182877988Y-94962073D01*
X183011605Y-95095690D01*
X183164479Y-95206760D01*
X183224896Y-95237544D01*
X183332841Y-95292545D01*
X183332843Y-95292545D01*
X183332846Y-95292547D01*
X183429011Y-95323793D01*
X183512559Y-95350940D01*
X183699192Y-95380500D01*
X183699197Y-95380500D01*
X183888164Y-95380500D01*
X184074796Y-95350940D01*
X184254510Y-95292547D01*
X184422877Y-95206760D01*
X184575751Y-95095690D01*
X184709368Y-94962073D01*
X184820438Y-94809199D01*
X184906225Y-94640832D01*
X184964618Y-94461118D01*
X184966823Y-94447195D01*
X184994178Y-94274486D01*
X184994178Y-93685513D01*
X184964618Y-93498881D01*
X184916061Y-93349441D01*
X184906225Y-93319168D01*
X184906223Y-93319165D01*
X184906223Y-93319163D01*
X184820437Y-93150800D01*
X184709368Y-92997927D01*
X184575751Y-92864310D01*
X184422877Y-92753240D01*
X184254514Y-92667454D01*
X184074796Y-92609059D01*
X183888164Y-92579500D01*
X183888159Y-92579500D01*
X183699197Y-92579500D01*
X183699192Y-92579500D01*
X183512559Y-92609059D01*
X183332841Y-92667454D01*
X183164478Y-92753240D01*
X183077257Y-92816610D01*
X183011605Y-92864310D01*
X183011603Y-92864312D01*
X183011602Y-92864312D01*
X182877990Y-92997924D01*
X182877990Y-92997925D01*
X182877988Y-92997927D01*
X182830288Y-93063579D01*
X182766918Y-93150800D01*
X182688662Y-93304387D01*
X182640687Y-93355183D01*
X182572866Y-93371978D01*
X182506731Y-93349441D01*
X182463280Y-93294725D01*
X182454177Y-93248092D01*
X182454177Y-93032129D01*
X182454176Y-93032123D01*
X182454175Y-93032116D01*
X182447769Y-92972517D01*
X182407410Y-92864310D01*
X182397475Y-92837671D01*
X182397471Y-92837664D01*
X182311225Y-92722455D01*
X182311222Y-92722452D01*
X182196013Y-92636206D01*
X182196006Y-92636202D01*
X182061160Y-92585908D01*
X182061161Y-92585908D01*
X182001561Y-92579501D01*
X182001559Y-92579500D01*
X182001551Y-92579500D01*
X182001542Y-92579500D01*
X180505807Y-92579500D01*
X180505801Y-92579501D01*
X180446194Y-92585908D01*
X180311349Y-92636202D01*
X180311342Y-92636206D01*
X180196133Y-92722452D01*
X180196130Y-92722455D01*
X180109884Y-92837664D01*
X180109880Y-92837671D01*
X180059586Y-92972517D01*
X180053179Y-93032116D01*
X180053179Y-93032123D01*
X180053178Y-93032135D01*
X125660499Y-93032135D01*
X125660499Y-93032128D01*
X125654091Y-92972517D01*
X125613732Y-92864310D01*
X125603797Y-92837671D01*
X125603793Y-92837664D01*
X125517547Y-92722455D01*
X125517544Y-92722452D01*
X125402335Y-92636206D01*
X125402328Y-92636202D01*
X125267482Y-92585908D01*
X125267483Y-92585908D01*
X125207883Y-92579501D01*
X125207881Y-92579500D01*
X125207873Y-92579500D01*
X125207864Y-92579500D01*
X123712129Y-92579500D01*
X123712123Y-92579501D01*
X123652516Y-92585908D01*
X123517671Y-92636202D01*
X123517664Y-92636206D01*
X123402455Y-92722452D01*
X123402452Y-92722455D01*
X123316206Y-92837664D01*
X123316202Y-92837671D01*
X123265908Y-92972517D01*
X123259501Y-93032116D01*
X123259501Y-93032123D01*
X123259500Y-93032135D01*
X123259500Y-93248090D01*
X123239815Y-93315129D01*
X123187011Y-93360884D01*
X123117853Y-93370828D01*
X123054297Y-93341803D01*
X123025015Y-93304385D01*
X122946759Y-93150800D01*
X122835690Y-92997927D01*
X122702073Y-92864310D01*
X122549199Y-92753240D01*
X122380836Y-92667454D01*
X122201118Y-92609059D01*
X122014486Y-92579500D01*
X122014481Y-92579500D01*
X121825519Y-92579500D01*
X121825514Y-92579500D01*
X121638881Y-92609059D01*
X121459163Y-92667454D01*
X121290800Y-92753240D01*
X121203579Y-92816610D01*
X121137927Y-92864310D01*
X121137925Y-92864312D01*
X121137924Y-92864312D01*
X121004312Y-92997924D01*
X121004312Y-92997925D01*
X121004310Y-92997927D01*
X120956610Y-93063579D01*
X120893240Y-93150800D01*
X120807454Y-93319163D01*
X120749059Y-93498881D01*
X120719500Y-93685513D01*
X110990500Y-93685513D01*
X110990500Y-87632264D01*
X146755869Y-87632264D01*
X146755869Y-87632265D01*
X146759702Y-87676076D01*
X146759703Y-87676083D01*
X146818575Y-87895795D01*
X146818578Y-87895801D01*
X146914709Y-88101957D01*
X147045186Y-88288295D01*
X147206023Y-88449132D01*
X147392361Y-88579609D01*
X147598517Y-88675740D01*
X147598526Y-88675744D01*
X147728410Y-88710546D01*
X147778795Y-87749112D01*
X147799238Y-87769555D01*
X147890450Y-87822216D01*
X147992183Y-87849475D01*
X148097505Y-87849475D01*
X148199238Y-87822216D01*
X148278035Y-87776722D01*
X148227633Y-88738449D01*
X148271447Y-88734615D01*
X148271451Y-88734615D01*
X148491161Y-88675744D01*
X148491170Y-88675740D01*
X148697326Y-88579609D01*
X148883664Y-88449132D01*
X149044501Y-88288295D01*
X149174978Y-88101957D01*
X149271109Y-87895801D01*
X149271113Y-87895792D01*
X149305915Y-87765908D01*
X149305914Y-87765907D01*
X148344483Y-87715521D01*
X148364924Y-87695081D01*
X148417585Y-87603869D01*
X148444844Y-87502136D01*
X148444844Y-87396814D01*
X148417585Y-87295081D01*
X148372090Y-87216281D01*
X149333818Y-87266684D01*
X149329984Y-87222871D01*
X149329984Y-87222867D01*
X149271113Y-87003157D01*
X149271109Y-87003148D01*
X149269096Y-86998831D01*
X150618216Y-86998831D01*
X150618216Y-88894566D01*
X150618217Y-88894572D01*
X150624624Y-88954179D01*
X150674918Y-89089024D01*
X150674922Y-89089031D01*
X150761168Y-89204240D01*
X150761171Y-89204243D01*
X150876380Y-89290489D01*
X150876387Y-89290493D01*
X151011233Y-89340787D01*
X151011232Y-89340787D01*
X151018160Y-89341531D01*
X151070843Y-89347196D01*
X152566588Y-89347195D01*
X152626199Y-89340787D01*
X152761047Y-89290492D01*
X152876262Y-89204242D01*
X152962512Y-89089027D01*
X153012807Y-88954179D01*
X153019216Y-88894569D01*
X153019215Y-88678602D01*
X153038899Y-88611566D01*
X153091703Y-88565811D01*
X153160861Y-88555867D01*
X153224417Y-88584892D01*
X153253700Y-88622310D01*
X153298659Y-88710546D01*
X153331956Y-88775895D01*
X153443026Y-88928769D01*
X153576643Y-89062386D01*
X153729517Y-89173456D01*
X153789934Y-89204240D01*
X153897879Y-89259241D01*
X153897881Y-89259241D01*
X153897884Y-89259243D01*
X153994049Y-89290489D01*
X154077597Y-89317636D01*
X154264230Y-89347196D01*
X154264235Y-89347196D01*
X154453202Y-89347196D01*
X154639834Y-89317636D01*
X154819548Y-89259243D01*
X154987915Y-89173456D01*
X155140789Y-89062386D01*
X155274406Y-88928769D01*
X155385476Y-88775895D01*
X155471263Y-88607528D01*
X155529656Y-88427814D01*
X155559216Y-88241182D01*
X155559216Y-87652209D01*
X155529656Y-87465577D01*
X155481099Y-87316137D01*
X155471263Y-87285864D01*
X155471261Y-87285861D01*
X155471261Y-87285859D01*
X155385475Y-87117496D01*
X155274406Y-86964623D01*
X155140789Y-86831006D01*
X154987915Y-86719936D01*
X154819552Y-86634150D01*
X154639834Y-86575755D01*
X154453202Y-86546196D01*
X154453197Y-86546196D01*
X154264235Y-86546196D01*
X154264230Y-86546196D01*
X154077597Y-86575755D01*
X153897879Y-86634150D01*
X153729516Y-86719936D01*
X153642295Y-86783306D01*
X153576643Y-86831006D01*
X153576641Y-86831008D01*
X153576640Y-86831008D01*
X153443028Y-86964620D01*
X153443028Y-86964621D01*
X153443026Y-86964623D01*
X153395326Y-87030275D01*
X153331956Y-87117496D01*
X153253700Y-87271083D01*
X153205725Y-87321879D01*
X153137904Y-87338674D01*
X153071769Y-87316137D01*
X153028318Y-87261421D01*
X153019215Y-87214788D01*
X153019215Y-86998825D01*
X153019214Y-86998819D01*
X153019213Y-86998812D01*
X153012807Y-86939213D01*
X152972448Y-86831006D01*
X152962513Y-86804367D01*
X152962509Y-86804360D01*
X152876263Y-86689151D01*
X152876260Y-86689148D01*
X152761051Y-86602902D01*
X152761044Y-86602898D01*
X152626198Y-86552604D01*
X152626199Y-86552604D01*
X152566599Y-86546197D01*
X152566597Y-86546196D01*
X152566589Y-86546196D01*
X152566580Y-86546196D01*
X151070845Y-86546196D01*
X151070839Y-86546197D01*
X151011232Y-86552604D01*
X150876387Y-86602898D01*
X150876380Y-86602902D01*
X150761171Y-86689148D01*
X150761168Y-86689151D01*
X150674922Y-86804360D01*
X150674918Y-86804367D01*
X150624624Y-86939213D01*
X150618217Y-86998812D01*
X150618217Y-86998819D01*
X150618216Y-86998831D01*
X149269096Y-86998831D01*
X149174978Y-86796992D01*
X149044501Y-86610654D01*
X148883664Y-86449817D01*
X148697326Y-86319340D01*
X148491172Y-86223209D01*
X148460954Y-86215112D01*
X175705022Y-86215112D01*
X175705022Y-86215115D01*
X175724854Y-86441800D01*
X175724856Y-86441811D01*
X175783748Y-86661602D01*
X175783751Y-86661611D01*
X175879921Y-86867846D01*
X175879922Y-86867848D01*
X176010444Y-87054255D01*
X176171348Y-87215159D01*
X176171351Y-87215161D01*
X176357756Y-87345682D01*
X176563994Y-87441853D01*
X176783798Y-87500749D01*
X176945720Y-87514915D01*
X177010488Y-87520582D01*
X177010490Y-87520582D01*
X177010492Y-87520582D01*
X177067163Y-87515623D01*
X177237182Y-87500749D01*
X177456986Y-87441853D01*
X177663224Y-87345682D01*
X177849629Y-87215161D01*
X178010537Y-87054253D01*
X178141058Y-86867848D01*
X178237229Y-86661610D01*
X178296125Y-86441806D01*
X178315958Y-86215114D01*
X178296125Y-85988422D01*
X178245348Y-85798918D01*
X178237231Y-85768625D01*
X178237228Y-85768616D01*
X178141058Y-85562381D01*
X178141057Y-85562379D01*
X178101349Y-85505670D01*
X178010537Y-85375975D01*
X178010535Y-85375972D01*
X177849631Y-85215068D01*
X177663224Y-85084546D01*
X177663222Y-85084545D01*
X177456987Y-84988375D01*
X177456978Y-84988372D01*
X177237187Y-84929480D01*
X177237183Y-84929479D01*
X177237182Y-84929479D01*
X177237181Y-84929478D01*
X177237176Y-84929478D01*
X177010492Y-84909646D01*
X177010488Y-84909646D01*
X176783803Y-84929478D01*
X176783792Y-84929480D01*
X176564001Y-84988372D01*
X176563992Y-84988375D01*
X176357757Y-85084545D01*
X176357755Y-85084546D01*
X176171348Y-85215068D01*
X176010444Y-85375972D01*
X175879922Y-85562379D01*
X175879921Y-85562381D01*
X175783751Y-85768616D01*
X175783748Y-85768625D01*
X175724856Y-85988416D01*
X175724854Y-85988427D01*
X175705022Y-86215112D01*
X148460954Y-86215112D01*
X148361276Y-86188403D01*
X148310890Y-87149835D01*
X148290450Y-87129395D01*
X148199238Y-87076734D01*
X148097505Y-87049475D01*
X147992183Y-87049475D01*
X147890450Y-87076734D01*
X147811650Y-87122228D01*
X147862053Y-86160500D01*
X147818242Y-86164333D01*
X147818235Y-86164334D01*
X147598523Y-86223206D01*
X147598517Y-86223209D01*
X147392361Y-86319340D01*
X147206023Y-86449817D01*
X147045186Y-86610654D01*
X146914709Y-86796992D01*
X146818578Y-87003147D01*
X146783772Y-87133041D01*
X147745206Y-87183426D01*
X147724764Y-87203869D01*
X147672103Y-87295081D01*
X147644844Y-87396814D01*
X147644844Y-87502136D01*
X147672103Y-87603869D01*
X147717596Y-87682666D01*
X146755869Y-87632264D01*
X110990500Y-87632264D01*
X110990500Y-84368172D01*
X128436344Y-84368172D01*
X129395396Y-84284266D01*
X129356511Y-84351619D01*
X129329252Y-84453352D01*
X129329252Y-84558674D01*
X129356511Y-84660407D01*
X129409172Y-84751619D01*
X129439839Y-84782286D01*
X128479923Y-84866268D01*
X128479923Y-84866269D01*
X128502982Y-84952330D01*
X128502986Y-84952339D01*
X128599117Y-85158495D01*
X128729594Y-85344833D01*
X128890431Y-85505670D01*
X129076769Y-85636147D01*
X129282925Y-85732278D01*
X129282934Y-85732282D01*
X129502644Y-85791153D01*
X129502648Y-85791154D01*
X129591410Y-85798918D01*
X129591411Y-85798918D01*
X129507505Y-84839868D01*
X129574858Y-84878754D01*
X129676591Y-84906013D01*
X129781913Y-84906013D01*
X129883646Y-84878754D01*
X129974858Y-84826093D01*
X130005525Y-84795425D01*
X130089507Y-85755341D01*
X130175572Y-85732281D01*
X130175576Y-85732280D01*
X130381734Y-85636147D01*
X130568072Y-85505670D01*
X130728909Y-85344833D01*
X130859386Y-85158495D01*
X130955517Y-84952339D01*
X130955521Y-84952330D01*
X131014392Y-84732620D01*
X131014393Y-84732616D01*
X131022157Y-84643853D01*
X131022157Y-84643852D01*
X130063108Y-84727757D01*
X130101993Y-84660407D01*
X130129252Y-84558674D01*
X130129252Y-84453352D01*
X130101993Y-84351619D01*
X130049332Y-84260407D01*
X130018662Y-84229737D01*
X130978579Y-84145756D01*
X130978580Y-84145755D01*
X130955520Y-84059692D01*
X130955519Y-84059688D01*
X130859386Y-83853530D01*
X130728909Y-83667192D01*
X130568072Y-83506355D01*
X130381734Y-83375878D01*
X130175578Y-83279747D01*
X130175569Y-83279743D01*
X129955862Y-83220873D01*
X129955852Y-83220871D01*
X129867091Y-83213105D01*
X129950996Y-84172156D01*
X129883646Y-84133272D01*
X129781913Y-84106013D01*
X129676591Y-84106013D01*
X129574858Y-84133272D01*
X129483646Y-84185933D01*
X129452976Y-84216602D01*
X129368995Y-83256684D01*
X129368994Y-83256684D01*
X129282934Y-83279743D01*
X129282925Y-83279747D01*
X129076769Y-83375878D01*
X128890431Y-83506355D01*
X128729594Y-83667192D01*
X128599117Y-83853530D01*
X128502986Y-84059686D01*
X128502982Y-84059695D01*
X128444112Y-84279402D01*
X128444110Y-84279412D01*
X128436344Y-84368172D01*
X110990500Y-84368172D01*
X110990500Y-80748402D01*
X121381862Y-80748402D01*
X121381862Y-81337375D01*
X121411421Y-81524007D01*
X121469816Y-81703725D01*
X121555601Y-81872086D01*
X121555602Y-81872088D01*
X121666672Y-82024962D01*
X121800289Y-82158579D01*
X121953163Y-82269649D01*
X122013580Y-82300433D01*
X122121525Y-82355434D01*
X122121527Y-82355434D01*
X122121530Y-82355436D01*
X122151793Y-82365269D01*
X122301243Y-82413829D01*
X122487876Y-82443389D01*
X122487881Y-82443389D01*
X122676848Y-82443389D01*
X122863480Y-82413829D01*
X122863988Y-82413664D01*
X123043194Y-82355436D01*
X123211561Y-82269649D01*
X123364435Y-82158579D01*
X123498052Y-82024962D01*
X123609122Y-81872088D01*
X123687378Y-81718500D01*
X123735351Y-81667706D01*
X123803172Y-81650910D01*
X123869307Y-81673447D01*
X123912759Y-81728162D01*
X123921862Y-81774795D01*
X123921862Y-81990759D01*
X123921863Y-81990765D01*
X123928270Y-82050372D01*
X123978564Y-82185217D01*
X123978568Y-82185224D01*
X124064814Y-82300433D01*
X124064817Y-82300436D01*
X124180026Y-82386682D01*
X124180033Y-82386686D01*
X124314879Y-82436980D01*
X124314878Y-82436980D01*
X124319483Y-82437475D01*
X124374489Y-82443389D01*
X125870234Y-82443388D01*
X125929845Y-82436980D01*
X126064693Y-82386685D01*
X126179908Y-82300435D01*
X126228891Y-82235002D01*
X161565819Y-82235002D01*
X161583534Y-82437475D01*
X161583536Y-82437485D01*
X161642406Y-82657192D01*
X161642410Y-82657201D01*
X161738541Y-82863357D01*
X161869018Y-83049695D01*
X162029855Y-83210532D01*
X162216193Y-83341009D01*
X162400400Y-83426905D01*
X162568076Y-82475961D01*
X162623070Y-82530955D01*
X162714282Y-82583616D01*
X162816015Y-82610875D01*
X162921337Y-82610875D01*
X163023070Y-82583616D01*
X163060630Y-82561930D01*
X162892803Y-83513730D01*
X163095279Y-83496015D01*
X163095283Y-83496015D01*
X163314993Y-83437144D01*
X163315002Y-83437140D01*
X163521158Y-83341009D01*
X163707496Y-83210532D01*
X163868333Y-83049695D01*
X163998810Y-82863356D01*
X163998811Y-82863354D01*
X164084707Y-82679150D01*
X164084706Y-82679149D01*
X163133763Y-82511473D01*
X163188756Y-82456481D01*
X163241417Y-82365269D01*
X163268676Y-82263536D01*
X163268676Y-82158214D01*
X163241417Y-82056481D01*
X163219729Y-82018917D01*
X164171531Y-82186746D01*
X164153817Y-81984275D01*
X164153815Y-81984264D01*
X164094945Y-81764557D01*
X164094941Y-81764548D01*
X163998810Y-81558392D01*
X163868333Y-81372054D01*
X163707496Y-81211217D01*
X163521156Y-81080739D01*
X163336950Y-80994843D01*
X163169273Y-81945786D01*
X163114282Y-81890795D01*
X163023070Y-81838134D01*
X162921337Y-81810875D01*
X162816015Y-81810875D01*
X162714282Y-81838134D01*
X162676718Y-81859821D01*
X162844547Y-80908018D01*
X162642075Y-80925733D01*
X162642065Y-80925735D01*
X162422358Y-80984605D01*
X162422349Y-80984609D01*
X162216193Y-81080740D01*
X162029855Y-81211217D01*
X161869018Y-81372054D01*
X161738540Y-81558394D01*
X161652644Y-81742599D01*
X162603590Y-81910274D01*
X162548596Y-81965269D01*
X162495935Y-82056481D01*
X162468676Y-82158214D01*
X162468676Y-82263536D01*
X162495935Y-82365269D01*
X162517621Y-82402830D01*
X161565819Y-82235002D01*
X126228891Y-82235002D01*
X126266158Y-82185220D01*
X126316453Y-82050372D01*
X126322862Y-81990762D01*
X126322861Y-80095017D01*
X126316453Y-80035406D01*
X126276094Y-79927199D01*
X126266159Y-79900560D01*
X126266155Y-79900553D01*
X126265084Y-79899122D01*
X139941009Y-79899122D01*
X139941009Y-79899125D01*
X139960841Y-80125810D01*
X139960843Y-80125821D01*
X140019735Y-80345612D01*
X140019738Y-80345621D01*
X140115908Y-80551856D01*
X140115909Y-80551858D01*
X140246431Y-80738265D01*
X140407335Y-80899169D01*
X140407338Y-80899171D01*
X140593743Y-81029692D01*
X140799981Y-81125863D01*
X141019785Y-81184759D01*
X141181707Y-81198925D01*
X141246475Y-81204592D01*
X141246477Y-81204592D01*
X141246479Y-81204592D01*
X141303150Y-81199633D01*
X141473169Y-81184759D01*
X141692973Y-81125863D01*
X141899211Y-81029692D01*
X142085616Y-80899171D01*
X142246524Y-80738263D01*
X142377045Y-80551858D01*
X142473216Y-80345620D01*
X142532112Y-80125816D01*
X142534806Y-80095024D01*
X179622922Y-80095024D01*
X179622922Y-81990759D01*
X179622923Y-81990765D01*
X179629330Y-82050372D01*
X179679624Y-82185217D01*
X179679628Y-82185224D01*
X179765874Y-82300433D01*
X179765877Y-82300436D01*
X179881086Y-82386682D01*
X179881093Y-82386686D01*
X180015939Y-82436980D01*
X180015938Y-82436980D01*
X180020543Y-82437475D01*
X180075549Y-82443389D01*
X181571294Y-82443388D01*
X181630905Y-82436980D01*
X181765753Y-82386685D01*
X181880968Y-82300435D01*
X181967218Y-82185220D01*
X182017513Y-82050372D01*
X182023922Y-81990762D01*
X182023921Y-81774795D01*
X182043605Y-81707759D01*
X182096409Y-81662004D01*
X182165567Y-81652060D01*
X182229123Y-81681085D01*
X182258406Y-81718503D01*
X182336661Y-81872086D01*
X182336662Y-81872088D01*
X182447732Y-82024962D01*
X182581349Y-82158579D01*
X182734223Y-82269649D01*
X182794640Y-82300433D01*
X182902585Y-82355434D01*
X182902587Y-82355434D01*
X182902590Y-82355436D01*
X182932853Y-82365269D01*
X183082303Y-82413829D01*
X183268936Y-82443389D01*
X183268941Y-82443389D01*
X183457908Y-82443389D01*
X183644540Y-82413829D01*
X183645048Y-82413664D01*
X183824254Y-82355436D01*
X183992621Y-82269649D01*
X184145495Y-82158579D01*
X184279112Y-82024962D01*
X184390182Y-81872088D01*
X184475969Y-81703721D01*
X184534362Y-81524007D01*
X184558429Y-81372054D01*
X184563922Y-81337375D01*
X184563922Y-80748402D01*
X184534362Y-80561770D01*
X184485805Y-80412330D01*
X184475969Y-80382057D01*
X184475967Y-80382054D01*
X184475967Y-80382052D01*
X184390181Y-80213689D01*
X184279112Y-80060816D01*
X184145495Y-79927199D01*
X183992621Y-79816129D01*
X183824258Y-79730343D01*
X183644540Y-79671948D01*
X183457908Y-79642389D01*
X183457903Y-79642389D01*
X183268941Y-79642389D01*
X183268936Y-79642389D01*
X183082303Y-79671948D01*
X182902585Y-79730343D01*
X182734222Y-79816129D01*
X182647001Y-79879499D01*
X182581349Y-79927199D01*
X182581347Y-79927201D01*
X182581346Y-79927201D01*
X182447734Y-80060813D01*
X182447734Y-80060814D01*
X182447732Y-80060816D01*
X182400511Y-80125810D01*
X182336662Y-80213689D01*
X182258406Y-80367276D01*
X182210431Y-80418072D01*
X182142610Y-80434867D01*
X182076475Y-80412330D01*
X182033024Y-80357614D01*
X182023921Y-80310981D01*
X182023921Y-80095018D01*
X182023920Y-80095012D01*
X182023919Y-80095005D01*
X182017513Y-80035406D01*
X181977154Y-79927199D01*
X181967219Y-79900560D01*
X181967215Y-79900553D01*
X181880969Y-79785344D01*
X181880966Y-79785341D01*
X181765757Y-79699095D01*
X181765750Y-79699091D01*
X181630904Y-79648797D01*
X181630905Y-79648797D01*
X181571305Y-79642390D01*
X181571303Y-79642389D01*
X181571295Y-79642389D01*
X181571286Y-79642389D01*
X180075551Y-79642389D01*
X180075545Y-79642390D01*
X180015938Y-79648797D01*
X179881093Y-79699091D01*
X179881086Y-79699095D01*
X179765877Y-79785341D01*
X179765874Y-79785344D01*
X179679628Y-79900553D01*
X179679624Y-79900560D01*
X179629330Y-80035406D01*
X179622923Y-80095005D01*
X179622923Y-80095012D01*
X179622922Y-80095024D01*
X142534806Y-80095024D01*
X142551945Y-79899124D01*
X142532112Y-79672432D01*
X142473216Y-79452628D01*
X142377045Y-79246390D01*
X142246524Y-79059985D01*
X142246522Y-79059982D01*
X142085618Y-78899078D01*
X141899211Y-78768556D01*
X141899209Y-78768555D01*
X141692974Y-78672385D01*
X141692965Y-78672382D01*
X141473174Y-78613490D01*
X141473170Y-78613489D01*
X141473169Y-78613489D01*
X141473168Y-78613488D01*
X141473163Y-78613488D01*
X141246479Y-78593656D01*
X141246475Y-78593656D01*
X141019790Y-78613488D01*
X141019779Y-78613490D01*
X140799988Y-78672382D01*
X140799979Y-78672385D01*
X140593744Y-78768555D01*
X140593742Y-78768556D01*
X140407335Y-78899078D01*
X140246431Y-79059982D01*
X140115909Y-79246389D01*
X140115908Y-79246391D01*
X140019738Y-79452626D01*
X140019735Y-79452635D01*
X139960843Y-79672426D01*
X139960841Y-79672437D01*
X139941009Y-79899122D01*
X126265084Y-79899122D01*
X126179909Y-79785344D01*
X126179906Y-79785341D01*
X126064697Y-79699095D01*
X126064690Y-79699091D01*
X125929844Y-79648797D01*
X125929845Y-79648797D01*
X125870245Y-79642390D01*
X125870243Y-79642389D01*
X125870235Y-79642389D01*
X125870226Y-79642389D01*
X124374491Y-79642389D01*
X124374485Y-79642390D01*
X124314878Y-79648797D01*
X124180033Y-79699091D01*
X124180026Y-79699095D01*
X124064817Y-79785341D01*
X124064814Y-79785344D01*
X123978568Y-79900553D01*
X123978564Y-79900560D01*
X123928270Y-80035406D01*
X123921863Y-80095005D01*
X123921863Y-80095012D01*
X123921862Y-80095024D01*
X123921862Y-80310979D01*
X123902177Y-80378018D01*
X123849373Y-80423773D01*
X123780215Y-80433717D01*
X123716659Y-80404692D01*
X123687377Y-80367274D01*
X123609121Y-80213689D01*
X123498052Y-80060816D01*
X123364435Y-79927199D01*
X123211561Y-79816129D01*
X123043198Y-79730343D01*
X122863480Y-79671948D01*
X122676848Y-79642389D01*
X122676843Y-79642389D01*
X122487881Y-79642389D01*
X122487876Y-79642389D01*
X122301243Y-79671948D01*
X122121525Y-79730343D01*
X121953162Y-79816129D01*
X121865941Y-79879499D01*
X121800289Y-79927199D01*
X121800287Y-79927201D01*
X121800286Y-79927201D01*
X121666674Y-80060813D01*
X121666674Y-80060814D01*
X121666672Y-80060816D01*
X121619451Y-80125810D01*
X121555602Y-80213689D01*
X121469816Y-80382052D01*
X121411421Y-80561770D01*
X121381862Y-80748402D01*
X110990500Y-80748402D01*
X110990500Y-76722999D01*
X134954505Y-76722999D01*
X134954505Y-76723002D01*
X134974337Y-76949687D01*
X134974339Y-76949698D01*
X135033231Y-77169489D01*
X135033234Y-77169498D01*
X135129404Y-77375733D01*
X135129405Y-77375735D01*
X135259927Y-77562142D01*
X135420831Y-77723046D01*
X135467666Y-77755840D01*
X135607239Y-77853569D01*
X135813477Y-77949740D01*
X136033281Y-78008636D01*
X136195203Y-78022802D01*
X136259971Y-78028469D01*
X136259973Y-78028469D01*
X136259975Y-78028469D01*
X136316646Y-78023510D01*
X136486665Y-78008636D01*
X136706469Y-77949740D01*
X136912707Y-77853569D01*
X137099112Y-77723048D01*
X137260020Y-77562140D01*
X137390541Y-77375735D01*
X137486712Y-77169497D01*
X137545608Y-76949693D01*
X137565441Y-76723001D01*
X137545608Y-76496309D01*
X137486712Y-76276505D01*
X137433727Y-76162878D01*
X144895334Y-76162878D01*
X144895334Y-78058613D01*
X144895335Y-78058619D01*
X144901742Y-78118226D01*
X144952036Y-78253071D01*
X144952040Y-78253078D01*
X145038286Y-78368287D01*
X145038289Y-78368290D01*
X145153498Y-78454536D01*
X145153505Y-78454540D01*
X145288351Y-78504834D01*
X145288350Y-78504834D01*
X145295278Y-78505578D01*
X145347961Y-78511243D01*
X146843706Y-78511242D01*
X146903317Y-78504834D01*
X147038165Y-78454539D01*
X147153380Y-78368289D01*
X147239630Y-78253074D01*
X147289925Y-78118226D01*
X147296334Y-78058616D01*
X147296333Y-77842649D01*
X147316017Y-77775613D01*
X147368821Y-77729858D01*
X147437979Y-77719914D01*
X147501535Y-77748939D01*
X147530818Y-77786357D01*
X147609074Y-77939942D01*
X147720144Y-78092816D01*
X147853761Y-78226433D01*
X148006635Y-78337503D01*
X148067052Y-78368287D01*
X148174997Y-78423288D01*
X148174999Y-78423288D01*
X148175002Y-78423290D01*
X148271167Y-78454536D01*
X148354715Y-78481683D01*
X148541348Y-78511243D01*
X148541353Y-78511243D01*
X148730320Y-78511243D01*
X148916952Y-78481683D01*
X149096666Y-78423290D01*
X149265033Y-78337503D01*
X149417907Y-78226433D01*
X149551524Y-78092816D01*
X149662594Y-77939942D01*
X149748381Y-77771575D01*
X149806774Y-77591861D01*
X149819121Y-77513906D01*
X149836334Y-77405229D01*
X149836334Y-76816256D01*
X149806774Y-76629624D01*
X149748379Y-76449906D01*
X149662593Y-76281543D01*
X149658931Y-76276503D01*
X149551524Y-76128670D01*
X149417907Y-75995053D01*
X149265033Y-75883983D01*
X149264790Y-75883859D01*
X149096670Y-75798197D01*
X148952203Y-75751256D01*
X158152302Y-75751256D01*
X158152302Y-75940229D01*
X158181861Y-76126861D01*
X158240256Y-76306579D01*
X158313288Y-76449911D01*
X158326042Y-76474942D01*
X158437112Y-76627816D01*
X158570729Y-76761433D01*
X158664865Y-76829827D01*
X158723604Y-76872504D01*
X158829835Y-76926630D01*
X158875107Y-76949698D01*
X158877188Y-76950758D01*
X158927985Y-76998732D01*
X158944780Y-77066553D01*
X158922243Y-77132688D01*
X158867528Y-77176140D01*
X158820895Y-77185243D01*
X158604931Y-77185243D01*
X158604925Y-77185244D01*
X158545318Y-77191651D01*
X158410473Y-77241945D01*
X158410466Y-77241949D01*
X158295257Y-77328195D01*
X158295254Y-77328198D01*
X158209008Y-77443407D01*
X158209004Y-77443414D01*
X158158710Y-77578260D01*
X158152303Y-77637859D01*
X158152303Y-77637866D01*
X158152302Y-77637878D01*
X158152302Y-79133613D01*
X158152303Y-79133619D01*
X158158710Y-79193226D01*
X158209004Y-79328071D01*
X158209008Y-79328078D01*
X158295254Y-79443287D01*
X158295257Y-79443290D01*
X158410466Y-79529536D01*
X158410473Y-79529540D01*
X158545319Y-79579834D01*
X158545318Y-79579834D01*
X158552246Y-79580578D01*
X158604929Y-79586243D01*
X160500674Y-79586242D01*
X160560285Y-79579834D01*
X160695133Y-79529539D01*
X160810348Y-79443289D01*
X160896598Y-79328074D01*
X160946893Y-79193226D01*
X160953302Y-79133616D01*
X160953301Y-77637871D01*
X160946893Y-77578260D01*
X160940881Y-77562142D01*
X160896599Y-77443414D01*
X160896595Y-77443407D01*
X160810349Y-77328198D01*
X160810346Y-77328195D01*
X160695137Y-77241949D01*
X160695130Y-77241945D01*
X160560284Y-77191651D01*
X160560285Y-77191651D01*
X160500685Y-77185244D01*
X160500683Y-77185243D01*
X160500675Y-77185243D01*
X160500667Y-77185243D01*
X160284711Y-77185243D01*
X160217672Y-77165558D01*
X160171917Y-77112754D01*
X160161973Y-77043596D01*
X160190998Y-76980040D01*
X160228416Y-76950758D01*
X160382001Y-76872503D01*
X160534875Y-76761433D01*
X160668492Y-76627816D01*
X160779562Y-76474942D01*
X160826237Y-76383337D01*
X169885793Y-76383337D01*
X169885793Y-76383340D01*
X169905625Y-76610025D01*
X169905627Y-76610036D01*
X169964519Y-76829827D01*
X169964522Y-76829836D01*
X170060692Y-77036071D01*
X170060693Y-77036073D01*
X170191215Y-77222480D01*
X170352119Y-77383384D01*
X170352122Y-77383386D01*
X170538527Y-77513907D01*
X170744765Y-77610078D01*
X170964569Y-77668974D01*
X171126491Y-77683140D01*
X171191259Y-77688807D01*
X171191261Y-77688807D01*
X171191263Y-77688807D01*
X171247934Y-77683848D01*
X171417953Y-77668974D01*
X171637757Y-77610078D01*
X171843995Y-77513907D01*
X172030400Y-77383386D01*
X172191308Y-77222478D01*
X172321829Y-77036073D01*
X172418000Y-76829835D01*
X172476896Y-76610031D01*
X172496729Y-76383339D01*
X172476896Y-76156647D01*
X172418000Y-75936843D01*
X172321829Y-75730605D01*
X172191308Y-75544200D01*
X172191306Y-75544197D01*
X172030402Y-75383293D01*
X171843995Y-75252771D01*
X171843993Y-75252770D01*
X171637758Y-75156600D01*
X171637749Y-75156597D01*
X171417958Y-75097705D01*
X171417954Y-75097704D01*
X171417953Y-75097704D01*
X171417952Y-75097703D01*
X171417947Y-75097703D01*
X171191263Y-75077871D01*
X171191259Y-75077871D01*
X170964574Y-75097703D01*
X170964563Y-75097705D01*
X170744772Y-75156597D01*
X170744763Y-75156600D01*
X170538528Y-75252770D01*
X170538526Y-75252771D01*
X170352119Y-75383293D01*
X170191215Y-75544197D01*
X170060693Y-75730604D01*
X170060692Y-75730606D01*
X169964522Y-75936841D01*
X169964519Y-75936850D01*
X169905627Y-76156641D01*
X169905625Y-76156652D01*
X169885793Y-76383337D01*
X160826237Y-76383337D01*
X160865349Y-76306575D01*
X160923742Y-76126861D01*
X160927480Y-76103259D01*
X160953302Y-75940229D01*
X160953302Y-75751256D01*
X160923742Y-75564624D01*
X160882392Y-75437365D01*
X160865349Y-75384911D01*
X160865347Y-75384908D01*
X160865347Y-75384906D01*
X160820092Y-75296090D01*
X160779562Y-75216544D01*
X160668492Y-75063670D01*
X160534875Y-74930053D01*
X160382001Y-74818983D01*
X160213638Y-74733197D01*
X160033920Y-74674802D01*
X159847288Y-74645243D01*
X159847283Y-74645243D01*
X159258321Y-74645243D01*
X159258316Y-74645243D01*
X159071683Y-74674802D01*
X158891965Y-74733197D01*
X158723602Y-74818983D01*
X158636381Y-74882353D01*
X158570729Y-74930053D01*
X158570727Y-74930055D01*
X158570726Y-74930055D01*
X158437114Y-75063667D01*
X158437114Y-75063668D01*
X158437112Y-75063670D01*
X158412385Y-75097704D01*
X158326042Y-75216543D01*
X158240256Y-75384906D01*
X158181861Y-75564624D01*
X158152302Y-75751256D01*
X148952203Y-75751256D01*
X148916952Y-75739802D01*
X148730320Y-75710243D01*
X148730315Y-75710243D01*
X148541353Y-75710243D01*
X148541348Y-75710243D01*
X148354715Y-75739802D01*
X148174997Y-75798197D01*
X148006634Y-75883983D01*
X147933880Y-75936843D01*
X147853761Y-75995053D01*
X147853759Y-75995055D01*
X147853758Y-75995055D01*
X147720146Y-76128667D01*
X147720146Y-76128668D01*
X147720144Y-76128670D01*
X147672444Y-76194322D01*
X147609074Y-76281543D01*
X147530818Y-76435130D01*
X147482843Y-76485926D01*
X147415022Y-76502721D01*
X147348887Y-76480184D01*
X147305436Y-76425468D01*
X147296333Y-76378835D01*
X147296333Y-76162872D01*
X147296332Y-76162866D01*
X147296331Y-76162859D01*
X147289925Y-76103260D01*
X147277619Y-76070267D01*
X147239631Y-75968414D01*
X147239627Y-75968407D01*
X147153381Y-75853198D01*
X147153378Y-75853195D01*
X147038169Y-75766949D01*
X147038162Y-75766945D01*
X146903316Y-75716651D01*
X146903317Y-75716651D01*
X146843717Y-75710244D01*
X146843715Y-75710243D01*
X146843707Y-75710243D01*
X146843698Y-75710243D01*
X145347963Y-75710243D01*
X145347957Y-75710244D01*
X145288350Y-75716651D01*
X145153505Y-75766945D01*
X145153498Y-75766949D01*
X145038289Y-75853195D01*
X145038286Y-75853198D01*
X144952040Y-75968407D01*
X144952036Y-75968414D01*
X144901742Y-76103260D01*
X144895335Y-76162859D01*
X144895335Y-76162866D01*
X144895334Y-76162878D01*
X137433727Y-76162878D01*
X137390541Y-76070267D01*
X137260020Y-75883862D01*
X137260018Y-75883859D01*
X137099114Y-75722955D01*
X136912707Y-75592433D01*
X136912705Y-75592432D01*
X136706470Y-75496262D01*
X136706461Y-75496259D01*
X136486670Y-75437367D01*
X136486666Y-75437366D01*
X136486665Y-75437366D01*
X136486664Y-75437365D01*
X136486659Y-75437365D01*
X136259975Y-75417533D01*
X136259971Y-75417533D01*
X136033286Y-75437365D01*
X136033275Y-75437367D01*
X135813484Y-75496259D01*
X135813475Y-75496262D01*
X135607240Y-75592432D01*
X135607238Y-75592433D01*
X135420831Y-75722955D01*
X135259927Y-75883859D01*
X135129405Y-76070266D01*
X135129404Y-76070268D01*
X135033234Y-76276503D01*
X135033231Y-76276512D01*
X134974339Y-76496303D01*
X134974337Y-76496314D01*
X134954505Y-76722999D01*
X110990500Y-76722999D01*
X110990500Y-70997026D01*
X132154500Y-70997026D01*
X132154500Y-71585999D01*
X132184059Y-71772631D01*
X132242454Y-71952349D01*
X132328239Y-72120710D01*
X132328240Y-72120712D01*
X132439310Y-72273586D01*
X132572927Y-72407203D01*
X132725801Y-72518273D01*
X132786218Y-72549057D01*
X132894163Y-72604058D01*
X132894165Y-72604058D01*
X132894168Y-72604060D01*
X132990333Y-72635306D01*
X133073881Y-72662453D01*
X133260514Y-72692013D01*
X133260519Y-72692013D01*
X133449486Y-72692013D01*
X133636118Y-72662453D01*
X133815832Y-72604060D01*
X133984199Y-72518273D01*
X134137073Y-72407203D01*
X134270690Y-72273586D01*
X134381760Y-72120712D01*
X134460016Y-71967124D01*
X134507989Y-71916330D01*
X134575810Y-71899534D01*
X134641945Y-71922071D01*
X134685397Y-71976786D01*
X134694500Y-72023419D01*
X134694500Y-72239383D01*
X134694501Y-72239389D01*
X134700908Y-72298996D01*
X134751202Y-72433841D01*
X134751206Y-72433848D01*
X134837452Y-72549057D01*
X134837455Y-72549060D01*
X134952664Y-72635306D01*
X134952671Y-72635310D01*
X135087517Y-72685604D01*
X135087516Y-72685604D01*
X135094444Y-72686348D01*
X135147127Y-72692013D01*
X136642872Y-72692012D01*
X136702483Y-72685604D01*
X136837331Y-72635309D01*
X136952546Y-72549059D01*
X137038796Y-72433844D01*
X137089091Y-72298996D01*
X137095500Y-72239386D01*
X137095499Y-70343641D01*
X137089091Y-70284030D01*
X137048732Y-70175823D01*
X137038797Y-70149184D01*
X137038793Y-70149177D01*
X136952547Y-70033968D01*
X136952544Y-70033965D01*
X136837335Y-69947719D01*
X136837328Y-69947715D01*
X136795263Y-69932026D01*
X170054500Y-69932026D01*
X170054500Y-70120999D01*
X170084059Y-70307631D01*
X170142454Y-70487349D01*
X170215486Y-70630681D01*
X170228240Y-70655712D01*
X170339310Y-70808586D01*
X170472927Y-70942203D01*
X170587582Y-71025505D01*
X170625802Y-71053274D01*
X170779386Y-71131528D01*
X170830183Y-71179502D01*
X170846978Y-71247323D01*
X170824441Y-71313458D01*
X170769726Y-71356910D01*
X170723093Y-71366013D01*
X170507129Y-71366013D01*
X170507123Y-71366014D01*
X170447516Y-71372421D01*
X170312671Y-71422715D01*
X170312664Y-71422719D01*
X170197455Y-71508965D01*
X170197452Y-71508968D01*
X170111206Y-71624177D01*
X170111202Y-71624184D01*
X170060908Y-71759030D01*
X170054501Y-71818629D01*
X170054501Y-71818636D01*
X170054500Y-71818648D01*
X170054500Y-73314383D01*
X170054501Y-73314389D01*
X170060908Y-73373996D01*
X170111202Y-73508841D01*
X170111206Y-73508848D01*
X170197452Y-73624057D01*
X170197455Y-73624060D01*
X170312664Y-73710306D01*
X170312671Y-73710310D01*
X170447517Y-73760604D01*
X170447516Y-73760604D01*
X170454444Y-73761348D01*
X170507127Y-73767013D01*
X172402872Y-73767012D01*
X172462483Y-73760604D01*
X172597331Y-73710309D01*
X172712546Y-73624059D01*
X172798796Y-73508844D01*
X172849091Y-73373996D01*
X172855500Y-73314386D01*
X172855499Y-71818641D01*
X172849091Y-71759030D01*
X172798796Y-71624182D01*
X172798795Y-71624181D01*
X172798793Y-71624177D01*
X172712547Y-71508968D01*
X172712544Y-71508965D01*
X172597335Y-71422719D01*
X172597328Y-71422715D01*
X172462482Y-71372421D01*
X172462483Y-71372421D01*
X172402883Y-71366014D01*
X172402881Y-71366013D01*
X172402873Y-71366013D01*
X172402865Y-71366013D01*
X172186909Y-71366013D01*
X172119870Y-71346328D01*
X172074115Y-71293524D01*
X172064171Y-71224366D01*
X172093196Y-71160810D01*
X172130614Y-71131528D01*
X172284199Y-71053273D01*
X172437073Y-70942203D01*
X172570690Y-70808586D01*
X172681760Y-70655712D01*
X172767547Y-70487345D01*
X172825940Y-70307631D01*
X172846816Y-70175825D01*
X172855500Y-70120999D01*
X172855500Y-69932026D01*
X172825940Y-69745394D01*
X172767545Y-69565676D01*
X172681759Y-69397313D01*
X172570690Y-69244440D01*
X172437073Y-69110823D01*
X172284199Y-68999753D01*
X172115836Y-68913967D01*
X171936118Y-68855572D01*
X171749486Y-68826013D01*
X171749481Y-68826013D01*
X171160519Y-68826013D01*
X171160514Y-68826013D01*
X170973881Y-68855572D01*
X170794163Y-68913967D01*
X170625800Y-68999753D01*
X170538579Y-69063123D01*
X170472927Y-69110823D01*
X170472925Y-69110825D01*
X170472924Y-69110825D01*
X170339312Y-69244437D01*
X170339312Y-69244438D01*
X170339310Y-69244440D01*
X170291610Y-69310092D01*
X170228240Y-69397313D01*
X170142454Y-69565676D01*
X170084059Y-69745394D01*
X170054500Y-69932026D01*
X136795263Y-69932026D01*
X136702482Y-69897421D01*
X136702483Y-69897421D01*
X136642883Y-69891014D01*
X136642881Y-69891013D01*
X136642873Y-69891013D01*
X136642864Y-69891013D01*
X135147129Y-69891013D01*
X135147123Y-69891014D01*
X135087516Y-69897421D01*
X134952671Y-69947715D01*
X134952664Y-69947719D01*
X134837455Y-70033965D01*
X134837452Y-70033968D01*
X134751206Y-70149177D01*
X134751202Y-70149184D01*
X134700908Y-70284030D01*
X134694501Y-70343629D01*
X134694501Y-70343636D01*
X134694500Y-70343648D01*
X134694500Y-70559603D01*
X134674815Y-70626642D01*
X134622011Y-70672397D01*
X134552853Y-70682341D01*
X134489297Y-70653316D01*
X134460015Y-70615898D01*
X134381759Y-70462313D01*
X134270690Y-70309440D01*
X134137073Y-70175823D01*
X133984199Y-70064753D01*
X133815836Y-69978967D01*
X133636118Y-69920572D01*
X133449486Y-69891013D01*
X133449481Y-69891013D01*
X133260519Y-69891013D01*
X133260514Y-69891013D01*
X133073881Y-69920572D01*
X132894163Y-69978967D01*
X132725800Y-70064753D01*
X132648392Y-70120994D01*
X132572927Y-70175823D01*
X132572925Y-70175825D01*
X132572924Y-70175825D01*
X132439312Y-70309437D01*
X132439312Y-70309438D01*
X132439310Y-70309440D01*
X132391610Y-70375092D01*
X132328240Y-70462313D01*
X132242454Y-70630676D01*
X132184059Y-70810394D01*
X132154500Y-70997026D01*
X110990500Y-70997026D01*
X110990500Y-55802706D01*
X110990618Y-55797297D01*
X110993377Y-55734108D01*
X111007386Y-55413226D01*
X111008326Y-55402495D01*
X111033817Y-55208872D01*
X144899500Y-55208872D01*
X144899500Y-55971127D01*
X144926123Y-56173339D01*
X144933730Y-56231116D01*
X145001079Y-56482466D01*
X145001602Y-56484418D01*
X145001605Y-56484428D01*
X145101953Y-56726690D01*
X145101958Y-56726700D01*
X145233075Y-56953803D01*
X145392718Y-57161851D01*
X145392726Y-57161860D01*
X145578140Y-57347274D01*
X145578148Y-57347281D01*
X145786196Y-57506924D01*
X146013299Y-57638041D01*
X146013309Y-57638046D01*
X146255571Y-57738394D01*
X146255581Y-57738398D01*
X146508884Y-57806270D01*
X146768880Y-57840500D01*
X146768887Y-57840500D01*
X158031113Y-57840500D01*
X158031120Y-57840500D01*
X158291116Y-57806270D01*
X158544419Y-57738398D01*
X158786697Y-57638043D01*
X159013803Y-57506924D01*
X159221851Y-57347282D01*
X159221855Y-57347277D01*
X159221860Y-57347274D01*
X159407274Y-57161860D01*
X159407277Y-57161855D01*
X159407282Y-57161851D01*
X159566924Y-56953803D01*
X159698043Y-56726697D01*
X159798398Y-56484419D01*
X159866270Y-56231116D01*
X159900500Y-55971120D01*
X159900500Y-55840000D01*
X159900500Y-55774108D01*
X159900500Y-55274108D01*
X159900500Y-55208880D01*
X159866270Y-54948884D01*
X159798398Y-54695581D01*
X159775677Y-54640727D01*
X159698046Y-54453309D01*
X159698041Y-54453299D01*
X159566924Y-54226196D01*
X159407281Y-54018148D01*
X159407274Y-54018140D01*
X159221860Y-53832726D01*
X159221851Y-53832718D01*
X159013803Y-53673075D01*
X158786700Y-53541958D01*
X158786690Y-53541953D01*
X158544428Y-53441605D01*
X158544421Y-53441603D01*
X158544419Y-53441602D01*
X158291116Y-53373730D01*
X158233339Y-53366123D01*
X158031127Y-53339500D01*
X158031120Y-53339500D01*
X157965892Y-53339500D01*
X146965892Y-53339500D01*
X146900000Y-53339500D01*
X146768880Y-53339500D01*
X146768872Y-53339500D01*
X146537772Y-53369926D01*
X146508884Y-53373730D01*
X146255581Y-53441602D01*
X146255571Y-53441605D01*
X146013309Y-53541953D01*
X146013299Y-53541958D01*
X145786196Y-53673075D01*
X145578148Y-53832718D01*
X145392718Y-54018148D01*
X145233075Y-54226196D01*
X145101958Y-54453299D01*
X145101953Y-54453309D01*
X145001605Y-54695571D01*
X145001602Y-54695581D01*
X144933730Y-54948885D01*
X144899500Y-55208872D01*
X111033817Y-55208872D01*
X111058152Y-55024025D01*
X111060025Y-55013405D01*
X111142649Y-54640709D01*
X111145440Y-54630295D01*
X111260230Y-54266227D01*
X111263917Y-54256095D01*
X111410003Y-53903412D01*
X111414561Y-53893638D01*
X111590822Y-53555045D01*
X111596217Y-53545700D01*
X111801325Y-53223744D01*
X111807515Y-53214905D01*
X112039896Y-52912060D01*
X112046834Y-52903791D01*
X112304726Y-52622352D01*
X112312352Y-52614726D01*
X112593791Y-52356834D01*
X112602060Y-52349896D01*
X112904905Y-52117515D01*
X112913744Y-52111325D01*
X113235700Y-51906217D01*
X113245045Y-51900822D01*
X113583638Y-51724561D01*
X113593412Y-51720003D01*
X113946095Y-51573917D01*
X113956227Y-51570230D01*
X114320295Y-51455440D01*
X114330709Y-51452649D01*
X114703405Y-51370025D01*
X114714025Y-51368152D01*
X115092495Y-51318326D01*
X115103226Y-51317386D01*
X115487297Y-51300617D01*
X115492706Y-51300500D01*
X115555892Y-51300500D01*
X189244108Y-51300500D01*
X189307294Y-51300500D01*
X189312702Y-51300617D01*
G37*
%TD.AperFunction*%
%TD*%
M02*
